<?xml version="1.0" standalone="no"?>
<!DOCTYPE svg PUBLIC "-//W3C//DTD SVG 1.1//EN" "http://www.w3.org/Graphics/SVG/1.1/DTD/svg11.dtd" >
<svg xmlns="http://www.w3.org/2000/svg">
<metadata>Generated by IcoMoon</metadata>
<defs>
<font id="icomoon" horiz-adv-x="1024">
<font-face units-per-em="1024" ascent="960" descent="-64" />
<missing-glyph horiz-adv-x="1024" />
<glyph unicode="&#x20;" d="" horiz-adv-x="512" />
<glyph unicode="&#xe600;" d="M738.304 736.768c23.552 12.288 46.080 26.624 66.56 45.056 23.552 21.504 53.248 52.224 75.776 102.4 2.048 5.12 2.048 10.24 0 15.36s-5.12 9.216-10.24 11.264c-35.84 14.336-71.68 20.48-111.616 20.48-5.12 0-10.24 0-16.384 0-36.864-2.048-73.728-10.24-107.52-23.552-33.792-14.336-65.536-32.768-94.208-57.344-15.36-14.336-28.672-27.648-40.96-43.008-26.624 101.376-58.368 150.528-96.256 152.576-4.096 0-8.192-1.024-12.288-3.072 0 0-53.248-35.84-56.32-37.888-4.096-3.072-7.168-7.168-8.192-12.288s0-11.264 3.072-15.36c5.12-9.216 45.056-88.064 65.536-138.24-244.736-5.12-395.264-131.072-395.264-329.728 0-109.568 44.032-231.424 118.784-326.656 81.92-103.424 185.344-160.768 291.84-160.768 33.792 0 68.608 4.096 101.376 12.288 32.768-8.192 67.584-12.288 101.376-12.288 106.496 0 210.944 57.344 291.84 160.768 74.752 94.208 118.784 217.088 118.784 326.656 0 162.816-98.304 270.336-285.696 313.344zM613.376-25.088c-32.768 0-64.512 4.096-96.256 12.288-2.048 0-3.072 1.024-5.12 1.024s-3.072 0-5.12-1.024c-31.744-8.192-63.488-12.288-96.256-12.288-205.824 0-371.712 245.76-371.712 448.512 0 182.272 139.264 290.816 371.712 290.816 2.048 0 5.12 0 7.168 0h4.096c6.144 0 12.288 3.072 16.384 8.192s5.12 12.288 3.072 17.408c-8.192 24.576-28.672 69.632-45.056 103.424-12.288 25.6-20.48 41.984-25.6 53.248 8.192 4.096 19.456 12.288 34.816 22.528 10.24-7.168 37.888-35.84 69.632-164.864 2.048-8.192 8.192-14.336 16.384-15.36s16.384 3.072 19.456 10.24c14.336 26.624 31.744 48.128 57.344 70.656 24.576 21.504 52.224 38.912 82.944 50.176 29.696 12.288 61.44 19.456 94.208 21.504 5.12 0 9.216 0 14.336 0 27.648 0 52.224-4.096 75.776-11.264-17.408-32.768-37.888-53.248-56.32-69.632-24.576-21.504-52.224-38.912-82.944-50.176-11.264-4.096-22.528-8.192-36.864-11.264-9.216-2.048-15.36-11.264-14.336-20.48s8.192-17.408 17.408-18.432c214.016-27.648 322.56-124.928 322.56-286.72 0-202.752-165.888-448.512-371.712-448.512z" />
<glyph unicode="&#xe601;" d="M983.040 65.024v373.76c0 71.68-58.368 129.024-130.048 129.024h-20.48c0 1.024-1.024 1.024-1.024 2.048l-235.52 233.472c10.24 16.384 16.384 34.816 16.384 55.296 0 56.32-45.056 101.376-100.352 101.376-56.32 0-101.376-45.056-101.376-101.376 0-20.48 6.144-39.936 17.408-56.32l-234.496-232.448c-1.024-1.024-1.024-1.024-1.024-2.048h-20.48c-72.704 1.024-131.072-57.344-131.072-129.024v-373.76c0-71.68 58.368-129.024 130.048-129.024h681.984c71.68 0 130.048 58.368 130.048 129.024zM512 921.088c33.792 0 62.464-27.648 62.464-61.44s-27.648-61.44-62.464-61.44c-33.792 0-62.464 27.648-62.464 61.44s27.648 61.44 62.464 61.44zM454.656 774.656c16.384-11.264 35.84-17.408 56.32-17.408 21.504 0 40.96 6.144 57.344 17.408l207.872-206.848h-528.384l206.848 206.848zM530.432 307.712v96.256c0 10.24 8.192 18.432 18.432 18.432 5.12 0 10.24-2.048 13.312-5.12l35.84-34.816 34.816 34.816c4.096 4.096 8.192 5.12 13.312 5.12s9.216-2.048 13.312-5.12l34.816-34.816 34.816 34.816c3.072 3.072 8.192 5.12 13.312 5.12 10.24 0 18.432-8.192 18.432-18.432v-96.256c0-55.296-38.912-101.376-92.16-111.616v-69.632c28.672 40.96 75.776 67.584 129.024 67.584 6.144-17.408 9.216-35.84 9.216-55.296 0-86.016-69.632-155.648-156.672-155.648h-9.216c-86.016 0-156.672 69.632-156.672 155.648 0 19.456 3.072 37.888 9.216 55.296 53.248 0 100.352-26.624 129.024-67.584v69.632c-53.248 10.24-92.16 56.32-92.16 111.616zM944.128 65.024c0-50.176-40.96-90.112-91.136-90.112h-96.256c53.248 34.816 88.064 95.232 88.064 162.816 0 24.576-4.096 48.128-11.264 68.608-6.144 15.36-20.48 25.6-36.864 25.6-6.144 0-12.288 0-17.408-1.024 13.312 22.528 20.48 48.128 20.48 75.776v96.256c0 31.744-25.6 57.344-57.344 57.344-15.36 0-29.696-6.144-40.96-17.408l-7.168-7.168-8.192 8.192c-11.264 11.264-25.6 16.384-40.96 16.384s-29.696-6.144-40.96-17.408l-7.168-7.168-8.192 7.168c-10.24 11.264-25.6 17.408-40.96 17.408-31.744 0-57.344-25.6-57.344-57.344v-96.256c0-27.648 7.168-53.248 20.48-75.776-6.144 1.024-11.264 1.024-17.408 1.024-16.384 0-30.72-10.24-36.864-25.6-8.192-20.48-11.264-44.032-11.264-68.608 0-67.584 34.816-128 88.064-162.816h-362.496c-50.176 0-91.136 39.936-91.136 90.112v373.76c0 50.176 40.96 90.112 91.136 90.112h681.984c50.176 0 91.136-39.936 91.136-90.112v-373.76z" />
<glyph unicode="&#xe602;" d="M726.016 2.56c-16.384 0-32.768 5.12-50.176 14.336l-628.736 361.472c-30.72 17.408-47.104 41.984-47.104 69.632s16.384 52.224 47.104 69.632l628.736 361.472c17.408 10.24 33.792 14.336 50.176 14.336 41.984 0 70.656-33.792 70.656-83.968v-721.92c0-51.2-27.648-84.992-70.656-84.992zM726.016 852.48c-8.192 0-18.432-3.072-29.696-9.216l-628.736-361.472c-16.384-10.24-26.624-22.528-26.624-33.792s9.216-23.552 26.624-33.792l628.736-361.472c10.24-6.144 20.48-9.216 29.696-9.216 26.624 0 28.672 29.696 28.672 43.008v722.944c1.024 12.288-2.048 43.008-28.672 43.008zM1003.52 427.52h-227.328c-11.264 0-20.48 9.216-20.48 20.48s9.216 20.48 20.48 20.48h227.328c11.264 0 20.48-9.216 20.48-20.48s-9.216-20.48-20.48-20.48z" />
<glyph unicode="&#xe603;" d="M946.176 755.2h-133.12v103.424c0 56.32-51.2 101.376-113.664 101.376h-374.784c-62.464 0-113.664-46.080-113.664-101.376v-103.424h-133.12c-43.008 0-77.824-31.744-77.824-71.68 0-38.912 34.816-70.656 77.824-70.656h15.36v-575.488c0-56.32 51.2-101.376 113.664-101.376h609.28c62.464 0 113.664 46.080 113.664 101.376v575.488h15.36c43.008 0 77.824 31.744 77.824 70.656 1.024 39.936-33.792 71.68-76.8 71.68zM946.176 652.8h-34.816c-11.264 0-20.48-9.216-20.48-20.48v-594.944c0-34.816-32.768-62.464-73.728-62.464h-610.304c-40.96 0-73.728 27.648-73.728 62.464v594.944c0 11.264-9.216 19.456-19.456 19.456h-35.84c-21.504 0-38.912 14.336-38.912 31.744s17.408 31.744 38.912 31.744h152.576c11.264 0 19.456 9.216 19.456 19.456v122.88c0 34.816 32.768 62.464 73.728 62.464h374.784c40.96 0 73.728-27.648 73.728-62.464v-122.88c0-11.264 9.216-19.456 19.456-19.456h152.576c21.504 0 38.912-14.336 38.912-31.744 2.048-17.408-16.384-30.72-36.864-30.72zM722.944 652.8c-36.864 0-66.56-27.648-66.56-60.416v-492.544c0-33.792 29.696-60.416 66.56-60.416s66.56 27.648 66.56 60.416v491.52c0 33.792-29.696 61.44-66.56 61.44zM750.592 98.816c0-11.264-12.288-21.504-27.648-21.504-14.336 0-27.648 10.24-27.648 21.504v492.544c0 11.264 12.288 21.504 27.648 21.504 14.336 0 27.648-10.24 27.648-21.504v-492.544zM512 652.8c-36.864 0-66.56-27.648-66.56-60.416v-492.544c0-33.792 29.696-60.416 66.56-60.416s66.56 27.648 66.56 60.416v491.52c0 33.792-29.696 61.44-66.56 61.44zM539.648 98.816c0-11.264-12.288-21.504-27.648-21.504-14.336 0-27.648 10.24-27.648 21.504v492.544c0 11.264 12.288 21.504 27.648 21.504 14.336 0 27.648-10.24 27.648-21.504v-492.544zM301.056 652.8c-36.864 0-66.56-27.648-66.56-60.416v-492.544c0-33.792 29.696-60.416 66.56-60.416s66.56 27.648 66.56 60.416v491.52c0 33.792-29.696 61.44-66.56 61.44zM328.704 98.816c0-11.264-12.288-21.504-27.648-21.504-14.336 0-27.648 10.24-27.648 21.504v492.544c0 11.264 12.288 21.504 27.648 21.504 14.336 0 27.648-10.24 27.648-21.504v-492.544zM348.16 715.264h327.68c11.264 0 19.456 9.216 19.456 19.456v57.344c0 35.84-31.744 64.512-71.68 64.512h-224.256c-38.912 0-71.68-28.672-71.68-64.512v-57.344c1.024-10.24 9.216-19.456 20.48-19.456zM367.616 793.088c0 14.336 14.336 25.6 31.744 25.6h225.28c17.408 0 31.744-11.264 31.744-25.6v-37.888h-288.768v37.888z" />
<glyph unicode="&#xe604;" d="M972.8 435.712c-14.336 3.072-31.744 36.864-32.768 47.104 0 4.096 10.24 15.36 29.696 21.504 35.84 11.264 53.248 57.344 37.888 102.4-12.288 37.888-43.008 63.488-73.728 63.488-6.144 0-11.264-1.024-17.408-3.072-1.024 0-2.048 0-4.096 0-16.384 0-43.008 18.432-48.128 25.6-1.024 3.072 1.024 18.432 14.336 33.792 24.576 27.648 17.408 75.776-18.432 107.52-18.432 16.384-41.984 26.624-63.488 26.624-18.432 0-34.816-7.168-45.056-18.432-4.096-4.096-15.36-8.192-31.744-8.192-13.312 0-23.552 2.048-25.6 3.072-3.072 2.048-8.192 16.384-4.096 36.864 8.192 36.864-23.552 74.752-69.632 83.968-6.144 1.024-14.336 2.048-21.504 2.048-37.888 0-68.608-20.48-74.752-50.176-3.072-14.336-36.864-31.744-47.104-32.768-3.072 0-15.36 10.24-21.504 29.696-9.216 25.6-36.864 43.008-70.656 43.008-11.264 0-21.504-2.048-32.768-5.12-20.48-6.144-38.912-19.456-50.176-34.816-12.288-17.408-16.384-37.888-11.264-56.32 4.096-13.312-16.384-46.080-24.576-52.224 0 0-1.024 0-2.048 0-7.168 0-19.456 5.12-30.72 14.336-10.24 9.216-24.576 14.336-39.936 14.336-23.552 0-49.152-12.288-67.584-32.768-17.408-19.456-27.648-44.032-26.624-67.584 1.024-16.384 7.168-31.744 18.432-41.984 10.24-9.216 9.216-48.128 5.12-57.344-1.024-1.024-8.192-6.144-22.528-6.144-5.12 0-9.216 1.024-14.336 1.024-4.096 1.024-8.192 1.024-11.264 1.024-32.768 0-63.488-29.696-72.704-70.656-10.24-46.080 11.264-90.112 48.128-98.304 14.336-3.072 31.744-36.864 32.768-47.104 0-4.096-10.24-15.36-29.696-22.528-18.432-6.144-32.768-20.48-38.912-40.96-6.144-18.432-6.144-39.936 1.024-60.416 12.288-37.888 41.984-63.488 73.728-63.488 6.144 0 11.264 1.024 17.408 3.072s13.312 3.072 19.456 3.072c11.264 0 16.384-3.072 16.384-3.072 5.12-9.216 11.264-47.104 1.024-58.368-24.576-27.648-17.408-75.776 18.432-107.52 18.432-16.384 41.984-26.624 63.488-26.624 18.432 0 34.816 7.168 46.080 19.456 3.072 4.096 15.36 8.192 31.744 8.192 13.312 0 23.552-2.048 25.6-3.072 3.072-2.048 8.192-16.384 4.096-36.864-4.096-18.432 2.048-38.912 16.384-54.272 13.312-14.336 31.744-25.6 53.248-29.696 7.168-2.048 15.36-2.048 22.528-2.048 37.888 0 68.608 20.48 75.776 50.176 3.072 14.336 36.864 31.744 47.104 32.768 3.072 0 15.36-10.24 21.504-29.696 8.192-26.624 35.84-43.008 69.632-43.008 11.264 0 21.504 2.048 32.768 5.12 20.48 6.144 37.888 19.456 50.176 34.816 12.288 17.408 16.384 37.888 11.264 56.32-4.096 13.312 16.384 46.080 24.576 52.224 0 0 1.024 0 2.048 0 7.168 0 19.456-5.12 30.72-14.336 10.24-9.216 24.576-14.336 39.936-14.336 23.552 0 49.152 12.288 67.584 32.768 17.408 19.456 27.648 44.032 26.624 66.56-1.024 16.384-7.168 31.744-18.432 41.984-10.24 9.216-9.216 48.128-5.12 57.344 1.024 1.024 8.192 6.144 22.528 6.144 5.12 0 9.216-1.024 14.336-2.048 4.096-1.024 7.168-1.024 11.264-1.024 33.792 0 63.488 29.696 72.704 70.656 9.216 48.128-11.264 91.136-49.152 98.304zM983.040 346.624c-5.12-24.576-21.504-39.936-33.792-39.936-1.024 0-2.048 0-3.072 0-7.168 2.048-15.36 2.048-22.528 2.048-27.648 0-50.176-11.264-57.344-28.672-8.192-18.432-14.336-77.824 14.336-103.424 4.096-4.096 6.144-10.24 6.144-14.336 1.024-12.288-5.12-26.624-16.384-38.912s-25.6-19.456-37.888-19.456c-6.144 0-10.24 1.024-13.312 5.12-26.624 23.552-61.44 31.744-82.944 17.408-17.408-12.288-51.2-60.416-38.912-96.256 3.072-8.192-2.048-16.384-5.12-20.48-6.144-9.216-17.408-16.384-29.696-20.48-7.168-2.048-13.312-3.072-20.48-3.072-16.384 0-29.696 6.144-32.768 16.384-9.216 28.672-32.768 56.32-59.392 56.32-1.024 0-2.048 0-4.096 0-20.48-2.048-73.728-26.624-81.92-63.488-2.048-11.264-17.408-19.456-36.864-19.456-5.12 0-9.216 1.024-14.336 2.048-13.312 3.072-24.576 9.216-31.744 17.408-3.072 4.096-9.216 11.264-7.168 20.48 6.144 30.72 0 68.608-26.624 80.896-9.216 4.096-25.6 7.168-41.984 7.168-19.456 0-46.080-4.096-61.44-20.48-4.096-5.12-11.264-6.144-16.384-6.144-12.288 0-25.6 6.144-36.864 16.384-20.48 18.432-24.576 41.984-15.36 52.224 25.6 28.672 14.336 86.016 4.096 104.448-8.192 14.336-26.624 23.552-50.176 23.552-10.24 0-21.504-2.048-31.744-5.12-12.288-4.096-32.768 9.216-40.96 35.84-4.096 12.288-4.096 25.6-1.024 36.864 2.048 5.12 5.12 13.312 13.312 16.384 29.696 9.216 59.392 34.816 56.32 63.488-2.048 20.48-26.624 73.728-63.488 81.92-13.312 3.072-23.552 24.576-18.432 51.2 6.144 26.624 24.576 41.984 37.888 38.912 7.168-2.048 15.36-2.048 22.528-2.048 27.648 0 50.176 11.264 58.368 28.672 8.192 18.432 14.336 77.824-14.336 103.424-4.096 4.096-6.144 10.24-6.144 14.336-1.024 12.288 5.12 26.624 16.384 38.912s25.6 19.456 38.912 19.456c6.144 0 10.24-1.024 13.312-4.096 26.624-23.552 62.464-31.744 82.944-17.408 16.384 12.288 51.2 60.416 39.936 96.256-3.072 8.192 2.048 16.384 5.12 20.48 6.144 9.216 17.408 16.384 30.72 20.48 7.168 2.048 13.312 3.072 20.48 3.072 16.384 0 29.696-6.144 32.768-16.384 9.216-29.696 33.792-59.392 62.464-56.32 20.48 2.048 73.728 26.624 81.92 63.488 2.048 11.264 17.408 19.456 36.864 19.456 5.12 0 9.216-1.024 14.336-2.048 26.624-6.144 41.984-24.576 38.912-37.888-7.168-30.72 0-68.608 26.624-80.896 9.216-4.096 25.6-7.168 41.984-7.168 19.456 0 46.080 4.096 61.44 20.48 4.096 5.12 11.264 6.144 16.384 6.144 12.288 0 25.6-6.144 36.864-16.384 20.48-18.432 24.576-41.984 15.36-52.224-20.48-22.528-33.792-59.392-17.408-82.944 10.24-14.336 48.128-41.984 80.896-41.984 5.12 0 11.264 1.024 16.384 2.048 2.048 0 3.072 1.024 5.12 1.024 12.288 0 28.672-12.288 36.864-35.84 8.192-25.6 0-48.128-13.312-52.224-29.696-9.216-59.392-34.816-56.32-63.488 2.048-20.48 26.624-74.752 63.488-81.92 7.168-5.12 18.432-26.624 12.288-53.248zM512 723.456c-28.672 0-57.344-4.096-83.968-13.312-144.384-46.080-224.256-201.728-178.176-347.136 36.864-113.664 142.336-190.464 262.144-190.464 28.672 0 57.344 4.096 83.968 13.312 144.384 46.080 224.256 201.728 178.176 347.136-36.864 113.664-142.336 190.464-262.144 190.464zM584.704 222.72c-23.552-7.168-48.128-11.264-72.704-11.264-102.4 0-193.536 65.536-224.256 163.84-39.936 123.904 27.648 258.048 151.552 297.984 23.552 7.168 48.128 11.264 72.704 11.264 102.4 0 193.536-65.536 225.28-163.84 38.912-123.904-28.672-258.048-152.576-297.984z" />
<glyph unicode="&#xe605;" d="M232.448-64h791.552v389.12c0 33.792-27.648 61.44-61.44 61.44h-394.24c-1.024 0-2.048 0-3.072 0l79.872 101.376c24.576-26.624 56.32-43.008 89.088-43.008 13.312 0 26.624 3.072 37.888 8.192 10.24 4.096 15.36 16.384 10.24 26.624l-37.888 87.040 27.648 15.36c10.24-8.192 23.552-13.312 37.888-13.312 33.792 0 60.416 27.648 60.416 60.416s-27.648 60.416-60.416 60.416c-33.792 0-60.416-27.648-60.416-60.416 0-4.096 0-8.192 1.024-13.312l-22.528-12.288-35.84 81.92c-2.048 5.12-6.144 9.216-11.264 11.264s-10.24 2.048-15.36 0c-27.648-12.288-48.128-36.864-56.32-69.632-8.192-30.72-5.12-65.536 9.216-97.28 1.024-3.072 3.072-6.144 4.096-9.216-2.048-1.024-4.096-3.072-5.12-5.12l-68.608-87.040v470.016c0 33.792-27.648 61.44-61.44 61.44h-425.984c-33.792 0-61.44-27.648-61.44-61.44v-962.56h232.448zM808.96 649.728c11.264 0 19.456-9.216 19.456-19.456s-9.216-19.456-19.456-19.456c-11.264 0-19.456 9.216-19.456 19.456s9.216 19.456 19.456 19.456zM648.192 617.984c3.072 12.288 9.216 22.528 16.384 30.72l70.656-161.792c-31.744-1.024-64.512 23.552-80.896 61.44-10.24 22.528-12.288 47.104-6.144 69.632zM845.824-23.040v92.16h30.72v-92.16h-30.72zM962.56 345.6c11.264 0 20.48-9.216 20.48-20.48v-348.16h-64.512v112.64c0 11.264-9.216 20.48-20.48 20.48h-71.68c-11.264 0-20.48-9.216-20.48-20.48v-112.64h-258.048v348.16c0 11.264 9.216 20.48 20.48 20.48h394.24zM160.768-23.040v92.16h30.72v-92.16h-30.72zM40.96-23.040v921.6c0 11.264 9.216 20.48 20.48 20.48h424.96c11.264 0 20.48-9.216 20.48-20.48v-921.6h-274.432v112.64c0 11.264-9.216 20.48-20.48 20.48h-71.68c-11.264 0-20.48-9.216-20.48-20.48v-112.64h-78.848zM135.168 683.52h61.44c22.528 0 40.96 18.432 40.96 40.96v92.16c0 22.528-18.432 40.96-40.96 40.96h-61.44c-22.528 0-40.96-18.432-40.96-40.96v-92.16c0-22.528 18.432-40.96 40.96-40.96zM135.168 816.64h61.44v-92.16h-61.44v92.16zM345.088 683.52h61.44c22.528 0 40.96 18.432 40.96 40.96v92.16c0 22.528-18.432 40.96-40.96 40.96h-61.44c-22.528 0-40.96-18.432-40.96-40.96v-92.16c0-22.528 18.432-40.96 40.96-40.96zM345.088 816.64h61.44v-92.16h-61.44v92.16zM135.168 478.72h61.44c22.528 0 40.96 18.432 40.96 40.96v81.92c0 22.528-18.432 40.96-40.96 40.96h-61.44c-22.528 0-40.96-18.432-40.96-40.96v-81.92c0-22.528 18.432-40.96 40.96-40.96zM135.168 601.6h61.44v-81.92h-61.44v81.92zM345.088 478.72h61.44c22.528 0 40.96 18.432 40.96 40.96v81.92c0 22.528-18.432 40.96-40.96 40.96h-61.44c-22.528 0-40.96-18.432-40.96-40.96v-81.92c0-22.528 18.432-40.96 40.96-40.96zM345.088 601.6h61.44v-81.92h-61.44v81.92zM135.168 273.92h61.44c22.528 0 40.96 18.432 40.96 40.96v92.16c0 22.528-18.432 40.96-40.96 40.96h-61.44c-22.528 0-40.96-18.432-40.96-40.96v-92.16c0-22.528 18.432-40.96 40.96-40.96zM135.168 407.040h61.44v-92.16h-61.44v92.16zM345.088 273.92h61.44c22.528 0 40.96 18.432 40.96 40.96v92.16c0 22.528-18.432 40.96-40.96 40.96h-61.44c-22.528 0-40.96-18.432-40.96-40.96v-92.16c0-22.528 18.432-40.96 40.96-40.96zM345.088 407.040h61.44v-92.16h-61.44v92.16zM629.76 166.4h61.44c22.528 0 40.96 18.432 40.96 40.96v51.2c0 22.528-18.432 40.96-40.96 40.96h-61.44c-22.528 0-40.96-18.432-40.96-40.96v-51.2c0-22.528 18.432-40.96 40.96-40.96zM629.76 258.56h61.44v-51.2h-61.44v51.2zM629.76-2.56h61.44c22.528 0 40.96 18.432 40.96 40.96v51.2c0 22.528-18.432 40.96-40.96 40.96h-61.44c-22.528 0-40.96-18.432-40.96-40.96v-51.2c0-22.528 18.432-40.96 40.96-40.96zM629.76 89.6h61.44v-51.2h-61.44v51.2zM825.344 166.4h61.44c22.528 0 40.96 18.432 40.96 40.96v51.2c0 22.528-18.432 40.96-40.96 40.96h-61.44c-22.528 0-40.96-18.432-40.96-40.96v-51.2c1.024-22.528 18.432-40.96 40.96-40.96zM825.344 258.56h61.44v-51.2h-61.44v51.2z" />
<glyph unicode="&#xe606;" d="M232.448-64h791.552v389.12c0 33.792-27.648 61.44-61.44 61.44h-394.24c-7.168 0-14.336-1.024-20.48-4.096v516.096c0 33.792-27.648 61.44-61.44 61.44h-424.96c-33.792 0-61.44-27.648-61.44-61.44v-962.56h232.448zM846.848-23.040v92.16h30.72v-92.16h-30.72zM547.84 325.12c0 11.264 9.216 20.48 20.48 20.48h394.24c11.264 0 20.48-9.216 20.48-20.48v-348.16h-64.512v112.64c0 11.264-9.216 20.48-20.48 20.48h-71.68c-11.264 0-20.48-9.216-20.48-20.48v-112.64h-258.048v348.16zM160.768-23.040v92.16h30.72v-92.16h-30.72zM40.96-23.040v921.6c0 11.264 9.216 20.48 20.48 20.48h424.96c11.264 0 20.48-9.216 20.48-20.48v-921.6h-274.432v112.64c0 11.264-9.216 20.48-20.48 20.48h-71.68c-11.264 0-20.48-9.216-20.48-20.48v-112.64h-78.848zM135.168 683.52h61.44c22.528 0 40.96 18.432 40.96 40.96v92.16c0 22.528-18.432 40.96-40.96 40.96h-61.44c-22.528 0-40.96-18.432-40.96-40.96v-92.16c0-22.528 18.432-40.96 40.96-40.96zM196.608 816.64v-92.16h-61.44v92.16h61.44zM345.088 683.52h61.44c22.528 0 40.96 18.432 40.96 40.96v92.16c0 22.528-18.432 40.96-40.96 40.96h-61.44c-22.528 0-40.96-18.432-40.96-40.96v-92.16c0-22.528 18.432-40.96 40.96-40.96zM406.528 816.64v-92.16h-61.44v92.16h61.44zM135.168 478.72h61.44c22.528 0 40.96 18.432 40.96 40.96v81.92c0 22.528-18.432 40.96-40.96 40.96h-61.44c-22.528 0-40.96-18.432-40.96-40.96v-81.92c0-22.528 18.432-40.96 40.96-40.96zM196.608 601.6v-81.92h-61.44v81.92h61.44zM345.088 478.72h61.44c22.528 0 40.96 18.432 40.96 40.96v81.92c0 22.528-18.432 40.96-40.96 40.96h-61.44c-22.528 0-40.96-18.432-40.96-40.96v-81.92c0-22.528 18.432-40.96 40.96-40.96zM406.528 601.6v-81.92h-61.44v81.92h61.44zM135.168 273.92h61.44c22.528 0 40.96 18.432 40.96 40.96v92.16c0 22.528-18.432 40.96-40.96 40.96h-61.44c-22.528 0-40.96-18.432-40.96-40.96v-92.16c0-22.528 18.432-40.96 40.96-40.96zM196.608 407.040v-92.16h-61.44v92.16h61.44zM345.088 273.92h61.44c22.528 0 40.96 18.432 40.96 40.96v92.16c0 22.528-18.432 40.96-40.96 40.96h-61.44c-22.528 0-40.96-18.432-40.96-40.96v-92.16c0-22.528 18.432-40.96 40.96-40.96zM406.528 407.040v-92.16h-61.44v92.16h61.44zM691.2 299.52h-61.44c-22.528 0-40.96-18.432-40.96-40.96v-51.2c0-22.528 18.432-40.96 40.96-40.96h61.44c22.528 0 40.96 18.432 40.96 40.96v51.2c0 22.528-18.432 40.96-40.96 40.96zM629.76 207.36v51.2h61.44v-51.2h-61.44zM691.2 130.56h-61.44c-22.528 0-40.96-18.432-40.96-40.96v-51.2c0-22.528 18.432-40.96 40.96-40.96h61.44c22.528 0 40.96 18.432 40.96 40.96v51.2c0 22.528-18.432 40.96-40.96 40.96zM629.76 38.4v51.2h61.44v-51.2h-61.44zM825.344 166.4h61.44c22.528 0 40.96 18.432 40.96 40.96v51.2c0 22.528-18.432 40.96-40.96 40.96h-61.44c-22.528 0-40.96-18.432-40.96-40.96v-51.2c1.024-22.528 18.432-40.96 40.96-40.96zM886.784 258.56v-51.2h-61.44v51.2h61.44z" />
<glyph unicode="&#xe607;" d="M111.616 38.4h800.768c61.44 0 111.616 49.152 111.616 110.592v471.040c0 60.416-50.176 110.592-111.616 110.592h-12.288v43.008c0 46.080-37.888 83.968-84.992 83.968h-117.76c-47.104 0-84.992-37.888-84.992-83.968v-43.008h-500.736c-61.44 0-111.616-49.152-111.616-110.592v-472.064c0-60.416 50.176-109.568 111.616-109.568zM651.264 773.632c0 24.576 20.48 45.056 46.080 45.056h117.76c25.6 0 46.080-20.48 46.080-45.056v-38.912h-209.92v38.912zM38.912 620.032c0 38.912 32.768 71.68 72.704 71.68h800.768c39.936 0 72.704-31.744 72.704-71.68v-472.064c0-38.912-32.768-71.68-72.704-71.68h-800.768c-39.936 0-72.704 31.744-72.704 71.68v472.064zM336.896 152.064c130.048 0 235.52 104.448 235.52 232.448s-105.472 232.448-235.52 232.448c-130.048 0-235.52-104.448-235.52-232.448s105.472-232.448 235.52-232.448zM336.896 578.048c108.544 0 196.608-87.040 196.608-193.536s-88.064-193.536-196.608-193.536c-108.544 0-196.608 87.040-196.608 193.536s88.064 193.536 196.608 193.536zM702.464 467.456h136.192c50.176 0 90.112 39.936 90.112 89.088s-40.96 89.088-90.112 89.088h-136.192c-50.176 0-90.112-39.936-90.112-89.088s39.936-89.088 90.112-89.088zM702.464 606.72h136.192c27.648 0 51.2-22.528 51.2-50.176s-22.528-50.176-51.2-50.176h-136.192c-27.648 0-51.2 22.528-51.2 50.176s22.528 50.176 51.2 50.176z" />
<glyph unicode="&#xe608;" d="M19.456-64c0 0 1.024 0 1.024 0 25.6 2.048 205.824 68.608 271.36 100.352 24.576 12.288 48.128 25.6 71.68 38.912 16.384 9.216 32.768 18.432 49.152 27.648 22.528 12.288 30.72 31.744 22.528 53.248 10.24-10.24 22.528-18.432 36.864-18.432s28.672 6.144 45.056 16.384c31.744 18.432 62.464 38.912 92.16 58.368 8.192 5.12 15.36 10.24 23.552 16.384 25.6 17.408 34.816 45.056 23.552 73.728-2.048 5.12-4.096 9.216-6.144 14.336 6.144-6.144 12.288-13.312 18.432-20.48 3.072-3.072 12.288-14.336 27.648-14.336 8.192 0 15.36 3.072 23.552 8.192 15.36 11.264 28.672 20.48 43.008 27.648 31.744 16.384 46.080 45.056 40.96 84.992-5.12 45.056-20.48 84.992-47.104 126.976 23.552-8.192 51.2-15.36 77.824-15.36v0c2.048 0 5.12 0 7.168 0 69.632 3.072 132.096 25.6 161.792 59.392 14.336 15.36 20.48 32.768 19.456 50.176-2.048 37.888-40.96 69.632-100.352 83.968 32.768 54.272 35.84 105.472 6.144 133.12-13.312 12.288-30.72 19.456-52.224 19.456-41.984 0-96.256-25.6-142.336-67.584 0 3.072-1.024 6.144-2.048 9.216-19.456 91.136-72.704 157.696-125.952 157.696-4.096 0-8.192 0-12.288-1.024-18.432-4.096-33.792-15.36-46.080-33.792-24.576-36.864-30.72-100.352-16.384-164.864 5.12-25.6 17.408-49.152 30.72-68.608-4.096 2.048-8.192 4.096-12.288 6.144-35.84 16.384-70.656 20.48-102.4 11.264-16.384-4.096-27.648-11.264-33.792-19.456-35.84-49.152-71.68-98.304-105.472-146.432l-27.648-38.912c-8.192-11.264-11.264-23.552-9.216-34.816s10.24-21.504 23.552-30.72c17.408-11.264 31.744-21.504 43.008-32.768-10.24 4.096-20.48 8.192-30.72 12.288-4.096 1.024-7.168 2.048-10.24 3.072h-1.024c-14.336 2.048-23.552 4.096-31.744 4.096-29.696 0-41.984-19.456-56.32-41.984-82.944-128-145.408-243.712-191.488-354.304-6.144-15.36-16.384-62.464-16.384-73.728 0-5.12 2.048-10.24 6.144-14.336 4.096-3.072 8.192-5.12 13.312-5.12zM53.248 13.824c45.056 108.544 106.496 222.208 185.344 347.136 15.36 23.552 17.408 23.552 22.528 23.552s13.312-1.024 24.576-3.072h1.024c1.024 0 2.048 0 3.072-1.024 29.696-11.264 60.416-23.552 90.112-34.816l7.168-3.072c7.168-3.072 16.384-1.024 21.504 5.12s7.168 15.36 3.072 22.528l-1.024 1.024c-1.024 2.048-2.048 5.12-4.096 8.192-25.6 45.056-66.56 73.728-94.208 92.16-3.072 2.048-5.12 4.096-5.12 4.096 0 1.024 1.024 2.048 2.048 4.096l27.648 38.912c34.816 48.128 69.632 98.304 105.472 146.432 1.024 1.024 4.096 3.072 12.288 5.12 23.552 6.144 49.152 3.072 76.8-9.216 44.032-19.456 124.928-56.32 124.928-56.32 9.216-4.096 20.48 0 25.6 9.216s1.024 20.48-8.192 25.6c-1.024 0-90.112 51.2-106.496 128-11.264 53.248-7.168 106.496 11.264 134.144 6.144 9.216 13.312 15.36 21.504 16.384 2.048 0 3.072 0 5.12 0 28.672 0 70.656-48.128 88.064-126.976 3.072-15.36 4.096-31.744 2.048-49.152-1.024-9.216 4.096-17.408 12.288-21.504 8.192-3.072 18.432 0 23.552 8.192 6.144 9.216 13.312 17.408 20.48 24.576 40.96 39.936 90.112 65.536 124.928 65.536 11.264 0 19.456-3.072 25.6-8.192 17.408-16.384 5.12-63.488-27.648-107.52-4.096-5.12-5.12-13.312-2.048-19.456s9.216-11.264 15.36-12.288c61.44-8.192 96.256-32.768 97.28-52.224 0-7.168-3.072-14.336-9.216-21.504-22.528-25.6-75.776-43.008-134.144-46.080-60.416-3.072-132.096 41.984-133.12 43.008-7.168 4.096-16.384 4.096-22.528-1.024s-9.216-14.336-6.144-21.504c0-1.024 0-2.048 1.024-2.048 1.024-2.048 2.048-6.144 5.12-9.216 2.048-2.048 4.096-4.096 5.12-6.144 1.024-1.024 3.072-3.072 4.096-4.096 43.008-52.224 65.536-100.352 71.68-151.552 3.072-23.552-3.072-36.864-20.48-45.056-19.456-8.192-34.816-18.432-49.152-29.696-12.288 14.336-26.624 29.696-41.984 41.984-9.216 7.168-18.432 11.264-28.672 15.36-4.096 2.048-8.192 3.072-12.288 5.12-7.168 3.072-16.384 2.048-22.528-4.096s-7.168-14.336-4.096-22.528c4.096-8.192 7.168-16.384 10.24-24.576 8.192-17.408 14.336-32.768 20.48-48.128 4.096-11.264 2.048-19.456-8.192-26.624-8.192-5.12-16.384-10.24-23.552-16.384-28.672-19.456-59.392-39.936-89.088-57.344-5.12-3.072-19.456-11.264-25.6-11.264-5.12 0-13.312 10.24-21.504 21.504-15.36 19.456-32.768 37.888-62.464 46.080-7.168 2.048-15.36 0-20.48-6.144s-6.144-14.336-3.072-20.48c4.096-8.192 7.168-16.384 10.24-23.552 8.192-17.408 15.36-33.792 22.528-50.176 1.024-2.048 1.024-3.072 1.024-3.072s-2.048-2.048-5.12-3.072c-17.408-9.216-33.792-18.432-50.176-28.672-22.528-13.312-46.080-26.624-68.608-37.888-56.32-27.648-176.128-71.68-230.4-89.088 3.072 14.336 6.144 27.648 9.216 32.768z" />
<glyph unicode="&#xe609;" d="M510.976 960c143.36 0 265.216-49.152 363.52-148.48 99.328-99.328 149.504-220.16 149.504-363.52s-49.152-263.168-146.432-359.424c-103.424-101.376-225.28-152.576-366.592-152.576-138.24 0-258.048 50.176-360.448 150.528-100.352 101.376-150.528 221.184-150.528 361.472s50.176 261.12 150.528 363.52c99.328 99.328 219.136 148.48 360.448 148.48zM513.024 867.84c-116.736 0-215.040-40.96-294.912-122.88-83.968-84.992-125.952-184.32-125.952-296.96 0-113.664 40.96-211.968 123.904-293.888 82.944-82.944 181.248-123.904 295.936-123.904 113.664 0 212.992 41.984 297.984 124.928 81.92 76.8 121.856 175.104 121.856 292.864 0 116.736-40.96 215.040-122.88 296.96s-180.224 122.88-295.936 122.88zM650.24 574.976v-208.896h-58.368v-248.832h-159.744v248.832h-58.368v208.896c0 9.216 3.072 17.408 9.216 23.552s14.336 9.216 23.552 9.216h209.92c8.192 0 16.384-3.072 22.528-9.216 8.192-6.144 11.264-14.336 11.264-23.552zM440.32 707.072c0 48.128 23.552 72.704 71.68 72.704s71.68-24.576 71.68-72.704c0-47.104-23.552-71.68-71.68-71.68s-71.68 23.552-71.68 71.68z" />
<glyph unicode="&#xe60a;" d="M510.976 960c143.36 0 264.192-50.176 363.52-149.504 99.328-98.304 149.504-219.136 149.504-362.496s-49.152-263.168-146.432-360.448c-103.424-101.376-225.28-151.552-366.592-151.552-138.24 0-258.048 50.176-360.448 150.528-100.352 101.376-150.528 221.184-150.528 361.472 0 139.264 50.176 260.096 150.528 362.496 99.328 99.328 220.16 149.504 360.448 149.504zM513.024 867.84c-116.736 0-215.040-40.96-294.912-123.904-83.968-83.968-125.952-183.296-125.952-295.936 0-113.664 40.96-211.968 123.904-294.912s181.248-123.904 295.936-123.904c113.664 0 212.992 41.984 297.984 124.928 81.92 78.848 121.856 176.128 121.856 293.888 0 116.736-40.96 216.064-122.88 295.936-80.896 82.944-179.2 123.904-295.936 123.904zM705.536 568.832v-88.064h-371.712v88.064h371.712zM705.536 403.968v-88.064h-371.712v88.064h371.712z" />
<glyph unicode="&#xe60b;" d="M510.976 960c143.36 0 265.216-49.152 363.52-148.48 99.328-98.304 149.504-220.16 149.504-363.52s-49.152-263.168-146.432-359.424c-103.424-101.376-225.28-152.576-366.592-152.576-139.264 0-259.072 50.176-360.448 151.552-100.352 100.352-150.528 221.184-150.528 360.448 0 140.288 50.176 261.12 150.528 363.52 99.328 99.328 219.136 148.48 360.448 148.48zM115.712 586.24c-15.36-41.984-23.552-88.064-23.552-138.24 0-113.664 40.96-211.968 123.904-294.912 83.968-81.92 182.272-123.904 295.936-123.904 115.712 0 215.040 41.984 297.984 124.928 29.696 28.672 53.248 58.368 70.656 90.112l-192.512 86.016c-7.168-32.768-22.528-58.368-49.152-78.848-25.6-20.48-56.32-31.744-92.16-34.816v-78.848h-59.392v78.848c-56.32 1.024-108.544 21.504-155.648 61.44l70.656 71.68c33.792-30.72 71.68-47.104 114.688-47.104 17.408 0 32.768 4.096 45.056 12.288s18.432 21.504 18.432 38.912c0 13.312-4.096 23.552-13.312 30.72l-49.152 21.504-60.416 27.648-80.896 35.84-261.12 116.736zM513.024 868.864c-116.736 0-215.040-40.96-294.912-123.904-20.48-20.48-38.912-43.008-56.32-68.608l195.584-88.064c8.192 26.624 24.576 48.128 48.128 64.512s51.2 25.6 82.944 26.624v78.848h59.392v-78.848c47.104-2.048 89.088-18.432 128-47.104l-66.56-68.608c-28.672 20.48-58.368 29.696-88.064 29.696-15.36 0-29.696-3.072-43.008-9.216-12.288-6.144-18.432-16.384-18.432-30.72 0-4.096 1.024-8.192 4.096-13.312l64.512-29.696 45.056-20.48 81.92-36.864 262.144-116.736c10.24 37.888 14.336 74.752 14.336 111.616 0 117.76-40.96 217.088-122.88 296.96-80.896 82.944-179.2 123.904-295.936 123.904z" />
<glyph unicode="&#xe60c;" d="M510.976 960c143.36 0 265.216-49.152 364.544-148.48s148.48-220.16 148.48-363.52c0-143.36-49.152-263.168-146.432-359.424-102.4-101.376-225.28-152.576-366.592-152.576-139.264 0-259.072 50.176-359.424 150.528-101.376 101.376-151.552 221.184-151.552 361.472s50.176 261.12 150.528 363.52c99.328 99.328 219.136 148.48 360.448 148.48zM512 867.84c-115.712 0-214.016-40.96-294.912-122.88-82.944-84.992-124.928-183.296-124.928-296.96s40.96-211.968 123.904-293.888c82.944-82.944 181.248-123.904 295.936-123.904s214.016 41.984 297.984 124.928c81.92 77.824 121.856 175.104 121.856 292.864 0 116.736-40.96 216.064-122.88 296.96-81.92 81.92-180.224 122.88-296.96 122.88zM271.36 308.736v283.648h141.312c69.632 0 104.448-31.744 104.448-96.256 0-11.264-2.048-21.504-5.12-31.744s-9.216-20.48-17.408-29.696c-8.192-10.24-20.48-18.432-36.864-24.576s-35.84-9.216-58.368-9.216h-55.296v-91.136h-72.704zM342.016 539.136v-86.016h60.416c14.336 0 25.6 4.096 32.768 12.288s11.264 18.432 11.264 30.72c0 28.672-15.36 43.008-46.080 43.008h-58.368zM535.552 308.736v283.648h109.568c45.056 0 80.896-11.264 106.496-34.816s37.888-58.368 37.888-106.496c0-48.128-13.312-83.968-37.888-106.496-25.6-23.552-61.44-34.816-106.496-34.816h-109.568zM606.208 532.992v-164.864h40.96c24.576 0 43.008 7.168 54.272 22.528s17.408 34.816 17.408 59.392c0 24.576-6.144 45.056-17.408 59.392-11.264 15.36-29.696 22.528-55.296 22.528h-39.936z" />
<glyph unicode="&#xe60d;" d="M510.976 960c143.36 0 264.192-50.176 363.52-149.504 99.328-98.304 149.504-219.136 149.504-362.496s-49.152-263.168-146.432-360.448c-103.424-101.376-225.28-151.552-366.592-151.552-138.24 0-258.048 50.176-360.448 150.528-100.352 101.376-150.528 221.184-150.528 361.472 0 139.264 50.176 260.096 150.528 362.496 99.328 99.328 220.16 149.504 360.448 149.504zM513.024 867.84c-116.736 0-215.040-40.96-294.912-123.904-83.968-83.968-125.952-183.296-125.952-295.936 0-113.664 40.96-211.968 123.904-294.912s181.248-123.904 295.936-123.904c113.664 0 212.992 41.984 297.984 124.928 81.92 78.848 121.856 176.128 121.856 293.888 0 116.736-40.96 216.064-122.88 295.936-80.896 82.944-179.2 123.904-295.936 123.904zM846.848 438.784l10.24-4.096v-144.384l-9.216-4.096-123.904-53.248-5.12-2.048-6.144 2.048-269.312 109.568-9.216 4.096-132.096-55.296-131.072 56.32v132.096l122.88 51.2-1.024 1.024v144.384l139.264 61.44 313.344-130.048v-126.976l101.376-41.984zM701.44 270.848v90.112h-1.024v4.096l-234.496 96.256v-93.184l235.52-97.28zM716.8 389.632l81.92 33.792-75.776 31.744-80.896-33.792 74.752-31.744zM824.32 310.784v89.088l-91.136-37.888v-89.088l91.136 37.888z" />
<glyph unicode="&#xe60e;" d="M510.976 960c-141.312 0-261.12-49.152-359.424-148.48-101.376-102.4-151.552-223.232-151.552-363.52s50.176-260.096 151.552-360.448c100.352-100.352 221.184-151.552 360.448-151.552 141.312 0 263.168 51.2 366.592 152.576 96.256 96.256 145.408 216.064 145.408 359.424s-49.152 264.192-148.48 363.52c-99.328 99.328-220.16 148.48-364.544 148.48zM513.024 867.84c115.712 0 214.016-40.96 295.936-122.88 81.92-80.896 122.88-180.224 122.88-296.96 0-117.76-39.936-215.040-120.832-292.864-84.992-83.968-184.32-125.952-299.008-125.952s-212.992 40.96-295.936 123.904c-81.92 82.944-123.904 181.248-123.904 294.912s41.984 212.992 125.952 296.96c79.872 81.92 178.176 122.88 294.912 122.88zM734.208 442.88c-10.24 0-18.432-6.144-22.528-14.336l-8.192-19.456-22.528 191.488c-1.024 12.288-12.288 21.504-24.576 21.504s-22.528-10.24-23.552-22.528l-8.192-106.496-11.264 142.336c-1.024 12.288-11.264 22.528-23.552 22.528s-22.528-9.216-23.552-22.528l-7.168-93.184-12.288 194.56c-1.024 12.288-11.264 22.528-23.552 22.528s-23.552-10.24-23.552-22.528l-10.24-173.056-9.216 137.216c-1.024 12.288-11.264 22.528-23.552 22.528s-23.552-10.24-23.552-22.528l-13.312-164.864-8.192 117.76c-1.024 12.288-11.264 22.528-23.552 22.528s-22.528-9.216-24.576-21.504l-16.384-186.368-4.096 25.6c-2.048 10.24-9.216 18.432-20.48 20.48-10.24 2.048-20.48-4.096-25.6-13.312l-27.648-57.344h-91.136v-48.128h108.544c9.216 0 17.408 5.12 21.504 13.312l22.528-150.528c2.048-12.288 12.288-20.48 24.576-20.48s22.528 10.24 23.552 21.504l8.192 90.112 11.264-161.792c1.024-12.288 11.264-22.528 23.552-22.528s22.528 10.24 23.552 22.528l9.216 145.408 10.24-151.552c1.024-12.288 11.264-22.528 23.552-22.528s23.552 10.24 23.552 22.528l10.24 165.888 9.216-148.48c1.024-12.288 11.264-22.528 23.552-22.528s23.552 9.216 24.576 22.528l9.216 120.832 10.24-133.12c1.024-12.288 11.264-22.528 23.552-22.528s22.528 9.216 23.552 21.504l14.336 171.008 5.12-46.080c1.024-11.264 9.216-19.456 20.48-20.48s21.504 4.096 25.6 14.336l36.864 90.112h104.448v48.128h-118.784zM572.416 432.64h-45.056v-45.056c0-8.192-7.168-15.36-15.36-15.36s-15.36 7.168-15.36 15.36v45.056h-45.056c-8.192 0-15.36 7.168-15.36 15.36s7.168 15.36 15.36 15.36h45.056v45.056c0 8.192 7.168 15.36 15.36 15.36s15.36-7.168 15.36-15.36v-45.056h45.056c8.192 0 15.36-7.168 15.36-15.36s-6.144-15.36-15.36-15.36z" />
<glyph unicode="&#xe60f;" d="M510.976 960c143.36 0 265.216-49.152 364.544-148.48s148.48-220.16 148.48-363.52c0-143.36-49.152-263.168-146.432-359.424-102.4-101.376-225.28-152.576-366.592-152.576-139.264 0-259.072 50.176-359.424 150.528-101.376 101.376-151.552 221.184-151.552 361.472s50.176 261.12 150.528 363.52c99.328 99.328 219.136 148.48 360.448 148.48zM512 867.84c-115.712 0-214.016-40.96-294.912-122.88-82.944-84.992-124.928-183.296-124.928-296.96s40.96-211.968 123.904-293.888c82.944-82.944 181.248-123.904 295.936-123.904s214.016 41.984 297.984 124.928c81.92 77.824 121.856 175.104 121.856 292.864 0 116.736-40.96 216.064-122.88 296.96-81.92 81.92-180.224 122.88-296.96 122.88zM520.192 758.272c6.144 1.024 11.264-1.024 16.384-5.12 4.096-4.096 7.168-9.216 8.192-15.36v-4.096l13.312-221.184 10.24 122.88c0 6.144 2.048 11.264 6.144 15.36s9.216 6.144 15.36 6.144c6.144 0 11.264-2.048 15.36-6.144s6.144-9.216 6.144-15.36v-4.096l12.288-164.864 12.288 132.096c1.024 5.12 3.072 10.24 7.168 13.312 4.096 4.096 8.192 5.12 14.336 5.12 5.12 0 10.24-2.048 14.336-5.12s7.168-8.192 7.168-13.312l23.552-199.68 11.264 26.624c4.096 9.216 10.24 13.312 21.504 13.312h119.808v-44.032h-106.496l-37.888-91.136c-4.096-11.264-12.288-15.36-23.552-13.312-5.12 1.024-10.24 3.072-13.312 6.144-3.072 4.096-5.12 8.192-6.144 13.312l-8.192 65.536-15.36-191.488c-1.024-5.12-3.072-10.24-7.168-13.312-4.096-4.096-8.192-5.12-14.336-5.12-5.12 0-10.24 2.048-14.336 5.12-4.096 4.096-7.168 8.192-7.168 13.312v3.072l-13.312 157.696-11.264-149.504c-1.024-5.12-4.096-10.24-8.192-13.312-4.096-4.096-8.192-5.12-14.336-5.12-5.12 0-10.24 2.048-14.336 5.12-4.096 4.096-7.168 8.192-7.168 13.312v7.168l-10.24 178.176-12.288-195.584v-3.072c0-6.144-2.048-11.264-6.144-16.384-4.096-4.096-9.216-7.168-15.36-7.168s-11.264 2.048-15.36 7.168c-4.096 4.096-6.144 10.24-6.144 16.384v2.048l-12.288 181.248-11.264-175.104v-3.072c-1.024-5.12-4.096-10.24-8.192-13.312-4.096-4.096-8.192-5.12-14.336-5.12-5.12 0-10.24 2.048-14.336 5.12-4.096 4.096-7.168 8.192-7.168 13.312v3.072h-1.024v3.072l-12.288 183.296-10.24-116.736c-1.024-5.12-3.072-10.24-7.168-13.312-4.096-4.096-9.216-5.12-14.336-5.12s-10.24 2.048-14.336 5.12c-4.096 3.072-6.144 8.192-8.192 13.312l-22.528 157.696-3.072-5.12c-4.096-8.192-10.24-12.288-20.48-12.288h-105.472v44.032h92.16l28.672 57.344c4.096 10.24 11.264 14.336 22.528 12.288 10.24-1.024 17.408-7.168 18.432-17.408l6.144-41.984 17.408 201.728c0 6.144 2.048 11.264 6.144 15.36s9.216 6.144 15.36 6.144c6.144 0 11.264-2.048 15.36-6.144s6.144-9.216 6.144-15.36v-4.096l10.24-142.336 13.312 191.488v3.072c1.024 5.12 3.072 10.24 7.168 13.312 4.096 4.096 8.192 5.12 14.336 5.12s10.24-2.048 14.336-5.12c4.096-4.096 7.168-8.192 7.168-13.312v-3.072l11.264-166.912 13.312 201.728v4.096c0 5.12 2.048 10.24 6.144 13.312 4.096 2.048 9.216 4.096 14.336 5.12z" />
<glyph unicode="&#xe610;" d="M510.976 960c143.36 0 264.192-50.176 363.52-149.504 99.328-98.304 149.504-219.136 149.504-362.496s-49.152-263.168-146.432-360.448c-103.424-101.376-225.28-151.552-366.592-151.552-138.24 0-258.048 50.176-360.448 150.528-100.352 101.376-150.528 221.184-150.528 361.472 0 139.264 50.176 260.096 150.528 362.496 99.328 99.328 220.16 149.504 360.448 149.504zM513.024 867.84c-116.736 0-215.040-40.96-294.912-123.904-83.968-83.968-125.952-183.296-125.952-295.936 0-113.664 40.96-211.968 123.904-294.912s181.248-123.904 295.936-123.904c113.664 0 212.992 41.984 297.984 124.928 81.92 78.848 121.856 176.128 121.856 293.888 0 116.736-40.96 216.064-122.88 295.936-80.896 82.944-179.2 123.904-295.936 123.904zM284.672 520.704c10.24 62.464 34.816 111.616 75.776 145.408 40.96 34.816 90.112 51.2 149.504 51.2 80.896 0 144.384-25.6 191.488-77.824s71.68-117.76 71.68-199.68c0-78.848-24.576-144.384-73.728-196.608s-113.664-77.824-192.512-77.824c-58.368 0-107.52 17.408-149.504 52.224s-67.584 83.968-75.776 148.48h128c3.072-62.464 40.96-93.184 112.64-93.184 35.84 0 64.512 15.36 87.040 47.104 21.504 30.72 32.768 72.704 32.768 123.904 0 54.272-10.24 95.232-29.696 123.904-20.48 28.672-49.152 43.008-87.040 43.008-68.608 0-106.496-29.696-115.712-90.112h37.888l-101.376-101.376-101.376 101.376h39.936z" />
<glyph unicode="&#xe611;" d="M510.976 960c143.36 0 264.192-50.176 363.52-149.504 99.328-98.304 149.504-219.136 149.504-362.496s-49.152-263.168-146.432-360.448c-103.424-101.376-225.28-151.552-366.592-151.552-138.24 0-258.048 50.176-360.448 150.528-100.352 101.376-150.528 221.184-150.528 361.472 0 139.264 50.176 260.096 150.528 362.496 99.328 99.328 220.16 149.504 360.448 149.504zM513.024 867.84c-116.736 0-215.040-40.96-294.912-123.904-83.968-83.968-125.952-183.296-125.952-295.936 0-113.664 40.96-211.968 123.904-294.912s181.248-123.904 295.936-123.904c113.664 0 212.992 41.984 297.984 124.928 81.92 78.848 121.856 176.128 121.856 293.888 0 116.736-40.96 216.064-122.88 295.936-80.896 82.944-179.2 123.904-295.936 123.904zM720.896 594.432c8.192 0 14.336-3.072 20.48-8.192 5.12-5.12 8.192-12.288 8.192-20.48v-376.832c0-8.192-3.072-14.336-8.192-20.48-5.12-5.12-12.288-8.192-20.48-8.192h-278.528c-8.192 0-14.336 3.072-20.48 8.192-5.12 5.12-8.192 12.288-8.192 20.48v111.616h-110.592c-8.192 0-14.336 3.072-20.48 8.192-5.12 5.12-8.192 12.288-8.192 20.48v376.832c0 7.168 2.048 13.312 7.168 18.432s11.264 8.192 18.432 9.216h281.6c8.192 0 14.336-3.072 20.48-8.192 5.12-5.12 8.192-12.288 8.192-20.48v-111.616h110.592zM329.728 356.864h83.968v208.896c0 7.168 2.048 13.312 7.168 18.432s10.24 8.192 17.408 9.216h115.712v82.944h-224.256v-319.488zM694.272 538.112h-224.256v-320.512h224.256v320.512z" />
<glyph unicode="&#xe612;" d="M512 742.912c-168.96 0-211.968-159.744-211.968-294.912s43.008-294.912 211.968-294.912c168.96 0 211.968 159.744 211.968 294.912s-43.008 294.912-211.968 294.912zM512 631.296c7.168 0 13.312-1.024 19.456-2.048 12.288-10.24 18.432-24.576 6.144-45.056l-112.64-206.848c-3.072 26.624-4.096 52.224-4.096 70.656 0 59.392 4.096 183.296 91.136 183.296zM595.968 536.064c6.144-31.744 7.168-64.512 7.168-88.064 0-59.392-4.096-183.296-91.136-183.296-7.168 0-13.312 1.024-19.456 2.048-1.024 0-2.048 1.024-3.072 1.024-2.048 1.024-4.096 1.024-5.12 2.048-19.456 8.192-31.744 23.552-14.336 49.152l125.952 217.088zM510.976 960c-142.336 0-262.144-49.152-359.424-148.48-49.152-50.176-87.040-106.496-113.664-168.96-25.6-62.464-37.888-126.976-37.888-194.56 0-68.608 12.288-133.12 37.888-194.56s62.464-116.736 111.616-165.888c49.152-49.152 104.448-86.016 165.888-112.64 62.464-25.6 126.976-37.888 194.56-37.888s133.12 13.312 196.608 39.936c63.488 26.624 119.808 63.488 169.984 113.664 48.128 47.104 84.992 100.352 108.544 161.792 24.576 61.44 36.864 126.976 36.864 197.632 0 69.632-12.288 135.168-36.864 196.608-24.576 62.464-61.44 116.736-109.568 164.864-99.328 98.304-221.184 148.48-364.544 148.48zM513.024 867.84c115.712 0 215.040-40.96 296.96-122.88 39.936-39.936 69.632-84.992 91.136-135.168 20.48-50.176 30.72-104.448 30.72-160.768 0-117.76-39.936-215.040-119.808-292.864-40.96-39.936-88.064-71.68-140.288-92.16-51.2-21.504-104.448-31.744-158.72-31.744-55.296 0-108.544 10.24-158.72 30.72-50.176 21.504-96.256 52.224-136.192 91.136-39.936 39.936-71.68 86.016-93.184 136.192s-32.768 102.4-32.768 157.696c0 55.296 11.264 108.544 32.768 158.72 21.504 51.2 53.248 97.28 93.184 138.24 79.872 81.92 178.176 122.88 294.912 122.88z" />
<glyph unicode="&#xe613;" d="M510.976 960c143.36 0 265.216-50.176 365.568-149.504 48.128-48.128 84.992-103.424 109.568-164.864s37.888-128 37.888-196.608c0-69.632-12.288-136.192-36.864-196.608-24.576-61.44-61.44-115.712-109.568-161.792-50.176-49.152-106.496-87.040-169.984-113.664s-129.024-38.912-196.608-38.912c-67.584 0-132.096 13.312-194.56 38.912-61.44 25.6-117.76 63.488-166.912 112.64-48.128 47.104-84.992 102.4-111.616 163.84-24.576 61.44-37.888 125.952-37.888 194.56 0 67.584 13.312 133.12 38.912 195.584s63.488 118.784 112.64 167.936c97.28 98.304 217.088 148.48 359.424 148.48zM513.024 867.84c-116.736 0-215.040-40.96-294.912-122.88-39.936-40.96-71.68-87.040-93.184-137.216-21.504-51.2-32.768-104.448-32.768-159.744s11.264-107.52 32.768-158.72c21.504-51.2 52.224-96.256 93.184-136.192 39.936-39.936 86.016-70.656 136.192-91.136 50.176-21.504 103.424-31.744 158.72-31.744s107.52 10.24 159.744 31.744c51.2 21.504 98.304 52.224 139.264 92.16 79.872 78.848 119.808 176.128 119.808 293.888 0 56.32-10.24 110.592-30.72 160.768s-51.2 95.232-90.112 135.168c-82.944 82.944-182.272 123.904-297.984 123.904zM506.88 532.992l-68.608-35.84c-7.168 15.36-16.384 25.6-26.624 31.744s-20.48 9.216-29.696 9.216c-46.080 0-68.608-29.696-68.608-90.112 0-27.648 6.144-49.152 17.408-65.536s28.672-24.576 51.2-24.576c29.696 0 51.2 14.336 63.488 44.032l63.488-31.744c-13.312-24.576-31.744-45.056-55.296-59.392s-50.176-21.504-78.848-21.504c-46.080 0-82.944 14.336-110.592 41.984s-41.984 66.56-41.984 116.736c0 49.152 14.336 87.040 43.008 115.712s64.512 43.008 107.52 43.008c61.44 0 106.496-24.576 134.144-73.728zM801.792 532.992l-67.584-35.84c-7.168 15.36-16.384 25.6-26.624 31.744s-20.48 9.216-30.72 9.216c-46.080 0-68.608-29.696-68.608-90.112 0-27.648 6.144-49.152 17.408-65.536s28.672-24.576 51.2-24.576c29.696 0 51.2 14.336 63.488 44.032l64.512-31.744c-14.336-24.576-32.768-45.056-56.32-59.392s-50.176-21.504-77.824-21.504c-46.080 0-82.944 14.336-110.592 41.984s-41.984 66.56-41.984 116.736c0 49.152 14.336 87.040 43.008 115.712s64.512 43.008 107.52 43.008c61.44 0 106.496-24.576 133.12-73.728z" />
<glyph unicode="&#xe614;" d="M512-64c282.624 0 512 229.376 512 512s-229.376 512-512 512-512-229.376-512-512c0-282.624 229.376-512 512-512zM512 921.088c260.096 0 473.088-211.968 473.088-473.088 0-260.096-211.968-473.088-473.088-473.088s-473.088 212.992-473.088 473.088c0 260.096 212.992 473.088 473.088 473.088zM502.784 430.592l183.296-99.328c3.072-2.048 6.144-2.048 9.216-2.048 7.168 0 13.312 4.096 17.408 10.24 5.12 9.216 2.048 21.504-8.192 26.624l-173.056 94.208v307.2c0 11.264-9.216 19.456-19.456 19.456s-19.456-9.216-19.456-19.456v-319.488c0-7.168 4.096-14.336 10.24-17.408z" />
<glyph unicode="&#xe615;" d="M796.672 712.192c-11.264 11.264-26.624 17.408-43.008 17.408s-31.744-6.144-43.008-17.408l-200.704-201.728c-4.096-4.096-12.288-4.096-17.408 0l-138.24 138.24c-11.264 11.264-26.624 17.408-43.008 17.408 0 0 0 0 0 0-16.384 0-31.744-6.144-43.008-17.408s-17.408-26.624-17.408-43.008c0-16.384 6.144-31.744 17.408-43.008 6.144-6.144 140.288-143.36 152.576-154.624 21.504-20.48 50.176-31.744 80.896-31.744 29.696 0 58.368 11.264 79.872 32.768 11.264 11.264 206.848 209.92 215.040 218.112 23.552 22.528 23.552 61.44 0 84.992zM769.024 653.824c-2.048-2.048-204.8-206.848-215.040-218.112-14.336-13.312-32.768-21.504-52.224-21.504s-38.912 8.192-52.224 21.504c0 0 0 0 0 0-11.264 12.288-150.528 153.6-152.576 155.648-4.096 4.096-6.144 9.216-6.144 15.36 0 5.12 2.048 11.264 6.144 15.36s9.216 6.144 14.336 6.144v0c5.12 0 11.264-2.048 14.336-6.144l138.24-139.264c20.48-19.456 52.224-19.456 72.704 0l202.752 200.704c8.192 8.192 21.504 8.192 29.696 0s8.192-21.504 0-29.696zM512 184.832c-11.264 0-19.456-9.216-19.456-19.456v-104.448c0-11.264 9.216-19.456 19.456-19.456s19.456 9.216 19.456 19.456v104.448c0 10.24-8.192 19.456-19.456 19.456zM512 711.168c11.264 0 19.456 9.216 19.456 19.456v104.448c0 11.264-9.216 19.456-19.456 19.456s-19.456-9.216-19.456-19.456v-104.448c0-10.24 8.192-19.456 19.456-19.456zM775.168 448c0-11.264 9.216-19.456 19.456-19.456h104.448c11.264 0 19.456 9.216 19.456 19.456s-9.216 19.456-19.456 19.456h-104.448c-10.24 0-19.456-8.192-19.456-19.456zM512 960c-282.624 0-512-229.376-512-512s229.376-512 512-512c282.624 0 512 229.376 512 512s-229.376 512-512 512zM512-25.088c-260.096 0-473.088 212.992-473.088 473.088s212.992 473.088 473.088 473.088c261.12 0 473.088-211.968 473.088-473.088 0-260.096-212.992-473.088-473.088-473.088zM229.376 467.456h-104.448c-11.264 0-19.456-9.216-19.456-19.456s9.216-19.456 19.456-19.456h104.448c11.264 0 19.456 9.216 19.456 19.456s-9.216 19.456-19.456 19.456z" />
<glyph unicode="&#xe616;" d="M880.64 561.664c-4.096 141.312-117.76 254.976-256 254.976-79.872 0-154.624-37.888-202.752-102.4-22.528 12.288-48.128 18.432-73.728 18.432-86.016 0-156.672-68.608-162.816-155.648-108.544-28.672-185.344-129.024-185.344-245.76 0-138.24 109.568-251.904 245.76-251.904h532.48c135.168 0 245.76 113.664 245.76 251.904 0 100.352-56.32 189.44-143.36 230.4zM778.24 119.296h-532.48c-113.664 0-205.824 95.232-205.824 212.992 0 102.4 70.656 190.464 168.96 208.896 9.216 2.048 16.384 10.24 16.384 19.456v4.096c0 70.656 55.296 128 123.904 128 24.576 0 48.128-7.168 68.608-21.504 4.096-3.072 10.24-4.096 15.36-3.072s10.24 4.096 12.288 8.192c39.936 62.464 107.52 100.352 180.224 100.352 118.784 0 216.064-100.352 216.064-222.208v-5.12c0-8.192 5.12-16.384 12.288-19.456 79.872-31.744 131.072-109.568 131.072-197.632 0-117.76-93.184-212.992-206.848-212.992z" />
<glyph unicode="&#xe617;" d="M19.456 365.056c3.072 0 11.264 0 25.6-2.048 10.24-1.024 21.504-4.096 31.744-8.192s18.432-10.24 25.6-18.432c6.144-6.144 9.216-15.36 9.216-27.648v-190.464c0-30.72 4.096-57.344 11.264-79.872 8.192-22.528 18.432-41.984 32.768-57.344s30.72-26.624 50.176-33.792c18.432-7.168 37.888-10.24 59.392-10.24h109.568c11.264 0 19.456 9.216 19.456 19.456s-9.216 19.456-19.456 19.456h-108.544c-16.384 0-31.744 3.072-46.080 8.192-13.312 5.12-24.576 12.288-34.816 23.552s-18.432 25.6-24.576 44.032c-6.144 18.432-9.216 40.96-9.216 67.584v189.44c0 21.504-6.144 39.936-19.456 54.272-11.264 12.288-24.576 21.504-39.936 28.672-14.336 6.144-28.672 9.216-43.008 11.264-4.096 0-7.168 1.024-11.264 1.024v89.088c3.072 0 7.168 1.024 10.24 1.024 14.336 2.048 28.672 5.12 43.008 11.264 15.36 6.144 28.672 15.36 39.936 28.672 12.288 14.336 19.456 32.768 19.456 54.272v191.488c0 26.624 3.072 49.152 9.216 67.584 6.144 17.408 14.336 31.744 24.576 41.984 10.24 11.264 21.504 18.432 34.816 23.552 14.336 5.12 29.696 8.192 47.104 8.192h109.568c11.264 0 19.456 9.216 19.456 19.456s-8.192 19.456-19.456 19.456h-109.568c-21.504 0-41.984-3.072-60.416-10.24-19.456-7.168-35.84-18.432-50.176-32.768-14.336-15.36-25.6-33.792-32.768-57.344-7.168-22.528-10.24-49.152-10.24-79.872v-191.488c0-12.288-3.072-21.504-9.216-27.648-7.168-8.192-16.384-14.336-25.6-18.432-11.264-4.096-21.504-7.168-32.768-8.192-12.288-1.024-20.48-2.048-25.6-2.048-11.264 0-19.456-9.216-19.456-19.456v-125.952c0-12.288 9.216-21.504 19.456-21.504zM1024 384.512v126.976c0 11.264-9.216 19.456-19.456 19.456-3.072 0-11.264 0-25.6 2.048-11.264 1.024-21.504 4.096-31.744 8.192s-18.432 10.24-25.6 18.432c-6.144 6.144-9.216 15.36-9.216 27.648v191.488c0 30.72-4.096 57.344-11.264 79.872-8.192 22.528-18.432 41.984-32.768 57.344s-30.72 26.624-50.176 33.792c-19.456 7.168-39.936 10.24-60.416 10.24h-109.568c-11.264 0-19.456-9.216-19.456-19.456s9.216-19.456 19.456-19.456h109.568c16.384 0 31.744-3.072 46.080-8.192 13.312-5.12 24.576-12.288 34.816-23.552s18.432-25.6 24.576-44.032c6.144-18.432 9.216-40.96 9.216-67.584v-190.464c0-21.504 6.144-39.936 19.456-54.272 11.264-12.288 24.576-21.504 39.936-28.672 14.336-6.144 28.672-9.216 43.008-11.264 4.096 0 7.168-1.024 11.264-1.024v-89.088c-3.072 0-7.168-1.024-10.24-1.024-14.336-2.048-28.672-5.12-43.008-11.264-15.36-6.144-28.672-15.36-39.936-28.672-12.288-14.336-19.456-32.768-19.456-54.272v-191.488c0-26.624-3.072-49.152-9.216-67.584-5.12-17.408-13.312-31.744-23.552-41.984-10.24-11.264-21.504-18.432-34.816-23.552-14.336-5.12-29.696-8.192-47.104-8.192h-110.592c-11.264 0-19.456-9.216-19.456-19.456s9.216-19.456 19.456-19.456h109.568c21.504 0 41.984 3.072 60.416 10.24 19.456 7.168 35.84 18.432 50.176 32.768 14.336 15.36 25.6 33.792 32.768 57.344 7.168 22.528 11.264 49.152 11.264 79.872v192.512c0 12.288 3.072 21.504 9.216 27.648 7.168 8.192 16.384 14.336 25.6 18.432 11.264 4.096 21.504 7.168 32.768 8.192 12.288 1.024 20.48 2.048 25.6 2.048 9.216 0 18.432 9.216 18.432 19.456zM313.344 525.824c-39.936 0-72.704-33.792-72.704-76.8 0-41.984 32.768-76.8 72.704-76.8s72.704 33.792 72.704 76.8c1.024 41.984-31.744 76.8-72.704 76.8zM313.344 412.16c-18.432 0-33.792 16.384-33.792 36.864s15.36 36.864 33.792 36.864c18.432 0 33.792-16.384 33.792-36.864s-15.36-36.864-33.792-36.864zM600.064 449.024c0 41.984-32.768 76.8-72.704 76.8s-72.704-33.792-72.704-76.8c0-41.984 32.768-76.8 72.704-76.8 39.936 1.024 72.704 34.816 72.704 76.8zM493.568 449.024c0 20.48 15.36 36.864 33.792 36.864s33.792-16.384 33.792-36.864-15.36-36.864-33.792-36.864c-19.456 0-33.792 16.384-33.792 36.864zM813.056 449.024c0 41.984-32.768 76.8-72.704 76.8s-72.704-33.792-72.704-76.8c0-41.984 32.768-76.8 72.704-76.8 39.936 1.024 72.704 34.816 72.704 76.8zM706.56 449.024c0 20.48 15.36 36.864 33.792 36.864s33.792-16.384 33.792-36.864-15.36-36.864-33.792-36.864c-19.456 0-33.792 16.384-33.792 36.864z" />
<glyph unicode="&#xe618;" d="M840.704 622.080c-45.056 0-80.896-36.864-80.896-80.896v-124.928c0-7.168 4.096-13.312 10.24-17.408 3.072-2.048 6.144-2.048 9.216-2.048 4.096 0 7.168 1.024 10.24 3.072 10.24 6.144 19.456 12.288 29.696 17.408 50.176 28.672 102.4 59.392 102.4 122.88 0 45.056-36.864 81.92-80.896 81.92zM798.72 450.048c0 0 0 0 0 0v90.112c0 23.552 18.432 41.984 41.984 41.984s41.984-18.432 41.984-41.984c-1.024-38.912-32.768-59.392-83.968-90.112zM162.816 765.44c-32.768 0-60.416-27.648-60.416-61.44v-409.6c0-33.792 27.648-60.416 60.416-60.416 33.792 0 60.416 27.648 60.416 60.416v409.6c1.024 33.792-26.624 61.44-60.416 61.44zM184.32 294.4c0-11.264-9.216-21.504-21.504-21.504s-21.504 9.216-21.504 21.504v409.6c0 11.264 9.216 21.504 21.504 21.504 11.264 0 21.504-10.24 21.504-21.504v-409.6zM840.704 724.48c-14.336 0-28.672-2.048-41.984-5.12v47.104c0 55.296-46.080 101.376-102.4 101.376h-594.944c-55.296 0-101.376-46.080-101.376-101.376v-509.952c0-125.952 102.4-228.352 228.352-228.352h343.040c124.928 0 227.328 102.4 227.328 228.352v31.744c17.408 12.288 36.864 24.576 56.32 36.864 78.848 48.128 168.96 103.424 168.96 215.040 0 101.376-82.944 184.32-183.296 184.32zM834.56 357.888c-24.576-15.36-47.104-28.672-67.584-45.056-5.12-4.096-8.192-9.216-8.192-15.36v-41.984c0-104.448-84.992-188.416-188.416-188.416h-342.016c-104.448 0-188.416 84.992-188.416 188.416v510.976c0 34.816 27.648 62.464 62.464 62.464h593.92c34.816 0 62.464-27.648 62.464-62.464v-73.728c0-6.144 3.072-12.288 9.216-16.384 5.12-4.096 12.288-4.096 18.432-2.048 17.408 7.168 34.816 10.24 54.272 10.24 79.872 0 144.384-64.512 144.384-144.384 0-89.088-76.8-136.192-150.528-182.272z" />
<glyph unicode="&#xe619;" d="M874.496 810.496c-199.68 199.68-524.288 199.68-723.968 0s-199.68-524.288 0-723.968 524.288-199.68 723.968 0c199.68 199.68 199.68 523.264 0 723.968zM678.912 257.536l-163.84 163.84-163.84-163.84c-8.192-8.192-20.48-8.192-28.672 0s-8.192 20.48 0 28.672l163.84 163.84-163.84 163.84c-8.192 8.192-8.192 20.48 0 28.672s20.48 8.192 28.672 0l163.84-163.84 163.84 163.84c8.192 8.192 20.48 8.192 28.672 0s8.192-20.48 0-28.672l-163.84-163.84 163.84-163.84c8.192-8.192 8.192-20.48 0-28.672s-21.504-8.192-28.672 0z" />
<glyph unicode="&#xe61a;" d="M512 180.736c-38.912 0-70.656-31.744-70.656-70.656s31.744-70.656 70.656-70.656c38.912 0 70.656 31.744 70.656 70.656s-31.744 70.656-70.656 70.656zM512 78.336c-17.408 0-31.744 14.336-31.744 31.744s14.336 30.72 31.744 30.72c17.408 0 31.744-14.336 31.744-31.744s-14.336-30.72-31.744-30.72zM722.944 857.6h-421.888c-35.84 0-64.512-28.672-64.512-64.512v-504.832c0-35.84 28.672-64.512 64.512-64.512h422.912c35.84 0 64.512 28.672 64.512 64.512v503.808c0 35.84-29.696 65.536-65.536 65.536zM748.544 288.256c0-14.336-11.264-25.6-25.6-25.6h-421.888c-14.336 0-25.6 11.264-25.6 25.6v503.808c0 14.336 11.264 25.6 25.6 25.6h422.912c14.336 0 25.6-11.264 25.6-25.6v-503.808zM234.496 960c-55.296 0-101.376-46.080-101.376-101.376v-820.224c0-56.32 46.080-101.376 101.376-101.376h553.984c56.32 0 101.376 46.080 101.376 101.376v820.224c1.024 55.296-45.056 101.376-100.352 101.376h-555.008zM851.968 858.624v-820.224c0-34.816-27.648-62.464-62.464-62.464h-555.008c-34.816 0-62.464 27.648-62.464 62.464v820.224c0 34.816 27.648 62.464 62.464 62.464h553.984c34.816 0 63.488-28.672 63.488-62.464z" />
<glyph unicode="&#xe61b;" d="M116.736 259.584h-77.824c-21.504 0-38.912-18.432-38.912-40.96v-98.304c0-22.528 17.408-40.96 38.912-40.96h76.8c21.504 0 38.912 18.432 38.912 40.96v98.304c1.024 22.528-16.384 40.96-37.888 40.96zM116.736 120.32h-77.824v98.304h76.8l1.024-98.304zM333.824 398.848h-77.824c-21.504 0-38.912-18.432-38.912-40.96v-237.568c0-22.528 17.408-40.96 38.912-40.96h76.8c21.504 0 38.912 18.432 38.912 40.96v237.568c1.024 22.528-16.384 40.96-37.888 40.96zM333.824 120.32h-77.824v237.568h76.8l1.024-237.568zM550.912 538.112h-76.8c-21.504 0-38.912-18.432-38.912-40.96v-376.832c0-22.528 17.408-40.96 38.912-40.96h76.8c21.504 0 38.912 18.432 38.912 40.96v376.832c0 22.528-17.408 40.96-38.912 40.96zM550.912 120.32h-76.8v376.832h76.8v-376.832zM768 677.376h-76.8c-21.504 0-38.912-18.432-38.912-40.96v-516.096c0-22.528 17.408-40.96 38.912-40.96h76.8c21.504 0 38.912 18.432 38.912 40.96v516.096c0 22.528-17.408 40.96-38.912 40.96zM766.976 120.32h-76.8v516.096h77.824l-1.024-516.096zM985.088 816.64h-76.8c-21.504 0-38.912-18.432-38.912-40.96v-655.36c0-22.528 17.408-40.96 38.912-40.96h76.8c21.504 0 38.912 18.432 38.912 40.96v655.36c0 22.528-17.408 40.96-38.912 40.96zM984.064 120.32h-76.8v655.36h76.8v-655.36z" />
<glyph unicode="&#xe61c;" d="M116.736 259.584h-77.824c-21.504 0-38.912-18.432-38.912-40.96v-98.304c0-22.528 17.408-40.96 38.912-40.96h76.8c21.504 0 38.912 18.432 38.912 40.96v98.304c1.024 22.528-16.384 40.96-37.888 40.96zM333.824 398.848h-77.824c-21.504 0-38.912-18.432-38.912-40.96v-237.568c0-22.528 17.408-40.96 38.912-40.96h76.8c21.504 0 38.912 18.432 38.912 40.96v237.568c1.024 22.528-16.384 40.96-37.888 40.96zM333.824 120.32h-77.824v237.568h76.8l1.024-237.568zM550.912 538.112h-76.8c-21.504 0-38.912-18.432-38.912-40.96v-376.832c0-22.528 17.408-40.96 38.912-40.96h76.8c21.504 0 38.912 18.432 38.912 40.96v376.832c0 22.528-17.408 40.96-38.912 40.96zM550.912 120.32h-76.8v376.832h76.8v-376.832zM768 677.376h-76.8c-21.504 0-38.912-18.432-38.912-40.96v-516.096c0-22.528 17.408-40.96 38.912-40.96h76.8c21.504 0 38.912 18.432 38.912 40.96v516.096c0 22.528-17.408 40.96-38.912 40.96zM766.976 120.32h-76.8v516.096h77.824l-1.024-516.096zM985.088 816.64h-76.8c-21.504 0-38.912-18.432-38.912-40.96v-655.36c0-22.528 17.408-40.96 38.912-40.96h76.8c21.504 0 38.912 18.432 38.912 40.96v655.36c0 22.528-17.408 40.96-38.912 40.96zM984.064 120.32h-76.8v655.36h76.8v-655.36z" />
<glyph unicode="&#xe61d;" d="M116.736 259.584h-77.824c-21.504 0-38.912-18.432-38.912-40.96v-98.304c0-22.528 17.408-40.96 38.912-40.96h76.8c21.504 0 38.912 18.432 38.912 40.96v98.304c1.024 22.528-16.384 40.96-37.888 40.96zM333.824 398.848h-77.824c-21.504 0-38.912-18.432-38.912-40.96v-237.568c0-22.528 17.408-40.96 38.912-40.96h76.8c21.504 0 38.912 18.432 38.912 40.96v237.568c1.024 22.528-16.384 40.96-37.888 40.96zM550.912 538.112h-76.8c-21.504 0-38.912-18.432-38.912-40.96v-376.832c0-22.528 17.408-40.96 38.912-40.96h76.8c21.504 0 38.912 18.432 38.912 40.96v376.832c0 22.528-17.408 40.96-38.912 40.96zM550.912 120.32h-76.8v376.832h76.8v-376.832zM768 677.376h-76.8c-21.504 0-38.912-18.432-38.912-40.96v-516.096c0-22.528 17.408-40.96 38.912-40.96h76.8c21.504 0 38.912 18.432 38.912 40.96v516.096c0 22.528-17.408 40.96-38.912 40.96zM766.976 120.32h-76.8v516.096h77.824l-1.024-516.096zM985.088 816.64h-76.8c-21.504 0-38.912-18.432-38.912-40.96v-655.36c0-22.528 17.408-40.96 38.912-40.96h76.8c21.504 0 38.912 18.432 38.912 40.96v655.36c0 22.528-17.408 40.96-38.912 40.96zM984.064 120.32h-76.8v655.36h76.8v-655.36z" />
<glyph unicode="&#xe61e;" d="M116.736 259.584h-77.824c-21.504 0-38.912-18.432-38.912-40.96v-98.304c0-22.528 17.408-40.96 38.912-40.96h76.8c21.504 0 38.912 18.432 38.912 40.96v98.304c1.024 22.528-16.384 40.96-37.888 40.96zM333.824 398.848h-77.824c-21.504 0-38.912-18.432-38.912-40.96v-237.568c0-22.528 17.408-40.96 38.912-40.96h76.8c21.504 0 38.912 18.432 38.912 40.96v237.568c1.024 22.528-16.384 40.96-37.888 40.96zM550.912 538.112h-76.8c-21.504 0-38.912-18.432-38.912-40.96v-376.832c0-22.528 17.408-40.96 38.912-40.96h76.8c21.504 0 38.912 18.432 38.912 40.96v376.832c0 22.528-17.408 40.96-38.912 40.96zM768 677.376h-76.8c-21.504 0-38.912-18.432-38.912-40.96v-516.096c0-22.528 17.408-40.96 38.912-40.96h76.8c21.504 0 38.912 18.432 38.912 40.96v516.096c0 22.528-17.408 40.96-38.912 40.96zM766.976 120.32h-76.8v516.096h77.824l-1.024-516.096zM985.088 816.64h-76.8c-21.504 0-38.912-18.432-38.912-40.96v-655.36c0-22.528 17.408-40.96 38.912-40.96h76.8c21.504 0 38.912 18.432 38.912 40.96v655.36c0 22.528-17.408 40.96-38.912 40.96zM984.064 120.32h-76.8v655.36h76.8v-655.36z" />
<glyph unicode="&#xe61f;" d="M116.736 259.584h-77.824c-21.504 0-38.912-18.432-38.912-40.96v-98.304c0-22.528 17.408-40.96 38.912-40.96h76.8c21.504 0 38.912 18.432 38.912 40.96v98.304c1.024 22.528-16.384 40.96-37.888 40.96zM333.824 398.848h-77.824c-21.504 0-38.912-18.432-38.912-40.96v-237.568c0-22.528 17.408-40.96 38.912-40.96h76.8c21.504 0 38.912 18.432 38.912 40.96v237.568c1.024 22.528-16.384 40.96-37.888 40.96zM550.912 538.112h-76.8c-21.504 0-38.912-18.432-38.912-40.96v-376.832c0-22.528 17.408-40.96 38.912-40.96h76.8c21.504 0 38.912 18.432 38.912 40.96v376.832c0 22.528-17.408 40.96-38.912 40.96zM768 677.376h-76.8c-21.504 0-38.912-18.432-38.912-40.96v-516.096c0-22.528 17.408-40.96 38.912-40.96h76.8c21.504 0 38.912 18.432 38.912 40.96v516.096c0 22.528-17.408 40.96-38.912 40.96zM985.088 816.64h-76.8c-21.504 0-38.912-18.432-38.912-40.96v-655.36c0-22.528 17.408-40.96 38.912-40.96h76.8c21.504 0 38.912 18.432 38.912 40.96v655.36c0 22.528-17.408 40.96-38.912 40.96zM984.064 120.32h-76.8v655.36h76.8v-655.36z" />
<glyph unicode="&#xe620;" d="M116.736 259.584h-77.824c-21.504 0-38.912-18.432-38.912-40.96v-98.304c0-22.528 17.408-40.96 38.912-40.96h76.8c21.504 0 38.912 18.432 38.912 40.96v98.304c1.024 22.528-16.384 40.96-37.888 40.96zM333.824 398.848h-77.824c-21.504 0-38.912-18.432-38.912-40.96v-237.568c0-22.528 17.408-40.96 38.912-40.96h76.8c21.504 0 38.912 18.432 38.912 40.96v237.568c1.024 22.528-16.384 40.96-37.888 40.96zM550.912 538.112h-76.8c-21.504 0-38.912-18.432-38.912-40.96v-376.832c0-22.528 17.408-40.96 38.912-40.96h76.8c21.504 0 38.912 18.432 38.912 40.96v376.832c0 22.528-17.408 40.96-38.912 40.96zM768 677.376h-76.8c-21.504 0-38.912-18.432-38.912-40.96v-516.096c0-22.528 17.408-40.96 38.912-40.96h76.8c21.504 0 38.912 18.432 38.912 40.96v516.096c0 22.528-17.408 40.96-38.912 40.96zM985.088 816.64h-76.8c-21.504 0-38.912-18.432-38.912-40.96v-655.36c0-22.528 17.408-40.96 38.912-40.96h76.8c21.504 0 38.912 18.432 38.912 40.96v655.36c0 22.528-17.408 40.96-38.912 40.96z" />
<glyph unicode="&#xe621;" d="M43.008 339.456h48.128v-135.168l235.52 135.168h350.208c23.552 0 43.008 22.528 43.008 50.176v439.296c0 27.648-19.456 49.152-43.008 49.152h-634.88c-22.528 0-41.984-22.528-41.984-49.152v-439.296c0-27.648 19.456-50.176 43.008-50.176zM40.96 828.928c0 4.096 2.048 7.168 3.072 8.192h632.832c1.024-1.024 3.072-4.096 3.072-8.192v-439.296c0-4.096-2.048-7.168-3.072-8.192h-349.184c-7.168 0-14.336-2.048-20.48-5.12l-174.080-99.328v63.488c0 22.528-18.432 40.96-40.96 40.96h-48.128c-1.024 1.024-3.072 4.096-3.072 8.192v439.296zM960.512 732.672h-196.608c-11.264 0-20.48-9.216-20.48-20.48s9.216-20.48 20.48-20.48h195.584c12.288 0 22.528-13.312 22.528-28.672v-439.296c0-15.36-10.24-28.672-22.528-28.672h-48.128c-11.264 0-20.48-9.216-20.48-20.48v-99.328l-204.8 116.736c-3.072 2.048-7.168 3.072-10.24 3.072h-350.208c-12.288 0-22.528 13.312-22.528 28.672v37.888c0 11.264-9.216 20.48-20.48 20.48s-20.48-9.216-20.48-20.48v-37.888c0-38.912 28.672-70.656 63.488-70.656h345.088l230.4-132.096c3.072-2.048 7.168-3.072 10.24-3.072 4.096 0 7.168 1.024 10.24 3.072 6.144 4.096 10.24 10.24 10.24 18.432v113.664h27.648c34.816 0 63.488 31.744 63.488 70.656v438.272c1.024 38.912-27.648 70.656-62.464 70.656zM124.928 712.192h471.040c11.264 0 20.48 9.216 20.48 20.48s-9.216 20.48-20.48 20.48h-471.040c-11.264 0-20.48-9.216-20.48-20.48s9.216-20.48 20.48-20.48zM124.928 594.432h471.040c11.264 0 20.48 9.216 20.48 20.48s-9.216 20.48-20.48 20.48h-471.040c-11.264 0-20.48-9.216-20.48-20.48s9.216-20.48 20.48-20.48zM124.928 477.696h471.040c11.264 0 20.48 9.216 20.48 20.48s-9.216 20.48-20.48 20.48h-471.040c-11.264 0-20.48-9.216-20.48-20.48s9.216-20.48 20.48-20.48zM905.216 519.68h-141.312c-11.264 0-20.48-9.216-20.48-20.48s9.216-20.48 20.48-20.48h141.312c11.264 0 20.48 9.216 20.48 20.48s-8.192 20.48-20.48 20.48zM905.216 401.92h-141.312c-11.264 0-20.48-9.216-20.48-20.48s9.216-20.48 20.48-20.48h141.312c11.264 0 20.48 9.216 20.48 20.48s-8.192 20.48-20.48 20.48z" />
<glyph unicode="&#xe622;" d="M512 960c-282.624 0-512-229.376-512-512s229.376-512 512-512 512 229.376 512 512c0 282.624-229.376 512-512 512zM512-25.088c-260.096 0-473.088 212.992-473.088 473.088s212.992 473.088 473.088 473.088 473.088-212.992 473.088-473.088c0-260.096-212.992-473.088-473.088-473.088zM732.16 566.784c-8.192 6.144-21.504 5.12-27.648-4.096l-192.512-252.928-192.512 252.928c-6.144 8.192-18.432 10.24-27.648 4.096-8.192-6.144-10.24-18.432-4.096-27.648l207.872-273.408c0 0 0 0 0 0 1.024-1.024 1.024-1.024 2.048-2.048 0 0 1.024-1.024 1.024-1.024s0 0 0 0 0 0 1.024 0c1.024-1.024 3.072-2.048 4.096-2.048 0 0 1.024 0 1.024-1.024 2.048 0 3.072-1.024 5.12-1.024 0 0 0 0 0 0s0 0 0 0 0 0 0 0 0 0 0 0c2.048 0 4.096 0 5.12 1.024 0 0 1.024 0 1.024 1.024 1.024 1.024 3.072 1.024 4.096 2.048 0 0 0 0 1.024 0 0 0 0 0 0 0s1.024 1.024 1.024 1.024 1.024 1.024 2.048 2.048c0 0 0 0 0 0l207.872 273.408c10.24 9.216 8.192 21.504 0 27.648z" />
<glyph unicode="&#xe623;" d="M704.512 238.080c-40.96 0-67.584 32.768-67.584 80.896v258.048c0 48.128 27.648 80.896 67.584 80.896 15.36 0 31.744-5.12 48.128-14.336l226.304-129.024c29.696-16.384 45.056-39.936 45.056-66.56 0-25.6-16.384-49.152-45.056-66.56l-226.304-129.024c-16.384-9.216-32.768-14.336-48.128-14.336zM704.512 617.984c-25.6 0-27.648-28.672-27.648-40.96v-258.048c0-12.288 3.072-40.96 27.648-40.96 8.192 0 18.432 3.072 28.672 9.216l226.304 129.024c16.384 9.216 25.6 20.48 25.6 31.744s-9.216 22.528-25.6 31.744l-226.304 129.024c-10.24 6.144-20.48 9.216-28.672 9.216zM656.384 428.544h-111.616c-11.264 0-19.456 9.216-19.456 19.456s9.216 19.456 19.456 19.456h111.616c11.264 0 19.456-9.216 19.456-19.456s-8.192-19.456-19.456-19.456zM737.28-64h-598.016c-76.8 0-139.264 61.44-139.264 138.24v747.52c0 76.8 62.464 138.24 139.264 138.24h598.016c76.8 0 139.264-61.44 139.264-138.24v-112.64c0-11.264-9.216-19.456-19.456-19.456-11.264 0-19.456 9.216-19.456 19.456v112.64c0 54.272-45.056 98.304-99.328 98.304h-599.040c-54.272 0-99.328-44.032-99.328-98.304v-748.544c0-54.272 45.056-98.304 99.328-98.304h598.016c54.272 0 99.328 44.032 99.328 98.304v112.64c0 11.264 9.216 19.456 19.456 19.456 11.264 0 19.456-9.216 19.456-19.456v-112.64c0-75.776-62.464-137.216-138.24-137.216z" />
<glyph unicode="&#xe624;" d="M620.544 462.336c-10.24-10.24-23.552-15.36-36.864-15.36-28.672 0-52.224 23.552-52.224 52.224 0 20.48 11.264 38.912 29.696 47.104 7.168 3.072 11.264 11.264 11.264 18.432 0 8.192-5.12 15.36-13.312 17.408-15.36 5.12-30.72 8.192-47.104 8.192-78.848 1.024-143.36-63.488-143.36-142.336s64.512-143.36 142.336-143.36 142.336 64.512 142.336 143.36v1.024c0 8.192-5.12 15.36-12.288 18.432-6.144 3.072-14.336 1.024-20.48-5.12zM512 344.576c-57.344 0-103.424 46.080-103.424 103.424 0 56.32 45.056 101.376 100.352 103.424-10.24-15.36-16.384-32.768-16.384-52.224 0-50.176 40.96-91.136 91.136-91.136 8.192 0 16.384 1.024 24.576 3.072-14.336-38.912-52.224-66.56-96.256-66.56zM992.256 366.080c20.48 25.6 30.72 53.248 31.744 81.92 0 0 0 1.024 0 1.024-1.024 27.648-11.264 56.32-31.744 81.92-72.704 92.16-266.24 266.24-480.256 266.24-215.040-1.024-408.576-175.104-480.256-267.264-19.456-25.6-30.72-53.248-31.744-81.92 0 0 0-1.024 0-1.024 1.024-27.648 11.264-56.32 31.744-81.92 72.704-92.16 266.24-266.24 480.256-266.24 214.016 1.024 407.552 175.104 480.256 267.264zM512 138.752c-199.68 0-380.928 163.84-449.536 250.88-14.336 18.432-22.528 38.912-23.552 58.368 1.024 19.456 8.192 38.912 23.552 57.344 68.608 87.040 249.856 250.88 449.536 250.88s380.928-163.84 449.536-250.88c14.336-18.432 22.528-38.912 23.552-57.344-1.024-19.456-8.192-38.912-23.552-57.344-68.608-87.040-249.856-251.904-449.536-251.904zM512 673.28c-123.904 0-225.28-101.376-225.28-225.28s101.376-225.28 225.28-225.28c123.904 0 225.28 101.376 225.28 225.28-1.024 123.904-101.376 225.28-225.28 225.28zM512 262.656c-102.4 0-185.344 82.944-185.344 185.344s82.944 185.344 185.344 185.344c102.4 0 185.344-82.944 185.344-185.344s-82.944-185.344-185.344-185.344z" />
<glyph unicode="&#xe625;" d="M737.28 931.328c-67.584 0-131.072-24.576-197.632-50.176-67.584-25.6-137.216-53.248-212.992-53.248-98.304 0-157.696 32.768-177.152 45.056v16.384c0 38.912-33.792 70.656-74.752 70.656s-74.752-31.744-74.752-70.656v-881.664c0-38.912 33.792-70.656 74.752-70.656s74.752 31.744 74.752 70.656v248.832c32.768-14.336 96.256-33.792 192.512-33.792 86.016 0 154.624 30.72 216.064 58.368 51.2 22.528 100.352 45.056 151.552 45.056 123.904 0 174.080-34.816 190.464-49.152 15.36-14.336 33.792-28.672 59.392-28.672 36.864 0 64.512 27.648 64.512 65.536v450.56c0 26.624-12.288 55.296-31.744 72.704-29.696 28.672-114.688 94.208-254.976 94.208zM985.088 312.832c0-15.36-10.24-25.6-25.6-25.6-9.216 0-18.432 5.12-32.768 17.408-23.552 22.528-83.968 60.416-217.088 60.416-60.416 0-112.64-23.552-167.936-48.128-60.416-26.624-121.856-54.272-199.68-54.272-139.264 0-200.704 40.96-201.728 41.984-6.144 4.096-14.336 5.12-20.48 1.024-6.144-3.072-10.24-10.24-10.24-17.408v-281.6c0-17.408-15.36-31.744-34.816-31.744s-34.816 14.336-34.816 31.744v882.688c0 17.408 15.36 31.744 34.816 31.744s34.816-14.336 34.816-31.744v-24.576c0-6.144 3.072-11.264 7.168-15.36 3.072-2.048 72.704-59.392 209.92-59.392 83.968 0 156.672 27.648 227.328 55.296 63.488 24.576 122.88 47.104 183.296 47.104 125.952 0 201.728-58.368 228.352-82.944 11.264-10.24 19.456-28.672 19.456-44.032v-452.608z" />
<glyph unicode="&#xe626;" d="M885.76 53.76h-747.52c-76.8 0-138.24 62.464-138.24 138.24v407.552c0 75.776 61.44 138.24 138.24 138.24h425.984c22.528 25.6 98.304 104.448 164.864 104.448h157.696c75.776 0 138.24-61.44 138.24-138.24v-512c-1.024-75.776-62.464-138.24-139.264-138.24zM138.24 697.856c-54.272 0-98.304-44.032-98.304-98.304v-407.552c0-54.272 44.032-98.304 98.304-98.304h748.544c54.272 0 98.304 44.032 98.304 98.304v512c0 54.272-44.032 98.304-98.304 98.304h-157.696c-49.152 0-117.76-70.656-140.288-97.28l-6.144-7.168h-444.416z" />
<glyph unicode="&#xe627;" d="M964.608 694.784h-179.2c2.048 2.048 4.096 4.096 6.144 5.12 56.32 59.392 56.32 155.648 0 215.040-27.648 29.696-63.488 45.056-102.4 45.056s-75.776-16.384-103.424-45.056l-73.728-77.824-73.728 77.824c-27.648 28.672-64.512 45.056-103.424 45.056s-74.752-15.36-102.4-45.056c-56.32-59.392-56.32-155.648 0-215.040 2.048-2.048 4.096-4.096 6.144-5.12h-179.2c-32.768 0-59.392-27.648-59.392-61.44v-88.064c0-27.648 17.408-51.2 40.96-58.368v-454.656c0-53.248 40.96-96.256 92.16-96.256h756.736c51.2 0 92.16 43.008 92.16 96.256v454.656c23.552 8.192 40.96 31.744 40.96 58.368v88.064c1.024 33.792-25.6 61.44-58.368 61.44zM261.12 727.552c-41.984 44.032-41.984 115.712 0 160.768 19.456 20.48 46.080 32.768 73.728 32.768s54.272-12.288 74.752-33.792l88.064-93.184c4.096-4.096 9.216-6.144 14.336-6.144s10.24 2.048 14.336 6.144l88.064 93.184c20.48 21.504 47.104 32.768 74.752 32.768 27.648 1.024 54.272-11.264 73.728-31.744 41.984-44.032 41.984-115.712 0-160.768-20.48-21.504-46.080-32.768-74.752-32.768h-353.28c-27.648 0-54.272 12.288-73.728 32.768zM38.912 545.28v88.064c0 12.288 9.216 22.528 20.48 22.528h381.952v-270.336h-360.448v117.76c0 11.264-9.216 19.456-19.456 19.456h-2.048c-11.264 0-20.48 10.24-20.48 22.528zM80.896 32.256v212.992h361.472v-270.336h-308.224c-29.696 0-53.248 25.6-53.248 57.344zM481.28-25.088v289.792c0 11.264-9.216 19.456-19.456 19.456h-379.904v61.44h379.904c11.264 0 19.456 9.216 19.456 19.456v290.816h61.44v-289.792c0-11.264 9.216-19.456 19.456-19.456h379.904v-61.44h-379.904c-11.264 0-19.456-9.216-19.456-19.456v-289.792h-61.44zM889.856-25.088h-307.2v270.336h361.472v-212.992c-1.024-31.744-24.576-57.344-54.272-57.344zM985.088 545.28c0-12.288-9.216-22.528-20.48-22.528h-2.048c-11.264 0-19.456-9.216-19.456-19.456v-117.76h-360.448v270.336h381.952c11.264 0 20.48-10.24 20.48-22.528v-88.064zM596.992 722.432h91.136c22.528 0 43.008 9.216 59.392 25.6 31.744 33.792 31.744 88.064 0 120.832-15.36 16.384-36.864 25.6-58.368 25.6s-44.032-9.216-59.392-25.6l-66.56-70.656c0-1.024-1.024-1.024-1.024-2.048-6.144-8.192-9.216-18.432-9.216-28.672-1.024-24.576 19.456-45.056 44.032-45.056zM592.896 772.608l65.536 68.608c8.192 8.192 18.432 13.312 30.72 13.312 11.264 0 22.528-5.12 30.72-13.312 17.408-18.432 17.408-48.128 0-66.56-8.192-8.192-19.456-13.312-30.72-13.312h-91.136c-3.072 0-5.12 3.072-5.12 7.168-2.048 1.024-1.024 3.072 0 4.096zM458.752 800.256l-64.512 67.584c-15.36 17.408-35.84 26.624-58.368 26.624s-43.008-9.216-59.392-25.6c-31.744-33.792-31.744-88.064 0-120.832 15.36-16.384 36.864-25.6 58.368-25.6h91.136c24.576 0 45.056 20.48 45.056 46.080 1.024 11.264-4.096 23.552-12.288 31.744zM427.008 761.344h-91.136c-11.264 0-22.528 5.12-30.72 13.312-17.408 18.432-17.408 48.128 0 66.56 8.192 8.192 19.456 13.312 30.72 13.312s22.528-5.12 30.72-13.312l64.512-67.584c1.024-1.024 2.048-3.072 2.048-5.12-1.024-4.096-3.072-7.168-6.144-7.168z" />
<glyph unicode="&#xe628;" d="M368.64 715.264h286.72c11.264 0 19.456 9.216 19.456 19.456v57.344c0 35.84-28.672 64.512-64.512 64.512h-196.608c-35.84 0-64.512-28.672-64.512-64.512v-57.344c0-10.24 8.192-19.456 19.456-19.456zM388.096 793.088c0 14.336 11.264 25.6 25.6 25.6h196.608c14.336 0 25.6-11.264 25.6-25.6v-37.888h-247.808v37.888zM712.704 467.456h-78.848v78.848c0 35.84-28.672 64.512-64.512 64.512h-114.688c-35.84 0-64.512-28.672-64.512-64.512v-78.848h-78.848c-35.84 0-64.512-28.672-64.512-64.512v-114.688c0-35.84 28.672-64.512 64.512-64.512h78.848v-78.848c0-35.84 28.672-64.512 64.512-64.512h114.688c35.84 0 64.512 28.672 64.512 64.512v77.824h78.848c35.84 0 64.512 28.672 64.512 64.512v115.712c1.024 35.84-28.672 64.512-64.512 64.512zM738.304 288.256c0-14.336-11.264-25.6-25.6-25.6h-98.304c-11.264 0-19.456-9.216-19.456-19.456v-98.304c0-14.336-11.264-25.6-25.6-25.6h-114.688c-14.336 0-25.6 11.264-25.6 25.6v98.304c0 11.264-9.216 19.456-19.456 19.456h-98.304c-14.336 0-25.6 11.264-25.6 25.6v114.688c0 14.336 11.264 25.6 25.6 25.6h98.304c11.264 0 19.456 9.216 19.456 19.456v98.304c0 14.336 11.264 25.6 25.6 25.6h114.688c14.336 0 25.6-11.264 25.6-25.6v-98.304c0-11.264 9.216-19.456 19.456-19.456h98.304c14.336 0 25.6-11.264 25.6-25.6v-114.688zM922.624 755.2h-144.384v103.424c0 55.296-46.080 101.376-102.4 101.376h-327.68c-56.32 0-102.4-46.080-102.4-101.376v-103.424h-144.384c-55.296 0-101.376-46.080-101.376-102.4v-615.424c0-56.32 46.080-101.376 101.376-101.376h820.224c56.32 0 101.376 46.080 101.376 101.376v615.424c1.024 56.32-45.056 102.4-100.352 102.4zM985.088 37.376c0-34.816-27.648-62.464-62.464-62.464h-821.248c-34.816 0-62.464 27.648-62.464 62.464v615.424c0 34.816 27.648 62.464 62.464 62.464h163.84c11.264 0 19.456 9.216 19.456 19.456v122.88c0 34.816 27.648 62.464 62.464 62.464h328.704c34.816 0 62.464-27.648 62.464-62.464v-122.88c0-11.264 9.216-19.456 19.456-19.456h163.84c34.816 0 62.464-27.648 62.464-62.464v-615.424z" />
<glyph unicode="&#xe629;" d="M280.576 129.536c57.344-48.128 117.76-98.304 162.816-156.672 3.072-4.096 5.12-7.168 7.168-9.216 16.384-17.408 37.888-27.648 60.416-27.648s44.032 10.24 60.416 27.648c3.072 3.072 6.144 7.168 7.168 10.24 47.104 57.344 107.52 107.52 164.864 156.672 138.24 115.712 280.576 235.52 280.576 482.304 0 194.56-138.24 347.136-314.368 347.136-62.464 0-147.456-29.696-197.632-94.208-50.176 64.512-135.168 94.208-197.632 94.208-176.128 0-314.368-152.576-314.368-347.136 0-246.784 142.336-366.592 280.576-483.328zM314.368 915.968c62.464 0 144.384-33.792 181.248-98.304 4.096-6.144 10.24-10.24 16.384-10.24 7.168 0 13.312 4.096 16.384 10.24 36.864 64.512 118.784 98.304 181.248 98.304 153.6 0 274.432-133.12 274.432-304.128 0-225.28-135.168-337.92-265.216-447.488-59.392-50.176-120.832-101.376-169.984-163.84 0 0-1.024-1.024-1.024-2.048-1.024-2.048-2.048-3.072-4.096-5.12-9.216-9.216-20.48-15.36-32.768-15.36s-24.576 5.12-32.768 15.36c-1.024 2.048-3.072 3.072-4.096 5.12 0 0-1.024 1.024-1.024 1.024-48.128 61.44-109.568 113.664-168.96 163.84-130.048 111.616-265.216 224.256-265.216 449.536 0 169.984 120.832 303.104 275.456 303.104z" />
<glyph unicode="&#xe62a;" d="M844.8 676.352v223.232c0 24.576-20.48 45.056-44.032 45.056h-59.392c-24.576 0-44.032-20.48-44.032-45.056v-82.944l-129.024 120.832c-15.36 14.336-35.84 22.528-56.32 22.528s-40.96-8.192-56.32-22.528l-429.056-404.48c-33.792-31.744-35.84-86.016-5.12-119.808 15.36-17.408 37.888-27.648 61.44-27.648 20.48 0 40.96 8.192 56.32 22.528l13.312 12.288v-425.984c0-19.456 10.24-36.864 27.648-47.104 11.264-6.144 23.552-10.24 36.864-10.24h588.8c0 0 0 0 0 0 13.312 0 25.6 3.072 36.864 10.24 17.408 10.24 27.648 27.648 27.648 47.104v424.96l13.312-12.288c15.36-14.336 35.84-22.528 56.32-22.528 0 0 0 0 0 0 23.552 0 46.080 10.24 61.44 27.648 30.72 34.816 28.672 88.064-5.12 119.808l-151.552 144.384zM972.8 438.784c-8.192-9.216-19.456-14.336-32.768-14.336v0c-11.264 0-21.504 4.096-29.696 12.288l-46.080 44.032c-6.144 5.12-14.336 7.168-21.504 4.096s-12.288-10.24-12.288-18.432v-471.040c0-8.192-5.12-12.288-8.192-13.312-5.12-3.072-10.24-4.096-17.408-4.096h-587.776c-6.144 0-12.288 1.024-17.408 4.096-3.072 2.048-8.192 6.144-8.192 13.312v470.016c0 8.192-5.12 15.36-12.288 18.432-2.048 1.024-5.12 2.048-8.192 2.048-5.12 0-10.24-2.048-13.312-5.12l-45.056-45.056c-8.192-7.168-18.432-12.288-29.696-12.288-12.288 0-23.552 5.12-32.768 14.336-16.384 18.432-15.36 48.128 3.072 65.536l429.056 405.504c16.384 15.36 43.008 15.36 59.392 0l160.768-152.576c6.144-5.12 14.336-7.168 21.504-4.096s12.288 10.24 12.288 18.432v129.024c0 3.072 2.048 6.144 5.12 6.144h59.392c3.072 0 5.12-3.072 5.12-6.144v-232.448c0-5.12 2.048-10.24 6.144-14.336l157.696-149.504c18.432-16.384 19.456-46.080 3.072-64.512z" />
<glyph unicode="&#xe62b;" d="M719.872 960c-167.936 0-304.128-128-304.128-286.72 0-40.96 9.216-80.896 26.624-117.76l-410.624-385.024c-20.48-19.456-31.744-45.056-31.744-71.68 0-27.648 11.264-53.248 31.744-71.68s47.104-29.696 74.752-29.696c28.672 0 55.296 10.24 74.752 28.672l11.264 10.24 89.088-82.944c12.288-11.264 27.648-17.408 45.056-17.408s32.768 6.144 45.056 17.408l152.576 142.336c12.288 11.264 19.456 27.648 19.456 44.032s-7.168 31.744-19.456 44.032l-87.040 81.92 156.672 147.456c38.912-17.408 82.944-25.6 125.952-25.6 167.936 0 304.128 128 304.128 286.72 0 157.696-136.192 285.696-304.128 285.696zM719.872 426.496c-41.984 0-83.968 9.216-121.856 27.648-7.168 3.072-16.384 2.048-22.528-3.072l-181.248-171.008c-4.096-4.096-6.144-9.216-6.144-14.336s2.048-10.24 6.144-14.336l102.4-96.256c4.096-4.096 7.168-9.216 7.168-15.36 0-5.12-2.048-11.264-7.168-15.36l-152.576-142.336c-9.216-9.216-26.624-9.216-35.84 0l-102.4 96.256c-4.096 3.072-8.192 5.12-13.312 5.12s-9.216-2.048-13.312-5.12l-24.576-22.528c-12.288-12.288-29.696-18.432-48.128-18.432s-34.816 6.144-48.128 18.432c-12.288 11.264-19.456 26.624-19.456 43.008s7.168 31.744 19.456 43.008l421.888 395.264c6.144 6.144 8.192 16.384 4.096 23.552-19.456 34.816-28.672 73.728-28.672 112.64-1.024 136.192 117.76 247.808 264.192 247.808s265.216-110.592 265.216-246.784c0-137.216-118.784-247.808-265.216-247.808zM719.872 796.16c-71.68 0-129.024-55.296-129.024-121.856 0-67.584 58.368-121.856 129.024-121.856 71.68 0 129.024 55.296 129.024 121.856s-57.344 121.856-129.024 121.856zM719.872 590.336c-49.152 0-90.112 36.864-90.112 82.944s39.936 82.944 90.112 82.944c49.152 0 90.112-36.864 90.112-82.944 0-45.056-40.96-82.944-90.112-82.944z" />
<glyph unicode="&#xe62c;" d="M741.376 406.016c0 0 0 0 0 0 75.776 0 146.432 28.672 199.68 79.872s82.944 119.808 82.944 193.536c0 74.752-30.72 145.408-86.016 198.656s-128 81.92-204.8 81.92c-75.776 0-146.432-28.672-199.68-79.872s-82.944-119.808-82.944-193.536c0-43.008 10.24-84.992 29.696-122.88l-452.608-437.248c-18.432-17.408-27.648-39.936-27.648-63.488 0-24.576 10.24-48.128 27.648-65.536 18.432-17.408 41.984-26.624 66.56-26.624 21.504 0 44.032 7.168 60.416 22.528l44.032-43.008c10.24-9.216 22.528-14.336 35.84-14.336s25.6 5.12 34.816 14.336l66.56 64.512c9.216 9.216 15.36 21.504 15.36 34.816s-5.12 26.624-15.36 35.84l-43.008 41.984 21.504 20.48 25.6-24.576c8.192-7.168 18.432-11.264 28.672-11.264s20.48 4.096 28.672 11.264l45.056 44.032c8.192 7.168 12.288 17.408 12.288 28.672s-4.096 21.504-12.288 28.672l-24.576 23.552 196.608 187.392c38.912-19.456 82.944-29.696 126.976-29.696zM561.152 852.48c46.080 44.032 106.496 68.608 172.032 68.608 66.56 0 130.048-25.6 177.152-71.68s73.728-106.496 73.728-169.984c0-62.464-24.576-120.832-70.656-164.864s-106.496-68.608-172.032-68.608c-66.56 0-130.048 25.6-177.152 70.656-47.104 46.080-73.728 106.496-73.728 169.984s25.6 121.856 70.656 165.888zM310.272 56.832c2.048-2.048 3.072-5.12 3.072-7.168s0-4.096-3.072-7.168l-66.56-64.512c-4.096-4.096-12.288-4.096-16.384 0l-43.008 41.984 81.92 78.848 44.032-41.984zM415.744 195.072l-45.056-44.032c0 0-2.048-1.024-2.048 0l-24.576 23.552 47.104 45.056 24.576-24.576zM132.096 25.088c-20.48-20.48-55.296-19.456-76.8 1.024-10.24 10.24-16.384 22.528-16.384 36.864 0 13.312 5.12 25.6 15.36 34.816l447.488 432.128c10.24-14.336 21.504-28.672 34.816-40.96s26.624-23.552 40.96-32.768l-445.44-431.104zM776.192 632.32c27.648 0 53.248 10.24 72.704 28.672 19.456 19.456 30.72 44.032 30.72 71.68s-11.264 53.248-30.72 72.704c-19.456 19.456-46.080 29.696-73.728 29.696s-53.248-10.24-71.68-28.672c-19.456-19.456-30.72-44.032-30.72-71.68s11.264-53.248 30.72-72.704c19.456-18.432 45.056-29.696 72.704-29.696zM730.112 778.752c12.288 12.288 28.672 17.408 45.056 17.408s33.792-6.144 46.080-18.432c25.6-24.576 25.6-63.488 1.024-88.064-12.288-12.288-28.672-17.408-45.056-17.408s-32.768 6.144-46.080 18.432c-25.6 24.576-26.624 63.488-1.024 88.064z" />
<glyph unicode="&#xe62d;" d="M562.176 736.768c34.816-8.192 66.56-38.912 74.752-74.752 5.12-28.672 30.72-49.152 59.392-49.152 33.792 0 60.416 27.648 60.416 60.416 0 34.816-25.6 83.968-64.512 121.856-39.936 38.912-82.944 61.44-118.784 61.44-33.792 0-60.416-27.648-60.416-61.44 0-28.672 20.48-53.248 49.152-58.368zM573.44 817.664c25.6 0 60.416-19.456 92.16-50.176 34.816-33.792 53.248-73.728 53.248-94.208 0-11.264-9.216-21.504-21.504-21.504-10.24 0-19.456 7.168-21.504 17.408 0 0 0 1.024 0 1.024-12.288 50.176-54.272 92.16-105.472 103.424-10.24 2.048-17.408 10.24-17.408 21.504-1.024 13.312 9.216 22.528 20.48 22.528zM364.544 32.256l60.416-60.416c23.552-23.552 54.272-35.84 87.040-35.84s63.488 12.288 87.040 35.84l60.416 60.416c23.552 23.552 36.864 54.272 36.864 88.064v61.44c0 22.528 2.048 44.032 6.144 65.536v2.048c13.312 63.488 46.080 112.64 76.8 160.768 29.696 46.080 61.44 93.184 73.728 152.576v2.048c1.024 4.096 1.024 7.168 2.048 11.264l1.024 6.144c0 3.072 1.024 5.12 1.024 8.192 0 2.048 0 4.096 1.024 7.168v4.096c0 1.024 0 3.072 0 4.096 0 5.12 0 10.24 0 16.384 0 17.408-1.024 34.816-4.096 51.2-14.336 101.376-76.8 190.464-168.96 241.664-52.224 29.696-112.64 45.056-173.056 45.056s-120.832-15.36-173.056-45.056c-92.16-52.224-154.624-140.288-171.008-242.688-3.072-17.408-4.096-34.816-4.096-51.2 0-5.12 0-11.264 0-16.384 0-2.048 0-3.072 0-4.096v-4.096c0-2.048 0-4.096 1.024-7.168 0-3.072 1.024-6.144 1.024-9.216l1.024-5.12c1.024-4.096 1.024-7.168 2.048-12.288v-1.024c13.312-59.392 44.032-107.52 74.752-152.576 30.72-47.104 63.488-96.256 76.8-160.768v-2.048c4.096-21.504 6.144-41.984 6.144-64.512v-61.44c1.024-33.792 14.336-64.512 37.888-88.064zM277.504 430.592c-29.696 45.056-57.344 87.040-68.608 140.288 0 0 0 1.024 0 1.024-1.024 3.072-1.024 6.144-2.048 9.216l-1.024 5.12c0 2.048-1.024 5.12-1.024 7.168s0 4.096 0 5.12v4.096c0 1.024 0 2.048 0 3.072 0 4.096 0 9.216 0 14.336 0 15.36 1.024 30.72 3.072 45.056 13.312 92.16 68.608 169.984 150.528 216.064 47.104 25.6 100.352 39.936 153.6 39.936 54.272 0 107.52-13.312 153.6-39.936 81.92-46.080 137.216-123.904 151.552-214.016 2.048-15.36 3.072-30.72 3.072-45.056 0-5.12 0-9.216 0-14.336 0-1.024 0-2.048 0-3.072v-4.096c0-2.048 0-4.096-1.024-5.12 0-2.048-1.024-5.12-1.024-8.192v-6.144c-1.024-3.072-1.024-6.144-2.048-9.216 0 0 0-2.048 0-2.048-11.264-52.224-38.912-95.232-68.608-139.264-32.768-50.176-67.584-102.4-82.944-174.080l-1.024-3.072c-5.12-23.552-7.168-47.104-7.168-72.704v-61.44c0-22.528-9.216-44.032-25.6-59.392l-60.416-60.416c-15.36-15.36-36.864-24.576-59.392-24.576s-43.008 8.192-59.392 24.576l-60.416 60.416c-16.384 15.36-24.576 36.864-24.576 59.392v61.44c0 25.6-2.048 49.152-7.168 72.704l-1.024 2.048c-14.336 72.704-48.128 124.928-80.896 175.104z" />
<glyph unicode="&#xe62e;" d="M95.232 310.784c71.68-142.336 238.592-241.664 409.6-241.664 212.992 0 371.712 135.168 423.936 273.408 55.296 11.264 95.232 52.224 95.232 100.352 0 47.104-37.888 87.040-91.136 99.328-54.272 162.816-235.52 284.672-428.032 284.672-209.92 0-404.48-144.384-438.272-323.584-40.96-17.408-66.56-52.224-66.56-92.16 0-48.128 38.912-89.088 95.232-100.352zM90.112 469.504c7.168 2.048 12.288 8.192 13.312 16.384 24.576 165.888 204.8 301.056 401.408 301.056 205.824 0 356.352-138.24 394.24-267.264 2.048-7.168 8.192-13.312 16.384-14.336 39.936-6.144 69.632-31.744 69.632-61.44 0-30.72-30.72-57.344-72.704-62.464-7.168-1.024-14.336-6.144-16.384-13.312-56.32-167.936-243.712-259.072-391.168-259.072-186.368 0-327.68 118.784-378.88 228.352-3.072 6.144-8.192 10.24-15.36 11.264-40.96 5.12-70.656 31.744-70.656 61.44-1.024 26.624 19.456 49.152 50.176 59.392z" />
<glyph unicode="&#xe62f;" d="M125.952 704c69.632 0 125.952 57.344 125.952 128s-56.32 128-125.952 128-125.952-57.344-125.952-128c0-70.656 56.32-128 125.952-128zM125.952 921.088c48.128 0 87.040-39.936 87.040-88.064 0-49.152-38.912-88.064-87.040-88.064s-87.040 39.936-87.040 88.064c0 48.128 38.912 88.064 87.040 88.064zM1004.544 851.456h-661.504c-11.264 0-19.456-9.216-19.456-19.456s9.216-19.456 19.456-19.456h661.504c11.264 0 19.456 9.216 19.456 19.456s-9.216 19.456-19.456 19.456zM125.952 320c69.632 0 125.952 57.344 125.952 128s-56.32 128-125.952 128-125.952-57.344-125.952-128c0-70.656 56.32-128 125.952-128zM125.952 536.064c48.128 0 87.040-39.936 87.040-88.064 0-49.152-38.912-88.064-87.040-88.064s-87.040 39.936-87.040 88.064c0 49.152 38.912 88.064 87.040 88.064zM1004.544 467.456h-661.504c-11.264 0-19.456-9.216-19.456-19.456s9.216-19.456 19.456-19.456h661.504c11.264 0 19.456 9.216 19.456 19.456s-9.216 19.456-19.456 19.456zM125.952-64c69.632 0 125.952 57.344 125.952 128s-56.32 128-125.952 128-125.952-57.344-125.952-128 56.32-128 125.952-128zM125.952 152.064c48.128 0 87.040-39.936 87.040-88.064 0-49.152-38.912-88.064-87.040-88.064s-87.040 39.936-87.040 88.064c0 49.152 38.912 88.064 87.040 88.064zM1004.544 83.456h-661.504c-11.264 0-19.456-9.216-19.456-19.456s9.216-19.456 19.456-19.456h661.504c11.264 0 19.456 9.216 19.456 19.456s-9.216 19.456-19.456 19.456z" />
<glyph unicode="&#xe630;" d="M925.696 633.344h-138.24v48.128c0 153.6-123.904 278.528-275.456 278.528s-275.456-124.928-275.456-278.528v-48.128h-138.24c-54.272 0-98.304-44.032-98.304-99.328v-498.688c0-54.272 44.032-99.328 98.304-99.328h827.392c54.272 0 98.304 44.032 98.304 99.328v498.688c0 54.272-44.032 99.328-98.304 99.328zM985.088 35.328c0-32.768-26.624-59.392-59.392-59.392h-827.392c-32.768 0-59.392 26.624-59.392 59.392v498.688c0 32.768 26.624 59.392 59.392 59.392h157.696c11.264 0 19.456 9.216 19.456 19.456v68.608c0 132.096 106.496 239.616 236.544 239.616s236.544-107.52 236.544-238.592v-68.608c0-11.264 9.216-19.456 19.456-19.456h157.696c32.768 0 59.392-26.624 59.392-59.392v-499.712zM512 860.672c-97.28 0-177.152-79.872-177.152-179.2v-68.608c0-11.264 9.216-19.456 19.456-19.456h315.392c11.264 0 19.456 9.216 19.456 19.456v68.608c0 99.328-79.872 179.2-177.152 179.2zM650.24 633.344h-276.48v48.128c0 76.8 61.44 139.264 138.24 139.264s138.24-62.464 138.24-139.264v-48.128zM620.544 353.792c0 60.416-48.128 109.568-108.544 109.568s-108.544-49.152-108.544-109.568c0-32.768 14.336-63.488 38.912-83.968l-16.384-103.424c0-1.024 0-2.048 0-3.072 0-29.696 23.552-53.248 53.248-53.248h66.56c28.672 0 53.248 23.552 53.248 53.248 0 1.024 0 2.048 0 3.072-7.168 44.032-13.312 83.968-16.384 103.424 23.552 20.48 37.888 51.2 37.888 83.968zM548.864 295.424c-6.144-4.096-10.24-12.288-8.192-19.456 0 0 8.192-51.2 18.432-112.64-1.024-7.168-6.144-12.288-13.312-12.288h-66.56c-7.168 0-13.312 5.12-13.312 12.288l18.432 112.64c1.024 8.192-2.048 15.36-8.192 19.456-19.456 13.312-31.744 34.816-31.744 58.368 0 38.912 30.72 69.632 68.608 69.632s68.608-31.744 68.608-69.632c-1.024-23.552-12.288-46.080-32.768-58.368z" />
<glyph unicode="&#xe631;" d="M121.856 835.072c-162.816-166.912-162.816-437.248 0-604.16 78.848-80.896 184.32-124.928 295.936-124.928 76.8 0 151.552 21.504 215.040 61.44l192.512-196.608c21.504-22.528 51.2-34.816 81.92-34.816s60.416 12.288 81.92 34.816c45.056 46.080 45.056 121.856 0 167.936l-197.632 203.776c77.824 159.744 52.224 359.424-77.824 492.544-79.872 80.896-184.32 124.928-295.936 124.928s-217.088-44.032-295.936-124.928zM666.624 189.952c16.384 12.288 31.744 26.624 47.104 40.96 22.528 22.528 41.984 48.128 58.368 74.752l190.464-195.584c29.696-30.72 29.696-80.896 0-111.616-14.336-15.36-33.792-23.552-54.272-23.552s-39.936 8.192-54.272 22.528l-187.392 192.512zM150.528 806.4c71.68 72.704 166.912 113.664 267.264 113.664 101.376 0 195.584-39.936 267.264-113.664 147.456-150.528 147.456-396.288 0-546.816-71.68-72.704-166.912-113.664-267.264-113.664-101.376 0-195.584 39.936-267.264 113.664-148.48 150.528-148.48 396.288 0 546.816zM802.816 200.192l102.4-104.448c8.192-8.192 7.168-20.48 0-28.672-4.096-4.096-9.216-6.144-14.336-6.144s-10.24 2.048-14.336 6.144l-101.376 104.448c-8.192 8.192-7.168 20.48 0 28.672 8.192 7.168 20.48 7.168 27.648 0zM195.584 401.92c8.192 7.168 21.504 5.12 27.648-4.096 45.056-61.44 109.568-101.376 175.104-110.592 49.152-7.168 95.232 4.096 131.072 32.768 8.192 7.168 21.504 5.12 27.648-4.096s5.12-21.504-4.096-27.648c-35.84-27.648-79.872-43.008-128-43.008-10.24 0-21.504 1.024-32.768 2.048-76.8 10.24-149.504 56.32-201.728 125.952-5.12 9.216-3.072 22.528 5.12 28.672z" />
<glyph unicode="&#xe632;" d="M793.6 683.52c0 152.576-126.976 276.48-281.6 276.48s-281.6-123.904-281.6-276.48c0-140.288 106.496-256 243.712-273.408-3.072-3.072-6.144-7.168-9.216-11.264l-60.416-87.040c-20.48-28.672-25.6-76.8-12.288-108.544l81.92-205.824c11.264-28.672 28.672-32.768 38.912-32.768 9.216 0 26.624 4.096 38.912 32.768l80.896 197.632c13.312 31.744 8.192 79.872-11.264 109.568l-62.464 94.208c-3.072 4.096-6.144 8.192-10.24 11.264 137.216 16.384 244.736 133.12 244.736 273.408zM584.704 281.088c12.288-18.432 15.36-51.2 7.168-71.68l-79.872-197.632-81.92 204.8c-8.192 20.48-4.096 53.248 8.192 70.656l60.416 87.040c4.096 5.12 8.192 8.192 11.264 8.192 4.096 0 8.192-3.072 11.264-8.192l63.488-93.184zM512 448c-132.096 0-239.616 105.472-239.616 235.52s107.52 235.52 239.616 235.52 239.616-105.472 239.616-235.52-107.52-235.52-239.616-235.52zM20.48-64c11.264 0 20.48 9.216 20.48 20.48v284.672c0 67.584 67.584 122.88 151.552 122.88h37.888l99.328-290.816c4.096-10.24 15.36-16.384 26.624-13.312 11.264 4.096 16.384 15.36 13.312 25.6l-103.424 305.152c-3.072 8.192-11.264 14.336-19.456 14.336h-52.224c-107.52 0-194.56-73.728-194.56-163.84v-284.672c0-11.264 9.216-20.48 20.48-20.48zM1003.52-64c11.264 0 20.48 9.216 20.48 20.48v284.672c0 90.112-87.040 163.84-193.536 163.84h-52.224c-9.216 0-17.408-5.12-19.456-14.336l-104.448-305.152c-4.096-10.24 2.048-22.528 13.312-25.6 11.264-4.096 22.528 2.048 26.624 13.312l99.328 290.816h37.888c83.968 0 151.552-55.296 151.552-122.88v-284.672c-1.024-11.264 8.192-20.48 20.48-20.48z" />
<glyph unicode="&#xe633;" d="M72.704 273.92c36.864 0 65.536 39.936 71.68 95.232h50.176c20.48-148.48 100.352-267.264 233.472-345.088 110.592-64.512 237.568-88.064 311.296-88.064 156.672 0 284.672 229.376 284.672 512s-126.976 512-284.672 512c-80.896 0-206.848-21.504-313.344-81.92-133.12-75.776-214.016-196.608-233.472-351.232h-49.152c-5.12 55.296-34.816 95.232-71.68 95.232-40.96 0-71.68-49.152-71.68-115.712 0-20.48 3.072-40.96 10.24-58.368-6.144-17.408-10.24-37.888-10.24-58.368 0-65.536 30.72-115.712 72.704-115.712zM49.152 456.192c-6.144 14.336-10.24 32.768-10.24 51.2 0 46.080 19.456 75.776 32.768 75.776s32.768-29.696 32.768-75.776c0-11.264 9.216-19.456 19.456-19.456h86.016c10.24 0 18.432 8.192 19.456 17.408 14.336 151.552 87.040 265.216 216.064 338.944 100.352 56.32 218.112 76.8 293.888 76.8 133.12 0 244.736-216.064 244.736-473.088 0-256-111.616-473.088-244.736-473.088-120.832 0-474.112 76.8-508.928 415.744-1.024 10.24-9.216 17.408-19.456 17.408h-86.016c-11.264 0-19.456-9.216-19.456-19.456 0-46.080-19.456-75.776-32.768-75.776s-32.768 29.696-32.768 75.776c0 18.432 3.072 35.84 10.24 51.2 1.024 5.12 1.024 11.264-1.024 16.384zM769.024 37.376c102.4 0 185.344 184.32 185.344 410.624s-82.944 410.624-185.344 410.624c-102.4 0-185.344-184.32-185.344-410.624 1.024-226.304 83.968-410.624 185.344-410.624zM769.024 818.688c82.944 0 145.408-195.584 145.408-370.688s-62.464-370.688-145.408-370.688c-82.944 0-145.408 195.584-145.408 370.688s62.464 370.688 145.408 370.688zM769.024 233.984c60.416 0 91.136 107.52 91.136 214.016s-31.744 214.016-91.136 214.016c-59.392 0-91.136-107.52-91.136-214.016 1.024-106.496 31.744-214.016 91.136-214.016zM769.024 622.080c17.408 0 51.2-61.44 51.2-174.080s-33.792-174.080-51.2-174.080-51.2 61.44-51.2 174.080c0 112.64 33.792 174.080 51.2 174.080z" />
<glyph unicode="&#xe634;" d="M78.848 182.784h46.080v-144.384c0-7.168 3.072-13.312 9.216-17.408 3.072-2.048 7.168-3.072 10.24-3.072s6.144 1.024 9.216 2.048l317.44 162.816h474.112c43.008 0 78.848 35.84 78.848 80.896v533.504c0 44.032-35.84 80.896-78.848 80.896h-866.304c-43.008 0-78.848-35.84-78.848-80.896v-534.528c0-44.032 35.84-79.872 78.848-79.872zM38.912 797.184c0 22.528 17.408 40.96 38.912 40.96h866.304c21.504 0 38.912-18.432 38.912-40.96v-534.528c0-22.528-17.408-40.96-38.912-40.96h-477.184c-3.072 0-6.144-1.024-9.216-2.048l-293.888-149.504v132.096c0 11.264-9.216 20.48-19.456 20.48h-65.536c-21.504 0-38.912 18.432-38.912 40.96v533.504zM167.936 676.352h669.696c11.264 0 19.456 9.216 19.456 20.48s-9.216 20.48-19.456 20.48h-669.696c-11.264 0-19.456-9.216-19.456-20.48s8.192-20.48 19.456-20.48zM167.936 525.824h669.696c11.264 0 19.456 9.216 19.456 20.48s-9.216 20.48-19.456 20.48h-669.696c-11.264 0-19.456-9.216-19.456-20.48s8.192-20.48 19.456-20.48zM167.936 374.272h669.696c11.264 0 19.456 9.216 19.456 20.48s-9.216 20.48-19.456 20.48h-669.696c-11.264 0-19.456-9.216-19.456-20.48s8.192-20.48 19.456-20.48z" />
<glyph unicode="&#xe635;" d="M512-64c291.84 0 512 84.992 512 196.608 0 11.264-9.216 19.456-19.456 19.456-11.264 0-19.456-9.216-19.456-19.456 0-36.864-49.152-76.8-131.072-106.496-91.136-32.768-211.968-51.2-340.992-51.2s-250.88 18.432-340.992 51.2c-81.92 29.696-131.072 69.632-131.072 106.496 0 11.264-9.216 19.456-19.456 19.456-11.264 0-19.456-9.216-19.456-19.456-2.048-111.616 218.112-196.608 509.952-196.608zM512 91.648c291.84 0 512 84.992 512 196.608 0 11.264-9.216 19.456-19.456 19.456-11.264 0-19.456-9.216-19.456-19.456 0-36.864-49.152-76.8-131.072-106.496-91.136-32.768-211.968-51.2-340.992-51.2s-250.88 18.432-340.992 51.2c-81.92 29.696-131.072 69.632-131.072 106.496 0 11.264-9.216 19.456-19.456 19.456-11.264 0-19.456-9.216-19.456-19.456-2.048-111.616 218.112-196.608 509.952-196.608zM512 248.32c291.84 0 512 84.992 512 196.608 0 11.264-9.216 19.456-19.456 19.456-11.264 0-19.456-9.216-19.456-19.456 0-36.864-49.152-76.8-131.072-106.496-91.136-32.768-211.968-51.2-340.992-51.2s-250.88 18.432-340.992 51.2c-81.92 29.696-131.072 69.632-131.072 106.496 0 11.264-9.216 19.456-19.456 19.456-11.264 0-19.456-9.216-19.456-19.456-2.048-112.64 218.112-196.608 509.952-196.608zM512 403.968c291.84 0 512 84.992 512 196.608 0 11.264-9.216 19.456-19.456 19.456-11.264 0-19.456-9.216-19.456-19.456 0-36.864-49.152-76.8-131.072-106.496-91.136-32.768-211.968-51.2-340.992-51.2s-250.88 18.432-340.992 51.2c-81.92 29.696-131.072 69.632-131.072 106.496 0 11.264-9.216 19.456-19.456 19.456-12.288 0-21.504-8.192-21.504-19.456 0-111.616 220.16-196.608 512-196.608zM512 566.784c291.84 0 512 84.992 512 196.608s-220.16 196.608-512 196.608-512-84.992-512-196.608c0-112.64 220.16-196.608 512-196.608zM171.008 869.888c91.136 32.768 211.968 51.2 340.992 51.2s250.88-18.432 340.992-51.2c81.92-29.696 131.072-69.632 131.072-106.496s-49.152-76.8-131.072-106.496c-91.136-32.768-211.968-51.2-340.992-51.2s-250.88 18.432-340.992 51.2c-81.92 29.696-131.072 69.632-131.072 106.496-1.024 36.864 48.128 76.8 131.072 106.496z" />
<glyph unicode="&#xe636;" d="M1024 892.416c0 36.864-30.72 67.584-68.608 67.584h-595.968c-37.888 0-68.608-30.72-68.608-67.584v-533.504c-22.528 7.168-46.080 11.264-69.632 11.264-121.856-1.024-221.184-98.304-221.184-217.088 0-119.808 99.328-217.088 221.184-217.088s221.184 97.28 221.184 217.088v437.248c0 13.312 11.264 24.576 25.6 24.576h379.904c13.312 0 24.576-11.264 24.576-24.576v-232.448c-22.528 7.168-46.080 11.264-69.632 11.264-121.856 0-221.184-97.28-221.184-217.088s99.328-217.088 221.184-217.088c121.856 0 221.184 97.28 221.184 217.088v740.352zM985.088 153.088c0-97.28-81.92-177.152-181.248-177.152-100.352 0-181.248 79.872-181.248 177.152s81.92 177.152 181.248 177.152c27.648 0 56.32-6.144 80.896-18.432 6.144-3.072 13.312-2.048 19.456 1.024 6.144 4.096 9.216 10.24 9.216 16.384v261.12c0 34.816-28.672 63.488-64.512 63.488h-381.952c-35.84 0-64.512-28.672-64.512-63.488v-437.248c0-97.28-81.92-177.152-181.248-177.152-100.352 0-181.248 79.872-181.248 177.152s81.92 177.152 181.248 177.152c27.648 0 56.32-6.144 80.896-18.432 6.144-3.072 13.312-2.048 19.456 1.024 6.144 4.096 9.216 10.24 9.216 16.384v563.2c0 15.36 13.312 28.672 29.696 28.672h594.944c16.384 0 29.696-12.288 29.696-28.672v-739.328z" />
<glyph unicode="&#xe637;" d="M304.128 80.384c4.096-4.096 9.216-6.144 14.336-6.144 1.024 0 2.048 0 4.096 0l191.488 36.864c4.096 1.024 7.168 3.072 10.24 5.12l284.672 286.72c23.552 23.552 23.552 61.44 0 84.992-11.264 11.264-26.624 17.408-41.984 17.408-16.384 0-30.72-6.144-41.984-17.408l-264.192-264.192c-11.264-11.264-31.744-11.264-43.008 0-12.288 12.288-12.288 31.744 0 44.032l264.192 264.192c11.264 11.264 17.408 26.624 17.408 41.984 0 16.384-6.144 30.72-17.408 41.984s-26.624 17.408-41.984 17.408c-16.384 0-30.72-6.144-41.984-17.408l-266.24-264.192c-11.264-11.264-31.744-11.264-43.008 0-6.144 6.144-9.216 13.312-9.216 21.504s3.072 16.384 9.216 21.504l264.192 264.192c11.264 11.264 17.408 26.624 17.408 43.008s-6.144 30.72-17.408 43.008c-11.264 11.264-26.624 17.408-41.984 17.408-16.384 0-30.72-6.144-41.984-17.408l-286.72-285.696c-3.072-3.072-5.12-6.144-5.12-10.24l-36.864-191.488c-1.024-6.144 1.024-13.312 5.12-17.408l158.72-159.744zM214.016 435.712l280.576 281.6c8.192 8.192 21.504 8.192 28.672 0 4.096-4.096 6.144-9.216 6.144-14.336s-2.048-11.264-6.144-14.336l-262.144-265.216c-13.312-13.312-20.48-30.72-20.48-49.152s7.168-36.864 20.48-49.152c13.312-13.312 30.72-20.48 49.152-20.48s35.84 7.168 49.152 20.48l264.192 264.192c8.192 8.192 21.504 8.192 28.672 0 4.096-4.096 6.144-9.216 6.144-14.336s-2.048-10.24-6.144-14.336l-263.168-265.216c-27.648-27.648-27.648-71.68 0-99.328 13.312-13.312 30.72-20.48 49.152-20.48s35.84 7.168 49.152 20.48l264.192 264.192c7.168 7.168 21.504 7.168 28.672 0 8.192-8.192 8.192-21.504 0-29.696l-279.552-280.576-175.104-33.792-144.384 144.384 32.768 175.104zM128-64v0c6.144 0 11.264 0 16.384 1.024 0 0 1.024 0 1.024 0l369.664 76.8c27.648 5.12 61.44 14.336 87.040 38.912l392.192 392.192c38.912 38.912 38.912 102.4 0 142.336l-342.016 343.040c-19.456 19.456-44.032 29.696-70.656 29.696s-52.224-10.24-70.656-29.696l-391.168-390.144c-20.48-20.48-33.792-49.152-39.936-88.064l-77.824-370.688c-6.144-33.792 5.12-69.632 28.672-98.304 25.6-29.696 61.44-47.104 97.28-47.104zM39.936 74.24l77.824 370.688c5.12 30.72 14.336 53.248 29.696 67.584l391.168 390.144c11.264 11.264 26.624 17.408 43.008 17.408s31.744-6.144 43.008-17.408l342.016-343.040c23.552-23.552 23.552-62.464 0-86.016l-392.192-392.192c-17.408-17.408-44.032-23.552-66.56-27.648l-369.664-76.8c-3.072 0-7.168-1.024-10.24-1.024 0 0 0 0 0 0-24.576 0-50.176 12.288-67.584 33.792-16.384 19.456-23.552 43.008-20.48 64.512z" />
<glyph unicode="&#xe638;" d="M78.848-64h866.304c43.008 0 78.848 35.84 78.848 78.848v866.304c0 43.008-34.816 78.848-78.848 78.848h-866.304c-44.032 0-78.848-35.84-78.848-78.848v-866.304c0-43.008 34.816-78.848 78.848-78.848zM38.912 881.152c0 21.504 17.408 38.912 38.912 38.912h866.304c21.504 0 38.912-17.408 38.912-38.912v-866.304c0-21.504-17.408-38.912-38.912-38.912h-865.28c-21.504 0-38.912 17.408-38.912 38.912v866.304zM214.016 172.544h594.944c43.008 0 78.848 35.84 78.848 78.848v512c0 43.008-34.816 78.848-78.848 78.848h-594.944c-43.008 0-78.848-35.84-78.848-78.848v-512c0-44.032 35.84-78.848 78.848-78.848zM370.688 211.456v95.232c0 36.864 36.864 66.56 82.944 66.56h17.408l54.272-161.792h-154.624zM657.408 280.064l-15.36-38.912-17.408 44.032c-5.12 13.312-2.048 37.888 6.144 50.176l10.24 14.336 12.288-18.432c7.168-12.288 9.216-37.888 4.096-51.2zM848.896 251.392c0-21.504-17.408-38.912-38.912-38.912h-50.176l54.272 161.792h17.408c3.072 0 6.144 0 9.216 0 0 0 0 0 0 0 3.072 0 5.12-1.024 8.192-1.024v-121.856zM175.104 762.368c0 21.504 17.408 38.912 38.912 38.912h594.944c21.504 0 38.912-17.408 38.912-38.912v-351.232c-1.024 0-2.048 0-3.072 0s-2.048 0-4.096 0c-4.096 0-7.168 0-11.264 0h-30.72c-8.192 0-16.384-5.12-18.432-13.312l-61.44-184.32c0-1.024-1.024-2.048-1.024-3.072h-46.080l21.504 54.272c10.24 25.6 6.144 64.512-8.192 87.040l-17.408 26.624c-7.168 11.264-17.408 17.408-27.648 17.408s-19.456-5.12-27.648-16.384l-15.36-22.528c-15.36-22.528-19.456-61.44-10.24-86.016l22.528-58.368h-46.080c0 1.024 0 2.048-1.024 3.072l-61.44 184.32c-3.072 8.192-10.24 13.312-18.432 13.312h-30.72c-67.584 0-121.856-48.128-121.856-106.496v-95.232h-115.712c-21.504 0-38.912 17.408-38.912 38.912v512zM642.048 419.328c84.992 0 154.624 69.632 154.624 154.624s-69.632 154.624-154.624 154.624c-84.992 0-154.624-69.632-154.624-154.624 0-86.016 69.632-154.624 154.624-154.624zM642.048 688.64c63.488 0 114.688-51.2 114.688-114.688s-51.2-115.712-114.688-115.712c-63.488 0-114.688 51.2-114.688 115.712-1.024 63.488 51.2 114.688 114.688 114.688z" />
</font>
</defs>
</svg>
