<svg xmlns="http://www.w3.org/2000/svg" style="display: none;">

<symbol id="shape-area" viewBox="0 0 30 30">
	<path  d="M28.201,16.801H16.653c-0.213,0-0.418,0.04-0.608,0.109V1.801c0-0.993-0.806-1.8-1.799-1.8H1.799
	C0.806,0,0,0.808,0,1.801V30h3.516h3.307h8.032h1.19h7.55h3.308H30V18.602C30,17.607,29.194,16.801,28.201,16.801z M4.716,28.801
	v-2.699h0.908v2.699H4.716z M14.845,28.801H6.823V25.5c0-0.33-0.268-0.6-0.599-0.6H4.116c-0.331,0-0.6,0.27-0.6,0.6v3.301H1.2v-27
	c0-0.33,0.269-0.599,0.599-0.599h12.447c0.331,0,0.6,0.269,0.6,0.599V28.801z M24.794,28.801v-2.699h0.908v2.699H24.794z
	M28.801,28.801h-1.898V25.5c0-0.33-0.269-0.6-0.601-0.6h-2.107c-0.33,0-0.6,0.27-0.6,0.6v3.301h-7.541V18.602
	c0-0.331,0.27-0.602,0.6-0.602h11.548c0.331,0,0.6,0.271,0.6,0.602V28.801z"/>
	<path  d="M5.769,3H3.97C3.309,3,2.771,3.54,2.771,4.202v2.699c0,0.662,0.538,1.201,1.199,1.201h1.799
	c0.662,0,1.2-0.539,1.2-1.201V4.202C6.969,3.54,6.431,3,5.769,3z M3.97,6.901V4.202h1.799l0.001,2.699H3.97z"/>
	<path  d="M11.92,3h-1.8C9.459,3,8.922,3.54,8.922,4.202v2.699c0,0.662,0.537,1.201,1.198,1.201h1.8
	c0.661,0,1.199-0.539,1.199-1.201V4.202C13.119,3.54,12.582,3,11.92,3z M10.121,6.901V4.202h1.8v2.699H10.121z"/>
	<path  d="M5.769,9.301H3.97c-0.661,0-1.199,0.539-1.199,1.2v2.4c0,0.662,0.538,1.201,1.199,1.201h1.799
	c0.662,0,1.2-0.539,1.2-1.201v-2.4C6.969,9.839,6.431,9.301,5.769,9.301z M3.97,12.901v-2.4h1.799l0.001,2.4H3.97z"/>
	<path  d="M11.92,9.301h-1.8c-0.661,0-1.198,0.539-1.198,1.2v2.4c0,0.662,0.537,1.201,1.198,1.201h1.8
	c0.661,0,1.199-0.539,1.199-1.201v-2.4C13.119,9.839,12.582,9.301,11.92,9.301z M10.121,12.901v-2.4h1.8v2.4H10.121z"/>
	<path  d="M5.769,15H3.97c-0.661,0-1.199,0.539-1.199,1.202V18.9c0,0.662,0.538,1.201,1.199,1.201h1.799
	c0.662,0,1.2-0.539,1.2-1.201v-2.698C6.969,15.54,6.431,15,5.769,15z M3.97,18.9v-2.698h1.799L5.771,18.9H3.97z"/>
	<path  d="M11.92,15h-1.8c-0.661,0-1.198,0.539-1.198,1.202V18.9c0,0.662,0.537,1.201,1.198,1.201h1.8
	c0.661,0,1.199-0.539,1.199-1.201v-2.698C13.119,15.54,12.582,15,11.92,15z M10.121,18.9v-2.698h1.8V18.9H10.121z"/>
	<path  d="M20.252,19.351h-1.799c-0.661,0-1.2,0.54-1.2,1.2v1.5c0,0.662,0.539,1.199,1.2,1.199h1.799
	c0.661,0,1.199-0.537,1.199-1.199v-1.5C21.451,19.891,20.913,19.351,20.252,19.351z M18.453,22.051v-1.5h1.799l0.001,1.5H18.453z"
	/>
	<path  d="M20.252,24.301h-1.799c-0.661,0-1.2,0.539-1.2,1.199V27c0,0.664,0.539,1.202,1.2,1.202h1.799
	c0.661,0,1.199-0.538,1.199-1.202v-1.5C21.451,24.84,20.913,24.301,20.252,24.301z M18.453,27v-1.5h1.799l0.001,1.5H18.453z"/>
	<path  d="M25.994,19.351h-1.8c-0.66,0-1.199,0.54-1.199,1.2v1.5c0,0.662,0.539,1.199,1.199,1.199h1.8
	c0.661,0,1.199-0.537,1.199-1.199v-1.5C27.193,19.891,26.655,19.351,25.994,19.351z M24.194,22.051v-1.5h1.8l0.001,1.5H24.194z"/>
</symbol>

<symbol id="shape-budget" viewBox="0 0 30 30">
	<path  d="M15,30c-3.91,0-7.595-0.549-10.375-1.545C1.599,27.369,0,25.896,0,24.197c0-0.352,0.266-0.637,0.594-0.637
	c0.327,0,0.594,0.285,0.594,0.637c0,2.143,5.673,4.53,13.812,4.53c8.141,0,13.814-2.388,13.814-4.53
	c0-0.352,0.265-0.637,0.593-0.637c0.327,0,0.593,0.285,0.593,0.637c0,1.698-1.599,3.172-4.624,4.258C22.596,29.451,18.91,30,15,30
	z"/><path  d="M15,25.448c-3.91,0-7.595-0.547-10.375-1.546C1.599,22.818,0,21.346,0,19.645
	c0-0.352,0.266-0.635,0.594-0.635c0.327,0,0.594,0.283,0.594,0.635c0,2.144,5.673,4.533,13.812,4.533
	c8.141,0,13.814-2.39,13.814-4.533c0-0.352,0.265-0.635,0.593-0.635c0.327,0,0.593,0.283,0.593,0.635
	c0,1.701-1.599,3.174-4.624,4.258C22.596,24.901,18.91,25.448,15,25.448z"/><path  d="M15,20.898c-3.91,0-7.595-0.551-10.375-1.549C1.599,18.266,0,16.793,0,15.093
	c0-0.35,0.266-0.636,0.594-0.636c0.327,0,0.594,0.286,0.594,0.636c0,2.146,5.673,4.532,13.812,4.532
	c8.141,0,13.814-2.387,13.814-4.532c0-0.35,0.265-0.636,0.593-0.636c0.327,0,0.593,0.286,0.593,0.636
	c0,1.7-1.599,3.173-4.624,4.257C22.596,20.348,18.91,20.898,15,20.898z"/><path  d="M15,16.347c-3.91,0-7.595-0.549-10.375-1.547C1.599,13.714,0,12.243,0,10.542
	c0-0.352,0.266-0.636,0.594-0.636c0.327,0,0.594,0.284,0.594,0.636c0,2.143,5.673,4.53,13.812,4.53
	c8.141,0,13.814-2.387,13.814-4.53c0-0.352,0.265-0.636,0.593-0.636c0.327,0,0.593,0.284,0.593,0.636
	c0,1.7-1.599,3.171-4.624,4.257C22.596,15.797,18.91,16.347,15,16.347z"/><path  d="M15,11.61c-3.91,0-7.595-0.549-10.375-1.548C1.599,8.977,0,7.506,0,5.806c0-1.701,1.599-3.175,4.625-4.259
	C7.405,0.55,11.09,0,15,0s7.596,0.55,10.376,1.547C28.401,2.631,30,4.105,30,5.806c0,1.7-1.599,3.171-4.624,4.256
	C22.596,11.061,18.91,11.61,15,11.61z M15,1.271c-8.14,0-13.812,2.39-13.812,4.535c0,2.142,5.673,4.53,13.812,4.53
	c8.141,0,13.814-2.388,13.814-4.53C28.814,3.661,23.141,1.271,15,1.271z"/>
</symbol>

<symbol id="shape-duration" viewBox="0 0 30 30">
<path  d="M15,1.201c7.609,0,13.8,6.19,13.8,13.799c0,7.609-6.19,13.8-13.8,13.8S1.2,22.609,1.2,15C1.2,7.392,7.391,1.201,15,1.201 M15,0C6.716,0,0,6.717,0,15c0,8.285,6.716,15,15,15s15-6.715,15-15C30,6.717,23.284,0,15,0L15,0z"/><path  d="M20.593,18.625c-0.097,0-0.194-0.021-0.285-0.071L14.4,15.357V5.279c0-0.333,0.268-0.601,0.6-0.601s0.6,0.268,0.6,0.601v9.364l5.279,2.854c0.291,0.156,0.4,0.521,0.242,0.812C21.013,18.511,20.806,18.625,20.593,18.625z"/>
</symbol>

<symbol id="shape-language" viewBox="0 0 30 30">
	<path fill="#323A45" d="M19.247,1.405c0.027,0.032,0.079,0.125,0.079,0.277v14.867c0,0.154-0.052,0.248-0.079,0.279H9.304H8.991
	L8.72,17.014l-4.941,3.377v-2.156v-1.406H2.603H1.256c-0.029-0.031-0.08-0.125-0.08-0.279V1.682c0-0.152,0.051-0.245,0.079-0.277
	H19.247 M19.272,0H1.23C0.551,0,0,0.753,0,1.682v14.867c0,0.93,0.551,1.686,1.23,1.686h1.372v4.578l6.702-4.578h9.968
	c0.679,0,1.23-0.756,1.23-1.686V1.682C20.503,0.753,19.951,0,19.272,0L19.272,0z"/><path fill="#323A45" d="M27.397,30l-7.446-5.082H10.14c-1.002,0-1.818-1.068-1.818-2.383v-2.35c0-0.389,0.263-0.701,0.587-0.701
	c0.325,0,0.588,0.312,0.588,0.701v2.35c0,0.529,0.294,0.979,0.642,0.979h10.125l5.957,4.066v-4.066h1.961
	c0.347,0,0.641-0.449,0.641-0.979V7.662c0-0.531-0.294-0.982-0.641-0.982h-6.45c-0.324,0-0.588-0.313-0.588-0.701
	c0-0.389,0.264-0.704,0.588-0.704h6.45C29.185,5.275,30,6.346,30,7.662v14.873c0,1.314-0.815,2.383-1.817,2.383h-0.785V30z"/>
	<path fill="#323A45" d="M16.942,5.626H3.561c-0.325,0-0.588-0.314-0.588-0.703c0-0.387,0.263-0.701,0.588-0.701h13.382
	c0.324,0,0.588,0.313,0.588,0.701C17.53,5.312,17.267,5.626,16.942,5.626z"/><path fill="#323A45" d="M16.942,9.594H3.561c-0.325,0-0.588-0.314-0.588-0.701c0-0.388,0.263-0.705,0.588-0.705h13.382
	c0.324,0,0.588,0.316,0.588,0.705C17.53,9.28,17.267,9.594,16.942,9.594z"/><path fill="#323A45" d="M16.942,13.562H3.561c-0.325,0-0.588-0.315-0.588-0.702c0-0.387,0.263-0.703,0.588-0.703h13.382
	c0.324,0,0.588,0.316,0.588,0.703C17.53,13.247,17.267,13.562,16.942,13.562z"/><path fill="#323A45" d="M26.636,13.562h-4.903c-0.324,0-0.588-0.315-0.588-0.702c0-0.387,0.264-0.703,0.588-0.703h4.903
	c0.324,0,0.588,0.316,0.588,0.703C27.224,13.247,26.96,13.562,26.636,13.562z"/><path fill="#323A45" d="M26.636,17.529h-4.903c-0.324,0-0.588-0.314-0.588-0.701c0-0.389,0.264-0.703,0.588-0.703h4.903
	c0.324,0,0.588,0.314,0.588,0.703C27.224,17.215,26.96,17.529,26.636,17.529z"/>
</symbol>

<symbol id="shape-world" viewBox="0 0 30 30">
	<path fill="#323A45" d="M29.97,15.602C29.978,15.4,30,15.204,30,15c0-0.202-0.022-0.4-0.03-0.599l0,0C29.652,6.398,23.082,0,15,0
	S0.348,6.398,0.03,14.401l0,0C0.022,14.6,0,14.798,0,15c0,0.204,0.022,0.4,0.03,0.602l0,0c0.152,3.85,1.744,7.328,4.268,9.901l0,0
	C4.299,25.504,4.3,25.505,4.3,25.505C7.022,28.277,10.809,30,15,30s7.978-1.723,10.699-4.495c0.001,0,0.002-0.001,0.003-0.002l0,0
	C28.226,22.93,29.817,19.451,29.97,15.602L29.97,15.602z M9.346,23.424c1.729-0.778,3.639-1.223,5.654-1.223
	s3.925,0.444,5.654,1.223c-1.332,3.246-3.387,5.378-5.654,5.378S10.678,26.668,9.346,23.424z M11.041,28.217
	c-1.849-0.557-3.532-1.488-4.966-2.709c0.678-0.58,1.408-1.102,2.192-1.541C9.003,25.723,9.952,27.172,11.041,28.217z
	M21.732,23.967c0.784,0.439,1.515,0.961,2.192,1.541c-1.434,1.221-3.117,2.152-4.966,2.709
	C20.048,27.172,20.997,25.723,21.732,23.967z M21.074,22.293C19.217,21.468,17.164,21,15,21s-4.217,0.468-6.075,1.293
	c-0.658-1.973-1.07-4.26-1.127-6.691h14.404C22.145,18.033,21.732,20.32,21.074,22.293z M7.798,14.401
	c0.058-2.435,0.47-4.722,1.127-6.692C10.784,8.533,12.836,9,15,9s4.216-0.467,6.074-1.291c0.658,1.97,1.07,4.257,1.128,6.692H7.798z
	M20.654,6.577C18.925,7.356,17.016,7.802,15,7.802s-3.926-0.446-5.654-1.226C10.678,3.333,12.732,1.201,15,1.201
	S19.322,3.333,20.654,6.577z M18.961,1.786c1.848,0.556,3.53,1.489,4.964,2.707c-0.679,0.581-1.409,1.103-2.192,1.542
	C20.997,4.28,20.05,2.831,18.961,1.786z M8.268,6.035C7.484,5.595,6.754,5.074,6.075,4.493c1.434-1.218,3.116-2.151,4.964-2.707
	C9.95,2.831,9.003,4.28,8.268,6.035z M22.167,7.179c0.955-0.52,1.842-1.147,2.655-1.856c2.324,2.358,3.794,5.55,3.947,9.078h-5.368
	C23.342,11.759,22.895,9.299,22.167,7.179z M5.178,5.323c0.813,0.709,1.7,1.336,2.655,1.856c-0.728,2.12-1.175,4.58-1.234,7.222
	H1.23C1.384,10.874,2.854,7.682,5.178,5.323z M1.23,15.602H6.6c0.059,2.641,0.506,5.1,1.233,7.22
	c-0.955,0.521-1.842,1.147-2.657,1.858C2.854,22.318,1.384,19.131,1.23,15.602z M24.823,24.68c-0.814-0.711-1.701-1.338-2.656-1.858
	c0.728-2.12,1.175-4.579,1.233-7.22h5.369C28.616,19.131,27.146,22.318,24.823,24.68z"/>
</symbol>

<symbol id="shape-texticon" viewBox="0 0 30 30">
	<path fill="#323A45" d="M25.3,0c-0.172,0-0.538,0-1.062,0C19.4,0,1.2,0,1.2,0C0.537,0,0,0.537,0,1.2v27.601
	C0,29.463,0.537,30,1.2,30h27.6c0.663,0,1.2-0.537,1.2-1.199c0,0,0-19.254,0-22.798c0-0.264,0-0.445,0-0.52
	C30,4.403,27.062,0,25.3,0z M28.8,28.801H1.2V1.2h20.639v4.803c0,1.323,1.076,2.4,2.399,2.4H28.8V28.801z M24.238,7.202
	c-0.662,0-1.199-0.537-1.199-1.199V1.2h2.256c0.219,0.024,0.99,0.495,2.02,1.809c0.928,1.187,1.424,2.219,1.485,2.514v1.679H24.238
	z"/><path fill="#323A45" d="M4.6,6.603h13.895c0.33,0,0.601-0.268,0.601-0.6s-0.271-0.6-0.601-0.6H4.6c-0.332,0-0.6,0.269-0.6,0.6
	S4.269,6.603,4.6,6.603z"/><path fill="#323A45" d="M4.6,10.702h13.895c0.33,0,0.601-0.268,0.601-0.6c0-0.331-0.271-0.6-0.601-0.6H4.6
	c-0.332,0-0.6,0.269-0.6,0.6C4,10.434,4.269,10.702,4.6,10.702z"/><path fill="#323A45" d="M4,14.002c0,0.332,0.269,0.6,0.6,0.6h20.7c0.332,0,0.601-0.268,0.601-0.6c0-0.331-0.269-0.6-0.601-0.6H4.6C4.269,13.403,4,13.671,4,14.002z"/><path fill="#323A45" d="M25.3,17.908H4.6c-0.332,0-0.6,0.268-0.6,0.6c0,0.33,0.269,0.6,0.6,0.6h20.7c0.332,0,0.601-0.27,0.601-0.6
	C25.898,18.176,25.632,17.908,25.3,17.908z"/><path fill="#323A45" d="M25.3,23.402H4.6c-0.332,0-0.6,0.27-0.6,0.602c0,0.33,0.269,0.6,0.6,0.6h20.7c0.332,0,0.601-0.27,0.601-0.6C25.898,23.672,25.632,23.402,25.3,23.402z"/>
</symbol>

<symbol id="shape-replies" viewBox="0 0 50 41">
	<path fill="#323A45" d="M47,2.016c0.551,0,1,0.453,1,1.009v26.726c0,0.554-0.449,1.006-1,1.006H22.69h-0.472l-0.422,0.216
	l-13.45,6.766v-4.965v-2.018h-2H3c-0.551,0-1-0.451-1-1.006V3.025c0-0.556,0.449-1.009,1-1.009H47 M47,0H3
	C1.344,0,0,1.354,0,3.025v26.726c0,1.669,1.344,3.022,3,3.022h3.345V41l16.345-8.227H47c1.656,0,3-1.354,3-3.022V3.025
	C50,1.354,48.656,0,47,0L47,0z"/><path fill="#323A45" d="M41.529,9.076h-34c-0.552,0-1-0.453-1-1.01s0.448-1.008,1-1.008h34c0.553,0,1,0.451,1,1.008
	S42.082,9.076,41.529,9.076z"/><path fill="#323A45" d="M41.529,16.639h-34c-0.552,0-1-0.451-1-1.008c0-0.557,0.448-1.008,1-1.008h34c0.553,0,1,0.451,1,1.008
	C42.529,16.188,42.082,16.639,41.529,16.639z"/><path fill="#323A45" d="M41.529,24.203h-34c-0.552,0-1-0.451-1-1.012c0-0.556,0.448-1.006,1-1.006h34c0.553,0,1,0.45,1,1.006
	C42.529,23.752,42.082,24.203,41.529,24.203z"/>
</symbol>

<symbol id="shape-remote" viewBox="0 0 30 30">
	<path fill="#323A45" d="M28.201,16.801H16.653c-0.033,0-0.066,0.004-0.099,0.004l2.341-2.979c0.711,0.777,1.653,1.248,2.604,1.248
	c0.391,0,0.767-0.078,1.117-0.233l0.55-0.241l-1.353-3.089l0.801-0.44c0.303,0.238,0.684,0.382,1.099,0.382
	c0.979,0,1.776-0.796,1.776-1.777c0-0.98-0.797-1.778-1.776-1.778s-1.776,0.798-1.776,1.778c0,0.129,0.016,0.254,0.041,0.375
	l-0.646,0.356l-1.295-2.96l-0.551,0.24c-0.816,0.358-1.408,1.08-1.664,2.032c-0.242,0.903-0.152,1.916,0.258,2.85
	c0.032,0.074,0.068,0.149,0.105,0.222l-2.14,2.723V1.801C16.045,0.806,15.239,0,14.246,0H1.799C0.806,0,0,0.806,0,1.801V30h3.516
	h3.307h8.031h1.19h7.55h3.308H30V18.6C30,17.607,29.194,16.801,28.201,16.801z M23.713,9.098c0.318,0,0.577,0.259,0.577,0.578
	c0,0.318-0.259,0.578-0.577,0.578s-0.577-0.259-0.577-0.578C23.136,9.356,23.395,9.098,23.713,9.098z M18.979,10.03
	c0.097-0.359,0.264-0.663,0.486-0.894l2.072,4.737c-0.013,0-0.025,0-0.039,0c-0.921,0-1.854-0.719-2.322-1.788
	C18.877,11.402,18.808,10.672,18.979,10.03z M4.716,28.801V26.1h0.908v2.701H4.716z M14.845,28.801H6.823V25.5
	c0-0.33-0.269-0.6-0.6-0.6H4.116c-0.331,0-0.6,0.27-0.6,0.6v3.301H1.199v-27c0-0.33,0.269-0.601,0.6-0.601h12.447
	c0.33,0,0.599,0.271,0.599,0.601V28.801z M24.794,28.801V26.1h0.908v2.701H24.794z M28.801,28.801h-1.898V25.5
	c0-0.33-0.269-0.6-0.601-0.6h-2.106c-0.332,0-0.601,0.27-0.601,0.6v3.301h-7.541V18.6c0-0.33,0.27-0.6,0.6-0.6h11.548
	c0.331,0,0.6,0.27,0.6,0.6V28.801z"/><path fill="#323A45" d="M5.769,3H3.97C3.31,3,2.771,3.539,2.771,4.2v2.7c0,0.662,0.538,1.2,1.199,1.2h1.799
	c0.662,0,1.199-0.538,1.199-1.2V4.2C6.968,3.539,6.431,3,5.769,3z M3.97,6.9V4.2h1.799l0.001,2.7H3.97z"/><path fill="#323A45" d="M11.92,3h-1.799C9.46,3,8.922,3.539,8.922,4.2v2.7c0,0.662,0.538,1.2,1.199,1.2h1.799
	c0.661,0,1.199-0.538,1.199-1.2V4.2C13.119,3.539,12.581,3,11.92,3z M10.121,6.9V4.2h1.799l0,2.7H10.121z"/><path fill="#323A45" d="M5.769,9.301H3.97c-0.661,0-1.199,0.539-1.199,1.199v2.4c0,0.662,0.538,1.2,1.199,1.2h1.799
	c0.662,0,1.199-0.538,1.199-1.2v-2.4C6.968,9.839,6.431,9.301,5.769,9.301z M3.97,12.9v-2.4h1.799l0.001,2.4H3.97z"/><path fill="#323A45" d="M11.92,9.301h-1.799c-0.661,0-1.199,0.539-1.199,1.199v2.4c0,0.662,0.538,1.2,1.199,1.2h1.799
	c0.661,0,1.199-0.538,1.199-1.2v-2.4C13.119,9.839,12.581,9.301,11.92,9.301z M10.121,12.9v-2.4h1.799l0,2.4H10.121z"/><path fill="#323A45" d="M5.769,15H3.97c-0.661,0-1.199,0.539-1.199,1.201V18.9c0,0.662,0.538,1.199,1.199,1.199h1.799
	c0.662,0,1.199-0.537,1.199-1.199v-2.699C6.968,15.539,6.431,15,5.769,15z M3.97,18.9v-2.699h1.799L5.771,18.9H3.97z"/><path fill="#323A45" d="M11.92,15h-1.799c-0.661,0-1.199,0.539-1.199,1.201V18.9c0,0.662,0.538,1.199,1.199,1.199h1.799
	c0.661,0,1.199-0.537,1.199-1.199v-2.699C13.119,15.539,12.581,15,11.92,15z M10.121,18.9v-2.699h1.799l0,2.699H10.121z"/><path fill="#323A45" d="M20.252,19.35h-1.799c-0.661,0-1.2,0.541-1.2,1.201v1.5c0,0.662,0.539,1.199,1.2,1.199h1.799
	c0.661,0,1.199-0.537,1.199-1.199v-1.5C21.451,19.891,20.913,19.35,20.252,19.35z M18.453,22.051v-1.5h1.799l0.001,1.5H18.453z"/><path fill="#323A45" d="M20.252,24.301h-1.799c-0.661,0-1.2,0.539-1.2,1.199V27c0,0.662,0.539,1.201,1.2,1.201h1.799
	c0.661,0,1.199-0.539,1.199-1.201v-1.5C21.451,24.84,20.913,24.301,20.252,24.301z M18.453,27v-1.5h1.799l0.001,1.5H18.453z"/><path fill="#323A45" d="M25.994,19.35h-1.799c-0.661,0-1.2,0.541-1.2,1.201v1.5c0,0.662,0.539,1.199,1.2,1.199h1.799
	c0.661,0,1.198-0.537,1.198-1.199v-1.5C27.192,19.891,26.655,19.35,25.994,19.35z M24.195,22.051v-1.5h1.799l0.001,1.5H24.195z"/>
</symbol>

<symbol id="shape-skills" viewBox="0 0 30 30">
	<path fill="#323A45" d="M16.306,25.438c0.324,0,0.587-0.273,0.587-0.61v-4.495c0-0.336-0.263-0.61-0.587-0.61
		s-0.587,0.274-0.587,0.61v4.495C15.719,25.165,15.981,25.438,16.306,25.438z"/>
	<path fill="#323A45" d="M29.999,3.369C30,2.447,29.596,1.59,28.862,0.95C28.158,0.337,27.229,0,26.245,0H12.259L0,9.003
		l0.001,6.223C0,16.145,0.404,17.005,1.139,17.643c0.703,0.613,1.633,0.951,2.616,0.951h9.072v7.805
		c0,1.986,1.657,3.602,3.694,3.602c2.036,0,3.692-1.615,3.692-3.602v-7.805h6.031c2.069,0,3.754-1.512,3.755-3.368L29.999,3.369z
		 M19.04,26.398c0,1.312-1.13,2.379-2.519,2.379c-1.39,0-2.521-1.066-2.521-2.379v-7.805h5.039V26.398z M26.245,17.371h-6.031H19.04
		h-5.039h-1.174H3.755c-0.709,0-1.371-0.237-1.864-0.666c-0.462-0.402-0.717-0.928-0.717-1.479V9.637l11.458-8.415h13.614
		c0.709,0,1.37,0.236,1.863,0.665c0.462,0.403,0.717,0.929,0.717,1.481v11.857C28.826,16.407,27.667,17.371,26.245,17.371z"/>
	<path fill="#323A45" d="M26.253,10.636L26.253,10.636c-0.324,0-0.588,0.273-0.588,0.611l0.002,2.285
		c-0.001,0.575-0.61,1.061-1.332,1.061h-2.866c-0.324,0-0.587,0.272-0.587,0.609c0,0.338,0.263,0.611,0.587,0.611h2.866
		c1.381,0,2.505-1.021,2.506-2.281l-0.001-2.286C26.84,10.91,26.577,10.636,26.253,10.636z"/>
</symbol>

<symbol id="shape-star" viewBox="0 0 15 15">
	<path fill="#323A45" d="M7.5,1.061l1.528,3.248c0.272,0.578,0.955,1.087,1.589,1.184l3.451,0.526l-2.531,2.587
	c-0.44,0.45-0.695,1.257-0.595,1.878l0.595,3.632l-3.043-1.678c-0.275-0.151-0.628-0.235-0.994-0.235
	c-0.366,0-0.719,0.084-0.994,0.235l-3.042,1.678l0.593-3.632c0.102-0.621-0.154-1.429-0.594-1.878L0.931,6.02l3.452-0.526
	C5.017,5.396,5.7,4.887,5.972,4.309L7.5,1.061 M7.5,0C7.379,0,7.258,0.098,7.166,0.293L5.401,4.042
	c-0.184,0.391-0.685,0.765-1.113,0.83L0.402,5.464c-0.428,0.065-0.531,0.372-0.228,0.681l2.837,2.899
	c0.303,0.31,0.494,0.912,0.424,1.338L2.76,14.518C2.711,14.822,2.826,15,3.034,15c0.083,0,0.181-0.028,0.289-0.088l3.488-1.924
	C7,12.884,7.25,12.832,7.5,12.832c0.25,0,0.5,0.052,0.689,0.156l3.489,1.924C11.786,14.972,11.885,15,11.967,15
	c0.209,0,0.324-0.178,0.274-0.482l-0.676-4.135c-0.07-0.426,0.12-1.028,0.423-1.338l2.838-2.899c0.303-0.31,0.199-0.616-0.229-0.681
	l-3.886-0.592c-0.428-0.065-0.929-0.439-1.113-0.83L7.835,0.293C7.743,0.098,7.622,0,7.5,0L7.5,0z"/>
</symbol>

<symbol id="shape-titleicon" viewBox="0 0 30 30">
	<path fill="#323A45" d="M25.3,0c-0.172,0-0.539,0-1.061,0C19.401,0,1.2,0,1.2,0C0.537,0,0,0.538,0,1.201V28.8
	C0,29.463,0.537,30,1.2,30h27.6c0.663,0,1.2-0.537,1.2-1.2c0,0,0-19.253,0-22.797c0-0.264,0-0.445,0-0.519
	C30,4.403,27.062,0,25.3,0z M28.8,28.8H1.2V1.201h20.639v4.802c0,1.323,1.076,2.4,2.4,2.4H28.8V28.8z M24.239,7.202
	c-0.663,0-1.2-0.538-1.2-1.199V1.201h2.256c0.218,0.023,0.99,0.494,2.019,1.808c0.928,1.187,1.424,2.219,1.486,2.514v1.679H24.239z
	"/><path fill="#323A45" d="M4.6,6.603h13.895c0.33,0,0.6-0.268,0.6-0.6c0-0.331-0.27-0.6-0.6-0.6H4.6c-0.332,0-0.6,0.27-0.6,0.6
	C4,6.334,4.269,6.603,4.6,6.603z"/>
</symbol>

</svg>