<?xml version="1.0" standalone="no"?>
<!DOCTYPE svg PUBLIC "-//W3C//DTD SVG 1.1//EN" "http://www.w3.org/Graphics/SVG/1.1/DTD/svg11.dtd" >
<svg xmlns="http://www.w3.org/2000/svg">
<metadata></metadata>
<defs>
<font id="nexa_boldregular" horiz-adv-x="1302" >
<font-face units-per-em="2048" ascent="1536" descent="-512" />
<missing-glyph horiz-adv-x="509" />
<glyph horiz-adv-x="0" />
<glyph horiz-adv-x="682" />
<glyph unicode=" "  horiz-adv-x="509" />
<glyph unicode="&#x09;" horiz-adv-x="509" />
<glyph unicode="&#xa0;" horiz-adv-x="509" />
<glyph unicode="!" horiz-adv-x="557" d="M141 125q0 37 15 65.5t39 43.5t52.5 22t57.5 0t53 -22t39 -43.5t15 -65.5t-15 -65.5t-39 -43.5t-53 -22t-57.5 0t-52.5 22t-39 43.5t-15 65.5zM168 358v1080h221v-1080h-221z" />
<glyph unicode="&#x22;" horiz-adv-x="827" d="M143 889v543h195v-543h-195zM489 889v543h195v-543h-195z" />
<glyph unicode="#" horiz-adv-x="1398" d="M76 295v201h207l108 426h-170v194h217l78 318h229l-77 -318h270l80 318h227l-78 -318h156v-196h-205l-110 -424h170v-201h-215l-72 -295h-229l71 295h-272l-72 -295h-227l71 295h-157zM494 483h297l114 451h-297z" />
<glyph unicode="$" horiz-adv-x="1392" d="M72 289l194 102q45 -100 171 -158.5t263 -58.5q58 0 110 6.5t102.5 23.5t87 43.5t59 68.5t22.5 96q0 56 -30.5 97t-90 66.5t-120.5 40.5t-148 27q-63 8 -106.5 15t-101 19t-97 27t-84.5 37t-74 51t-54 66t-37.5 86.5t-12.5 108.5q-1 78 26.5 143.5t73.5 111t109.5 79.5 t130.5 52.5t141 26.5v185h219v-185q72 -9 128 -24.5t112 -43t101.5 -73t80.5 -108.5l-184 -99q-43 74 -143 117t-213 45q-66 0 -127.5 -13t-113 -39t-82.5 -70.5t-30 -102.5q0 -31 11 -56.5t27 -43.5t45 -33t55.5 -25t69 -19t73 -14t80.5 -12q72 -10 126.5 -20t120.5 -28 t114.5 -39.5t96.5 -54.5t78 -74t49 -98.5t19 -125.5q0 -100 -42 -181.5t-112.5 -134t-158 -83t-183.5 -36.5v-204h-217v196q-111 9 -211 42.5t-189 105t-134 172.5z" />
<glyph unicode="%" horiz-adv-x="1521" d="M74 1140.5q0 58.5 20.5 114.5t59 99.5t101.5 70.5t140 27q78 0 141 -27t101.5 -70.5t59.5 -99.5t21 -114.5t-21 -114.5t-59.5 -99.5t-101.5 -70.5t-141 -27q-77 0 -140 27t-101.5 70.5t-59 99.5t-20.5 114.5zM199 0l927 1438h203l-926 -1438h-204zM236 1175.5 q-8 -33.5 0.5 -67.5t27 -62t53.5 -45.5t80 -17.5q44 0 78 17.5t51.5 45.5t26 62t-0.5 67.5t-27 61.5t-53 45.5t-79 17.5t-78.5 -17.5t-52.5 -45.5t-26 -61.5zM805 297q0 58 20.5 114t59 100t101.5 70.5t140 26.5q78 0 141 -26.5t101.5 -70.5t59.5 -100t21 -114t-21 -114 t-59.5 -100t-101.5 -70.5t-141 -26.5q-77 0 -140 26.5t-101.5 70.5t-59 100t-20.5 114zM967 332q-8 -34 0.5 -68t27 -62t53.5 -45.5t80 -17.5q44 0 78 17.5t51.5 45.5t26 62t-0.5 68t-27 62t-53 45.5t-79 17.5t-78.5 -17.5t-52.5 -45.5t-26 -62z" />
<glyph unicode="&#x26;" horiz-adv-x="1439" d="M109 422q0 101 67.5 189t169.5 122q-93 37 -147 121t-54 180q1 83 29.5 152.5t78.5 118t117 82t144 49.5t160 16q78 0 147 -11t136.5 -39t115.5 -71.5t78 -113t31 -158.5h-215q0 198 -299 198q-81 0 -141.5 -20t-94 -53t-49 -71t-14.5 -79q0 -58 30 -101.5t77.5 -66 t95.5 -33t96 -10.5h655v-182h-121v-233q0 -84 34 -137.5t107 -53.5v-221q-210 -8 -262 186q-65 -100 -176 -152.5t-252 -52.5q-113 0 -210.5 28.5t-172.5 83t-118 140t-43 193.5zM334 420q0 -115 92 -174.5t238 -59.5q37 0 78 6.5t85.5 23.5t79.5 41t57.5 63.5t22.5 87.5 v233h-332q-153 0 -237 -67.5t-84 -153.5z" />
<glyph unicode="'" horiz-adv-x="475" d="M141 891v543h193v-543h-193z" />
<glyph unicode="(" horiz-adv-x="708" d="M84 627q-5 276 117 528.5t356 407.5l107 -146q-175 -134 -267 -334t-94 -428q0 -238 91 -433t270 -331l-115 -157q-222 147 -341 387t-124 506z" />
<glyph unicode=")" horiz-adv-x="706" d="M43 1436l109 145q234 -155 355.5 -407.5t115.5 -526.5q-5 -267 -123.5 -507.5t-341.5 -387.5l-111 160q359 276 356 762q0 228 -92 428t-268 334z" />
<glyph unicode="*" horiz-adv-x="815" d="M100 1178l50 161l182 -67l-8 186h165l-16 -188l195 69l45 -161l-191 -41l135 -156l-133 -98l-116 172l-119 -172l-133 98l131 156z" />
<glyph unicode="+" horiz-adv-x="1026" d="M90 610v197h316v315h210v-315h318v-197h-318v-319h-210v319h-316z" />
<glyph unicode="," horiz-adv-x="503" d="M121 100q0 45 27 75.5t65 38t76 0t65 -39.5t27 -80q0 -7 -1 -13.5t-4 -17.5t-6.5 -22.5t-11.5 -35t-16.5 -47.5t-23 -67.5t-29.5 -87.5h-127l45 195q-39 8 -62.5 34t-23.5 68z" />
<glyph unicode="-" horiz-adv-x="1011" d="M133 498v190h746v-190h-746z" />
<glyph unicode="." horiz-adv-x="497" d="M119 113q0 61 40.5 95.5t89.5 34.5t89.5 -34.5t40.5 -95.5q0 -50 -27 -83.5t-65 -41.5t-76 0t-65 41.5t-27 83.5z" />
<glyph unicode="/" horiz-adv-x="1013" d="M51 -168l703 1733h209l-705 -1733h-207z" />
<glyph unicode="0" horiz-adv-x="1433" d="M117 592v250q0 150 51.5 271.5t136 196.5t192 115t220.5 40t220.5 -40.5t192 -115t136 -196t51.5 -271.5v-250q0 -150 -51.5 -271.5t-136 -196t-192 -115t-220.5 -40.5t-220.5 40t-192 115t-136 196.5t-51.5 271.5zM346 592q0 -99 32 -178.5t84 -128.5t118.5 -75.5 t136 -26.5t136 26.5t118.5 75.5t84 128.5t32 178.5v250q0 97 -32 176t-84 127.5t-118.5 75t-136 27t-136 -25.5t-118.5 -74.5t-84 -128t-32 -177.5v-250z" />
<glyph unicode="1" horiz-adv-x="890" d="M104 0v190h258v963l-245 -70v201l473 150v-1244h250v-190h-736z" />
<glyph unicode="2" horiz-adv-x="1382" d="M119 0v362q0 95 33.5 169.5t88 121t131 77t155.5 42.5t167 12q55 0 109 10t110 33.5t90.5 71t34.5 113.5q0 230 -329 241q-66 0 -125.5 -12.5t-112 -38t-84.5 -71t-33 -105.5h-229q6 96 43 171t93 122t132 77.5t153 43t163 12.5q84 0 160.5 -13.5t149.5 -45.5 t126.5 -80.5t86 -124.5t32.5 -172q0 -100 -32 -177.5t-84.5 -125t-127.5 -78t-153.5 -42t-170.5 -11.5q-47 0 -91.5 -5t-94 -19.5t-86 -38t-60.5 -64t-24 -93.5v-147h924v-215h-1145z" />
<glyph unicode="3" horiz-adv-x="1380" d="M100 406h232q0 -50 24 -89.5t60.5 -63.5t85 -39.5t93 -21.5t87.5 -6q92 0 170 25t129 79.5t51 129.5q0 42 -16 78.5t-52.5 70t-106 53t-165.5 19.5h-227v188h213q92 0 166 22t120.5 69t47.5 112q0 39 -17.5 75.5t-54 69.5t-103 52.5t-153.5 19.5q-57 0 -111.5 -10 t-106 -32t-83 -64t-31.5 -99h-227q0 89 34 160.5t89 117t129.5 76t151 43.5t157.5 13q87 0 167.5 -16.5t150.5 -51.5t122 -84t82 -118.5t31 -151.5q0 -105 -61 -187t-162 -110q124 -35 190 -117t66 -196q0 -93 -33.5 -168.5t-89.5 -125.5t-132.5 -84t-160.5 -49t-176 -15 q-84 0 -162.5 13t-155.5 44.5t-134 79t-92 122t-36 167.5z" />
<glyph unicode="4" horiz-adv-x="1355" d="M45 492l786 940h265v-934h170v-213h-170v-285h-228v285h-794zM301 498h567v667z" />
<glyph unicode="5" horiz-adv-x="1341" d="M111 422h229q0 -52 22 -92t56.5 -64t82.5 -39t93 -20.5t94 -5.5q90 0 164 27t122 86.5t48 142.5q1 118 -91 180.5t-241 62.5h-547v732h1028v-215h-804v-304h323q166 0 290.5 -48.5t197.5 -153t73 -254.5q0 -147 -76 -255.5t-201.5 -162t-283.5 -53.5q-94 0 -176 13 t-157 45t-128.5 81t-85 124.5t-32.5 172.5z" />
<glyph unicode="6" horiz-adv-x="1419" d="M141 451v557q0 111 50 199t133.5 141.5t185.5 81.5t213 28q93 0 176.5 -14.5t156 -46.5t125 -79t83.5 -115.5t32 -151.5h-225q-3 98 -103 153.5t-239 55.5q-68 0 -131 -15t-115 -44.5t-83 -78.5t-31 -112v-260q55 81 156.5 122t207.5 41q89 0 170.5 -15t158 -50 t132.5 -87.5t89.5 -133.5t33.5 -181q0 -93 -33.5 -171t-90.5 -131.5t-132.5 -91t-159 -55t-170.5 -17.5q-89 0 -172.5 17.5t-160 55.5t-133.5 92t-90.5 133t-33.5 173zM371 446q0 -87 53 -147.5t131.5 -86.5t175.5 -26q94 0 172 25.5t131 86t53 148.5q0 126 -103 196.5 t-251 70.5q-150 0 -256.5 -70.5t-105.5 -196.5z" />
<glyph unicode="7" horiz-adv-x="1150" d="M63 1214v220h1051l14 -131l-677 -1303h-265l633 1214h-756z" />
<glyph unicode="8" horiz-adv-x="1439" d="M106 418q2 103 68.5 192.5t177.5 128.5q-100 46 -154.5 122.5t-54.5 172.5q0 105 48 188.5t129 134t182.5 77t214.5 26.5q90 0 174 -16t158.5 -50.5t130 -83.5t88 -120t32.5 -156q0 -91 -57.5 -169t-159.5 -117q111 -38 178.5 -132.5t69.5 -197.5q1 -96 -31.5 -173 t-89.5 -128t-136.5 -85.5t-168 -49.5t-188.5 -15q-96 0 -183 15t-166.5 49t-137.5 85t-91.5 128.5t-32.5 173.5zM346 416q0 -105 107.5 -171.5t265.5 -66.5q159 0 266 65.5t107 172.5q-1 79 -59 133.5t-139 77t-175 22.5q-66 0 -129.5 -13.5t-119 -40.5t-89.5 -73.5 t-35 -105.5zM377 1040q2 -71 54.5 -123t127.5 -75t160 -23q88 0 163 23t126.5 74.5t52.5 123.5q3 105 -99 166.5t-245 61.5q-147 0 -244 -64.5t-96 -163.5z" />
<glyph unicode="9" horiz-adv-x="1421" d="M104 991q0 93 33.5 171t90.5 131.5t132.5 91.5t159 55.5t170.5 17.5q111 0 214 -29t188 -85t136.5 -148.5t51.5 -208.5v-557q0 -111 -49.5 -199t-132.5 -141.5t-185 -81.5t-213 -28q-118 0 -220 24t-184 71.5t-130 127.5t-49 184h231q1 -66 53 -114.5t129.5 -71.5 t167.5 -23q58 0 119.5 16.5t115 46.5t88 79t34.5 108v260q-53 -81 -157 -123.5t-210 -42.5q-89 0 -170.5 15t-158 50.5t-132.5 88.5t-89.5 134t-33.5 181zM332 991q0 -129 103 -197.5t253 -68.5t256.5 70t106.5 196q-1 87 -54.5 147.5t-132 86.5t-174.5 26 q-95 0 -173.5 -25.5t-131.5 -86t-53 -148.5z" />
<glyph unicode=":" horiz-adv-x="524" d="M133 113q0 48 26.5 81.5t64.5 41t76 0t64.5 -41t26.5 -81.5t-26.5 -81.5t-64.5 -41t-76 0t-64.5 41t-26.5 81.5zM133 711q0 49 26.5 82.5t64.5 41.5t76 0t64.5 -41.5t26.5 -82.5q0 -48 -26.5 -81.5t-64.5 -41t-76 0t-64.5 41t-26.5 81.5z" />
<glyph unicode=";" horiz-adv-x="536" d="M137 100q0 44 26.5 75t64.5 38.5t76 0.5t64.5 -39.5t26.5 -80.5q0 -5 -0.5 -10t-2 -12.5t-3.5 -14.5t-6 -20.5t-8 -26t-12 -35.5t-15 -44.5t-19.5 -57.5t-23.5 -70h-129l45 195q-38 8 -61 34.5t-23 67.5zM141 711q0 49 26.5 82.5t64.5 41.5t76 0t64.5 -41.5t26.5 -82.5 q0 -48 -26.5 -81.5t-64.5 -41t-76 0t-64.5 41t-26.5 81.5z" />
<glyph unicode="&#x3c;" horiz-adv-x="794" d="M78 625v43l463 444l135 -145l-340 -322l342 -319l-137 -148z" />
<glyph unicode="=" horiz-adv-x="1153" d="M143 317v195h867v-195h-867zM143 766v197h867v-197h-867z" />
<glyph unicode="&#x3e;" horiz-adv-x="794" d="M115 315l344 330l-342 330l137 137l461 -444v-43l-461 -447z" />
<glyph unicode="?" horiz-adv-x="1241" d="M70 1012q0 89 30 162t81 123t121.5 84t149 49.5t164.5 15.5q111 0 206.5 -24t174.5 -73t124 -134.5t44 -198.5q0 -70 -19.5 -126.5t-47.5 -91.5t-71 -66t-78.5 -47t-81.5 -37t-68 -34q-70 -32 -95.5 -81t-25.5 -152l-227 2q0 82 12.5 145.5t32.5 105t54.5 74t67.5 51.5 t82 40q16 7 54.5 23.5t55.5 24.5t45 26.5t41 36t23.5 45.5t10.5 63q0 66 -28.5 113t-77.5 70.5t-100.5 33.5t-111.5 10q-77 0 -147 -23.5t-120.5 -78t-51.5 -131.5h-223zM422 133q0 39 16 69.5t41 46.5t56 23.5t61.5 0t55.5 -23.5t41 -46.5t16 -69.5q0 -54 -29.5 -90.5 t-71.5 -45t-84.5 0t-72 45t-29.5 90.5z" />
<glyph unicode="@" horiz-adv-x="1871" d="M96 530q0 188 68 345t184 261.5t269 162t325 57.5q184 0 338 -51.5t268.5 -150.5t178 -255t63.5 -354q0 -239 -97.5 -376.5t-283.5 -137.5q-62 0 -108 46t-46 132q-40 -88 -136.5 -138.5t-186.5 -50.5q-221 0 -371.5 144t-150.5 362q0 146 69.5 264t188.5 183t262 65 q94 0 185 -50t132 -126l13 123l165 -20v-717q0 -24 9.5 -36.5t23.5 -12.5q53 0 88.5 51t49.5 125.5t14 169.5q0 635 -668 635q-133 0 -252.5 -45t-210 -127t-143.5 -206t-53 -272q0 -132 36 -239t97.5 -178.5t146 -119.5t177 -69.5t194.5 -21.5q170 0 297 75l84 -143 q-170 -102 -385 -102q-133 0 -255 31t-228 96t-184 157.5t-122.5 224.5t-44.5 289zM614 528q0 -131 87 -225t233 -94q101 0 174 46.5t107 119.5t34 162q0 133 -81.5 223t-233.5 90q-145 0 -232.5 -93.5t-87.5 -228.5z" />
<glyph unicode="A" horiz-adv-x="1572" d="M18 0l644 1434h249l643 -1434h-243l-137 301h-777l-135 -301h-244zM483 510h607l-304 682z" />
<glyph unicode="B" horiz-adv-x="1466" d="M180 0v1434h658q104 0 191 -24.5t154 -73t104.5 -128.5t37.5 -184q0 -94 -50.5 -169.5t-148.5 -115.5q81 -24 138.5 -83.5t81.5 -123t24 -122.5q0 -91 -28.5 -162.5t-77 -117.5t-117.5 -75.5t-144.5 -42t-164.5 -12.5h-658zM408 213h430q53 0 102 9.5t96.5 30.5t76 62 t28.5 97q0 72 -49 125t-115.5 75.5t-136.5 22.5h-432v-422zM408 840h432q127 0 192.5 47t65.5 133q0 82 -69.5 144.5t-190.5 62.5h-430v-387z" />
<glyph unicode="C" horiz-adv-x="1439" d="M92 707v8q0 111 28 215q29 108 90.5 204t149 168t213.5 114t275 42q147 0 282 -55t242 -162l-153 -147q-74 73 -171 110t-200 37q-132 0 -236 -45.5t-167 -122t-95 -169.5q-31 -90 -31 -189v-6q1 -102 32.5 -193t93 -166t165.5 -119.5t238 -44.5q102 0 204.5 41 t176.5 115l157 -158q-216 -213 -538 -213q-152 0 -278 40.5t-213 110t-147.5 163.5t-88.5 200.5t-29 221.5z" />
<glyph unicode="D" horiz-adv-x="1536" d="M180 0v1434h543q142 0 261.5 -39.5t202 -106.5t140.5 -158t85.5 -192t29.5 -209v-16q0 -102 -23 -199q-25 -104 -82.5 -198t-140.5 -164t-205 -111t-268 -41h-543zM408 221h315q102 0 186 29t140.5 78t94.5 115q40 67 56 139q15 65 14 132v17q-2 94 -32.5 178t-88 153.5 t-153 110.5t-217.5 41h-315v-993z" />
<glyph unicode="E" horiz-adv-x="1353" d="M180 0v1434h1053v-224h-823v-387h790v-213h-790v-385h829v-225h-1059z" />
<glyph unicode="F" horiz-adv-x="1282" d="M180 0v1432h1014v-224h-784v-436h745v-213h-745v-559h-230z" />
<glyph unicode="G" horiz-adv-x="1521" d="M92 702q0 125 31 238.5t94 210t152 167t211.5 110.5t265.5 40q146 0 284 -55t246 -162l-143 -147q-74 73 -179 113t-208 40q-123 0 -224.5 -44t-167.5 -120t-102 -177q-35 -97 -35 -208v-6q0 -81 19 -154.5t60.5 -140t102 -115.5t149.5 -77.5t198 -28.5q198 0 350 127 v291h-399v205h612v-588q-226 -250 -563 -250q-153 0 -279.5 39.5t-213.5 108t-146.5 162t-87 199t-27.5 222.5z" />
<glyph unicode="H" horiz-adv-x="1574" d="M180 0v1434h230v-625h757v625h228v-1434h-228v596h-757v-596h-230z" />
<glyph unicode="I" horiz-adv-x="587" d="M180 0v1434h228v-1434h-228z" />
<glyph unicode="J" horiz-adv-x="1443" d="M57 582h226q0 -189 100 -291.5t287 -102.5q183 0 284 111.5t101 294.5v627h-461v213h690v-840q0 -278 -167 -449.5t-447 -171.5q-273 0 -443 162.5t-170 446.5z" />
<glyph unicode="K" horiz-adv-x="1327" d="M180 0v1434h230v-619l583 619h285v-9l-657 -684l714 -727v-14h-286l-639 653v-653h-230z" />
<glyph unicode="L" horiz-adv-x="1202" d="M180 0v1434h230v-1221h755v-213h-985z" />
<glyph unicode="M" horiz-adv-x="1837" d="M180 -2v1434h266l474 -672l471 672h266v-1434h-230v1100l-487 -678h-49l-481 678v-1100h-230z" />
<glyph unicode="N" horiz-adv-x="1579" d="M180 0v1434h176l813 -1020v1020h230v-1434h-174l-813 1012v-1012h-232z" />
<glyph unicode="O" horiz-adv-x="1650" d="M92 709q0 216 93.5 387t262 267.5t381.5 96.5q143 -1 263.5 -41.5t205.5 -111.5t144.5 -166t88 -203.5t28.5 -226.5t-28 -226t-87.5 -202.5t-144.5 -164t-207 -109.5t-267 -40t-267 41t-207 111t-144 164.5t-87 201.5t-28 222zM319 707q1 -78 19.5 -152t58.5 -143 t97.5 -120t142.5 -81.5t188 -30.5q129 0 228.5 43.5t158.5 118t89 167t30 198.5q0 102 -30 196t-89 172t-158 126t-225 50q-242 0 -376 -151t-134 -393z" />
<glyph unicode="P" horiz-adv-x="1415" d="M180 0v1434q110 0 332 1t332 1t202.5 -34t152.5 -91.5t101.5 -132t50.5 -156.5q5 -42 5 -84q0 -40 -4 -80q-8 -82 -50.5 -157.5t-102 -133t-152 -92t-203.5 -35.5h-434v-440h-230zM410 651h434q69 0 124 24.5t89 65t52.5 92t18.5 105.5t-18.5 105.5t-52.5 92t-89.5 65 t-123.5 24.5h-434v-574z" />
<glyph unicode="Q" horiz-adv-x="1650" d="M90 721q0 115 28 222t87.5 202t145 166t207.5 112t267 41t266.5 -40.5t205.5 -110t143 -163.5t87 -199.5t29 -219.5v-14q0 -121 -34 -238q-36 -123 -107 -221l172 -170l-160 -162l-176 172q-172 -121 -426 -121q-147 0 -270 41t-208 111.5t-143.5 166t-86 202.5 t-27.5 223zM317 717q1 -80 21 -155.5t61.5 -143t100.5 -118.5t143 -80.5t182 -29.5q124 0 224 47.5t160.5 126t91.5 174.5q28 88 28 181v18q-2 80 -20.5 153t-58 140.5t-96.5 116.5t-141.5 78.5t-187.5 29.5q-125 0 -225 -46t-161 -123t-93 -172q-29 -88 -29 -185v-12z" />
<glyph unicode="R" horiz-adv-x="1476" d="M180 0v1436q112 0 334 -1t334 -1q120 0 218 -39t160 -105t95 -149.5t33 -175.5q0 -80 -21.5 -151t-66 -133t-122 -105t-179.5 -58l428 -477l24 -41h-268l-436 496h-303v-496h-230zM410 705h436q135 0 204.5 73.5t69.5 182.5q0 50 -16.5 96t-48.5 84t-85.5 61t-121.5 23 h-438v-520z" />
<glyph unicode="S" horiz-adv-x="1351" d="M63 293l173 115q72 -123 190.5 -179.5t255.5 -56.5q54 0 104 7.5t97.5 25t82.5 44t56.5 68t21.5 93.5q0 45 -19.5 81.5t-51 61t-80.5 43t-99.5 29.5t-115.5 20q-68 9 -121 19t-113 27t-104.5 38t-87 53t-69.5 71t-43.5 92.5t-16.5 121.5q1 104 49 185q50 82 131.5 129 t176 70.5t196.5 23.5q382 0 534 -242l-174 -117q-51 73 -146 115.5t-208 44.5q-148 0 -240 -58t-92 -159q0 -40 19 -72t48.5 -52.5t77.5 -36.5t93.5 -25.5t109.5 -18.5q69 -10 125 -20.5t117.5 -29t108.5 -41t91 -56.5t72 -75.5t45 -98t17 -123.5q-1 -94 -34.5 -169.5 t-89.5 -126t-132.5 -84t-160.5 -48.5t-177 -15q-216 0 -369.5 76t-247.5 250z" />
<glyph unicode="T" horiz-adv-x="1241" d="M35 1227v207h1171v-207h-469v-1227h-231v1227h-471z" />
<glyph unicode="U" horiz-adv-x="1540" d="M162 594v838h227v-838q0 -190 100 -297t265 -113q13 -1 26 -1q158 -1 260 101q110 110 111 310v838h227v-838q0 -154 -48.5 -276t-134 -198t-197.5 -114q-99 -34 -214 -34q-15 0 -30 1q-122 3 -227.5 44t-187.5 116t-129.5 193.5t-47.5 267.5z" />
<glyph unicode="V" horiz-adv-x="1476" d="M23 1434h258l456 -1166l459 1166h256l-594 -1440h-240z" />
<glyph unicode="W" horiz-adv-x="2199" d="M33 1434h256l364 -1104l371 1104h147l379 -1104l357 1104h256l-512 -1436h-203l-191 506l-157 481l-158 -483l-188 -504h-201z" />
<glyph unicode="X" horiz-adv-x="1337" d="M18 0v6l504 721l-483 696v11h252l379 -555l377 555h251v-11l-485 -696l506 -721v-6h-260l-389 567l-391 -567h-261z" />
<glyph unicode="Y" horiz-adv-x="1404" d="M33 1423v11h272l395 -633l408 633h276v-11l-569 -835v-588h-229v588z" />
<glyph unicode="Z" horiz-adv-x="1247" d="M53 0v129l774 1094h-708v211h1046v-105l-788 -1110h788v-219h-1112z" />
<glyph unicode="[" horiz-adv-x="698" d="M164 -360v1814h463v-190h-248v-1432h248v-192h-463z" />
<glyph unicode="\" horiz-adv-x="1028" d="M51 1565h223l703 -1733h-221z" />
<glyph unicode="]" horiz-adv-x="700" d="M74 -166h248v1432h-248v190h463v-1814h-463v192z" />
<glyph unicode="^" horiz-adv-x="1275" d="M86 707v10l473 719h143l486 -717l-2 -12h-232l-323 495l-324 -495h-221z" />
<glyph unicode="_" horiz-adv-x="1230" d="M133 -18h965v-189h-965v189z" />
<glyph unicode="`" horiz-adv-x="479" d="M4 1430v8h254l152 -277v-10h-191z" />
<glyph unicode="a" d="M82 506q0 164 70.5 285t187.5 181t264 60q109 0 203.5 -48.5t140.5 -133.5l6 160h205v-1010h-201l-10 164q-48 -91 -147 -141t-201 -50h-6q-224 0 -367 140q-145 142 -145 393zM293 506q0 -153 94.5 -244.5t233.5 -91.5q79 0 142.5 29t103 76t60.5 107t21 123t-21 123 t-60.5 107t-103 76t-142.5 29q-139 0 -233.5 -91.5t-94.5 -242.5z" />
<glyph unicode="b" d="M143 0v1432h211v-580q47 84 150.5 132t204.5 48q226 0 369 -138t143 -388q0 -244 -145 -385t-371 -141q-108 0 -201 44t-150 136l-12 -160h-199zM367 506q0 -146 93 -238t230 -92q136 0 228 90.5t92 239.5q0 151 -91.5 239.5t-228.5 88.5q-135 0 -229 -92.5t-94 -235.5z " />
<glyph unicode="c" horiz-adv-x="1042" d="M82 504q0 127 41.5 229t114.5 167t169 99.5t207 34.5q212 0 365 -149l-135 -142q-94 91 -228 91q-139 0 -231 -91t-92 -239q0 -154 92 -240t229 -86q149 0 240 94l143 -141q-161 -158 -383 -158q-148 0 -267 59t-192 181.5t-73 290.5z" />
<glyph unicode="d" d="M82 506q0 250 142 388t370 138q101 0 204 -48t150 -132v580h211v-1432h-198l-13 160q-57 -92 -149.5 -136t-200.5 -44q-226 0 -371 141t-145 385zM293 506q0 -149 91 -239.5t228 -90.5q135 0 228.5 92t93.5 238q0 144 -93.5 236t-228.5 92q-138 0 -228.5 -88.5 t-90.5 -239.5z" />
<glyph unicode="e" horiz-adv-x="1191" d="M82 510q0 231 147.5 378.5t382.5 147.5q256 0 396 -156q117 -130 117 -359q0 -46 -5 -95h-819q14 -116 103 -185t227 -69q81 0 165 29.5t128 79.5l137 -134q-75 -83 -193 -127.5t-241 -44.5q-249 0 -397 146t-148 389zM305 604h613q-9 118 -89.5 181t-210.5 63 q-119 0 -204 -63.5t-109 -180.5z" />
<glyph unicode="f" horiz-adv-x="798" d="M57 811v186h193v74q0 183 101.5 283t262.5 100q129 0 248 -80l-82 -157q-80 53 -153 53q-75 0 -119.5 -50.5t-44.5 -148.5v-74h305v-186h-305v-811h-213v811h-193z" />
<glyph unicode="g" horiz-adv-x="1257" d="M82 532q0 122 46.5 221t124.5 160.5t174.5 94t201.5 32.5q70 0 146 -17.5t126 -51.5l111 135l153 -119l-121 -141q64 -75 93.5 -148.5t29.5 -165.5q0 -137 -68 -239.5t-200 -153.5q75 -25 128.5 -63t82.5 -83t42 -89.5t13 -93.5q0 -80 -30 -148t-82 -116t-121 -82 t-147 -50t-160 -16q-250 0 -395 120q-138 114 -138 311v17h211v-9q0 -106 91 -167q96 -65 231 -67q82 0 152.5 21t119.5 69.5t49 116.5q0 104 -86.5 161.5t-230.5 57.5q-249 0 -398 134.5t-149 368.5zM295 532q0 -145 95.5 -227t238.5 -82q141 0 234 87t93 222 q0 144 -95 228t-232 84q-89 0 -163 -33t-122.5 -105.5t-48.5 -173.5z" />
<glyph unicode="h" horiz-adv-x="1226" d="M143 0v1434h211v-574q117 164 328 164q208 0 312 -127.5t104 -351.5v-545h-211v543q0 140 -67 212t-187 72q-121 0 -200 -87.5t-79 -213.5v-526h-211z" />
<glyph unicode="i" horiz-adv-x="497" d="M119 1307q0 49 27 83q28 33 66 41q19 4 38 4l38 -4q38 -8 65.5 -41.5t27.5 -82.5q0 -42 -19.5 -72.5t-48.5 -44t-63 -13.5t-63 13.5t-48.5 44t-19.5 72.5zM143 0h211v1014h-211v-1014z" />
<glyph unicode="j" horiz-adv-x="497" d="M-178 -442q100 -64 213 -64q167 0 243 96t76 291v1133h-211v-1133q0 -97 -23 -142t-93 -46h-9q-53 0 -120 31zM119 1311q0 49 27 82.5t66 41.5q19 4 38 4l38 -4q39 -8 66 -41.5t27 -82.5q0 -42 -19.5 -72.5t-48.5 -44t-63 -13.5t-63 13.5t-48.5 44t-19.5 72.5z" />
<glyph unicode="k" horiz-adv-x="1052" d="M143 0v1432h213v-836l375 414h256v-13l-436 -462l496 -521v-14h-259l-432 467v-467h-213z" />
<glyph unicode="l" horiz-adv-x="514" d="M152 0v1432h210v-1432h-210z" />
<glyph unicode="m" horiz-adv-x="1857" d="M143 0v1012h197l14 -135q40 78 117.5 114.5t165.5 36.5q68 0 127 -18.5t111 -65.5t79 -119q110 201 346 201q207 0 318 -123t111 -344v-559h-213v559q0 118 -58 193t-166 75q-110 0 -177.5 -78.5t-67.5 -193.5v-555h-213v555q0 117 -63.5 195.5t-172.5 78.5 q-110 0 -177 -79t-67 -195v-555h-211z" />
<glyph unicode="n" horiz-adv-x="1249" d="M143 0v1012h193l12 -148q143 162 340 162q190 0 312 -128.5t122 -354.5v-543h-213v541q0 133 -71.5 211.5t-200.5 78.5q-124 0 -203.5 -88t-79.5 -215v-528h-211z" />
<glyph unicode="o" horiz-adv-x="1204" d="M80 504q0 226 144.5 376t375.5 150q152 0 272.5 -69.5t186 -189t65.5 -267.5q0 -227 -144.5 -375.5t-379.5 -148.5q-233 0 -376.5 148t-143.5 376zM291 504q0 -140 84 -234t225 -94q142 0 226.5 94t84.5 234q0 137 -88 234.5t-223 97.5q-140 0 -224.5 -96.5t-84.5 -235.5 z" />
<glyph unicode="p" d="M143 -469v1479h199l12 -164q56 89 153.5 136.5t203.5 47.5q225 -1 367.5 -149t142.5 -377q0 -232 -139 -379.5t-371 -147.5q-105 0 -204.5 41.5t-152.5 128.5v-616h-211zM373 504q0 -136 90 -229t227 -93q138 0 229 91t91 231q0 143 -88 232t-232 89q-143 0 -230 -91.5 t-87 -229.5z" />
<glyph unicode="q" horiz-adv-x="1304" d="M82 504q0 151 64.5 270.5t181.5 187t266 68.5q106 0 202 -47.5t152 -136.5l13 164h200v-1479h-211v616q-53 -87 -152 -128.5t-204 -41.5q-233 0 -372.5 147.5t-139.5 379.5zM295 504q0 -141 89.5 -231.5t227.5 -90.5t228 93t90 229q0 138 -87.5 229.5t-230.5 91.5 q-144 0 -230.5 -89t-86.5 -232z" />
<glyph unicode="r" horiz-adv-x="901" d="M143 0v1010h197l14 -133q51 89 126.5 122t170.5 33q72 0 139 -23.5t111 -62.5l-96 -184q-76 61 -178 61q-116 0 -194.5 -71.5t-78.5 -204.5v-547h-211z" />
<glyph unicode="s" horiz-adv-x="1021" d="M63 156l111 149q66 -73 161.5 -110t192.5 -39q86 0 150 33q66 34 65 100q-1 63 -57 95q-58 32 -176 42q-410 39 -412 303q0 80 38.5 141.5t101.5 96t134.5 52t145.5 17.5q121 0 214 -31t175 -104l-119 -139q-57 52 -121 73t-145 21h-11q-89 0 -145 -30q-58 -32 -59 -91 q1 -60 58 -89.5t161 -39.5q46 -4 82.5 -9t83.5 -15.5t82 -25t70.5 -38.5t58.5 -55t37 -75.5t14 -98.5q-2 -143 -119 -231.5t-311 -88.5q-138 0 -253 41t-208 146z" />
<glyph unicode="t" horiz-adv-x="833" d="M61 825v183h195v270l213 22v-292h295v-183h-297v-481q0 -166 145 -166q57 0 129 35l62 -180q-102 -45 -203 -45h-17q-153 0 -237 86q-90 92 -90 270v481h-195z" />
<glyph unicode="u" horiz-adv-x="1247" d="M127 467v543h211v-541q0 -132 72 -211.5t202 -79.5q123 0 202 88.5t79 216.5v527h211v-1012h-191l-12 149q-141 -163 -348 -163q-190 0 -308 129t-118 354z" />
<glyph unicode="v" horiz-adv-x="1163" d="M37 1012h233l136 -326l178 -469l159 428l152 367h231l-428 -1016h-231z" />
<glyph unicode="w" horiz-adv-x="1736" d="M49 1012h238l250 -795l241 795h183l241 -795l250 795h236l-355 -1016h-246l-118 336l-99 352l-100 -352l-119 -336h-245z" />
<glyph unicode="x" horiz-adv-x="1052" d="M25 0v6l362 508l-340 490v6h254l225 -361l224 361h256v-6l-340 -490l362 -508v-6h-254l-248 367l-247 -367h-254z" />
<glyph unicode="y" horiz-adv-x="1142" d="M45 1010h246l174 -478l100 -286l109 282l200 482h236l-637 -1479h-233l209 483z" />
<glyph unicode="z" horiz-adv-x="976" d="M61 0v86l523 731h-488v193h797v-99l-508 -704h512v-207h-836z" />
<glyph unicode="{" horiz-adv-x="704" d="M68 508v160q38 0 65.5 12t43 30t24.5 44.5t11.5 50t2.5 53.5v283q0 399 412 323v-161q-106 25 -149.5 -14.5t-43.5 -155.5v-275q0 -109 -10 -147q-22 -85 -117 -118q-8 -3 -16 -5q30 -8 53 -21t38 -26t25.5 -35t15.5 -37t7.5 -43.5t3 -43.5t0.5 -48v-15v-282 q0 -116 37.5 -148.5t155.5 -17.5v-166q-219 -37 -315.5 49.5t-96.5 292.5v272q0 30 -2.5 53.5t-11.5 50t-24.5 44t-43 29.5t-65.5 12z" />
<glyph unicode="|" horiz-adv-x="540" d="M166 -190v1706h209v-1706h-209z" />
<glyph unicode="}" horiz-adv-x="704" d="M78 -137q118 -15 155 18.5t37 149.5v280v13q0 32 0.5 48t3 44t7.5 44t15.5 37.5t25.5 35t38.5 26.5t53.5 21q-30 9 -53.5 22t-38.5 26t-25.5 34.5t-15.5 37t-7.5 44t-3 44t-0.5 49.5v13v274q0 117 -43 156t-149 14v164q411 73 411 -323v-285q0 -38 5 -67t19.5 -59.5 t45.5 -47.5t78 -17v-159q-47 0 -78 -16.5t-45.5 -46.5t-19.5 -59t-5 -67v-272q0 -206 -96 -292.5t-315 -49.5v166z" />
<glyph unicode="~" horiz-adv-x="1267" d="M129 547q44 137 139.5 196.5t208.5 38.5q59 -4 115.5 -31.5t112.5 -63t94 -48.5q125 -49 186 113l158 -54q-49 -149 -153 -217.5t-245 -13.5q-37 14 -92.5 48t-105 61t-86.5 30q-57 14 -107 -16t-80 -101z" />
<glyph unicode="&#xa1;" horiz-adv-x="528" d="M121 885q0 67 44.5 104.5t98 37.5t98 -37.5t44.5 -104.5t-44.5 -104.5t-98 -37.5t-98 37.5t-44.5 104.5zM152 -459h227v1077h-227v-1077z" />
<glyph unicode="&#xa2;" horiz-adv-x="1101" d="M104 481q0 208 113.5 342.5t310.5 173.5v144h199v-142q148 -25 260 -122l-117 -148q-45 39 -110 62.5t-123 23.5q-138 0 -231 -88.5t-93 -245.5q0 -151 94 -242.5t230 -91.5q61 0 131.5 32.5t118.5 80.5l133 -154q-127 -121 -293 -145v-145h-199v147 q-193 37 -308.5 169.5t-115.5 348.5z" />
<glyph unicode="&#xa3;" horiz-adv-x="1343" d="M119 0v215q206 107 186 350h-186v193h149q-41 164 -41 235q0 219 139 340t375 121q218 0 347.5 -101t138.5 -317h-205q-7 113 -82 167t-199 54q-141 0 -212.5 -71.5t-71.5 -188.5q0 -29 4.5 -64.5t7.5 -53.5t13 -65.5t12 -55.5h450v-193h-409q12 -97 -25.5 -198.5 t-128.5 -159.5h854v-207h-1116z" />
<glyph unicode="&#xa4;" horiz-adv-x="1255" d="M135 315l121 119q-59 104 -57 217.5t63 214.5l-127 121l160 160l119 -121q94 49 215 49q117 0 211 -51l123 123l157 -160l-119 -119q57 -102 57.5 -218.5t-57.5 -215.5l119 -119l-155 -155l-123 119q-92 -48 -215 -48q-117 0 -211 48l-121 -121zM387 651 q0 -98 65.5 -170.5t174.5 -72.5q112 0 175.5 72t63.5 171q0 101 -63.5 173.5t-175.5 72.5q-109 0 -174.5 -73.5t-65.5 -172.5z" />
<glyph unicode="&#xa5;" horiz-adv-x="1472" d="M61 1423v11h267l401 -633l420 633h264v-11l-483 -710h231v-170h-317v-111h317v-168h-317v-264h-230v264h-317v168h317v111h-317v170h233z" />
<glyph unicode="&#xa6;" horiz-adv-x="555" d="M168 -184v751h219v-751h-219zM168 698v754h219v-754h-219z" />
<glyph unicode="&#xa7;" horiz-adv-x="1224" d="M111 160l139 143q132 -152 360 -149q106 0 189 35.5t86 97.5q2 37 -35.5 62.5t-96.5 37t-141 14.5q-93 2 -176.5 19t-156 52t-114 95.5t-38.5 139.5q2 63 51 125t133 90q-88 20 -132 82.5t-42 138.5q3 71 36.5 127t84.5 90.5t118.5 57t132.5 31.5t132 9q127 0 245.5 -36 t190.5 -117l-139 -121q-64 50 -134.5 69t-168.5 21q-71 1 -132.5 -13t-101.5 -43.5t-41 -68.5q-1 -33 23.5 -57.5t66.5 -38t84 -20t89 -9.5q73 -2 137.5 -10.5t133.5 -30.5t117 -56t76.5 -90.5t22.5 -129.5q-4 -69 -55 -122.5t-129 -74.5q89 -27 138 -91.5t46 -135.5 q-4 -88 -57 -154t-133 -100.5t-160.5 -51t-157.5 -16.5q-152 0 -283 50.5t-208 148.5zM346 713q-1 -37 28 -65.5t77 -43.5t106 -22t116 0t107 22t79.5 43.5t31.5 65.5q2 52 -53 89.5t-135.5 47t-161 2t-137.5 -44.5t-58 -94z" />
<glyph unicode="&#xa8;" horiz-adv-x="931" d="M109 1354q0 60 39.5 93.5t87 33.5t87 -33.5t39.5 -93.5t-39.5 -93.5t-87 -33.5t-87 33.5t-39.5 93.5zM600 1354q0 60 40 93.5t88 33.5t88 -33.5t40 -93.5t-40 -93.5t-88 -33.5t-88 33.5t-40 93.5z" />
<glyph unicode="&#xa9;" horiz-adv-x="1689" d="M100 721q0 153 51.5 288.5t145.5 237.5t237 161.5t316 59.5q139 0 258.5 -38.5t207 -107t149.5 -162t93 -205t31 -234.5q0 -153 -49.5 -288t-141 -238t-233.5 -162.5t-315 -59.5t-316 59.5t-237 162t-145.5 238t-51.5 288.5zM289 721q0 -121 39 -226.5t110 -183.5 t177.5 -123t234.5 -45q129 0 234 45t174 123.5t106 183.5t37 226q0 122 -37 227.5t-106 183.5t-174 123t-234 45q-128 0 -234.5 -45t-177.5 -123t-110 -184t-39 -227zM469 721q0 -181 117.5 -288t294.5 -107q163 0 293 127l-117 112q-79 -76 -176 -76q-102 0 -173 64 t-71 168q0 107 70.5 172t173.5 65q100 0 174 -71l116 108q-125 125 -290 125q-176 0 -294 -109.5t-118 -289.5z" />
<glyph unicode="&#xaa;" horiz-adv-x="1009" d="M125 1104q0 164 96.5 254t247.5 90q69 0 130 -30t93 -83l2 99h164v-662h-162l-4 105q-32 -57 -97 -90t-130 -33q-150 0 -245 92.5t-95 257.5zM166 465v174h688v-174h-688zM297 1104q0 -86 53.5 -138.5t132.5 -52.5q59 0 102.5 28t63 70.5t19.5 92t-19.5 92t-63 70.5 t-102.5 28q-79 0 -132.5 -51.5t-53.5 -138.5z" />
<glyph unicode="&#xab;" horiz-adv-x="1021" d="M78 608l284 451h228v-2l-283 -449q57 -93 283 -454h-228zM426 608l285 451h225v-2l-281 -449l281 -454h-225z" />
<glyph unicode="&#xac;" horiz-adv-x="1081" d="M143 586v186h785v-450h-183v264h-602z" />
<glyph unicode="&#xad;" horiz-adv-x="1011" d="M133 498v190h746v-190h-746z" />
<glyph unicode="&#xae;" horiz-adv-x="1685" d="M102 717q0 153 50 288t142 237.5t233.5 162t314.5 59.5t315 -59.5t234 -162t142 -237.5t50 -288t-50 -288t-142 -238t-234 -162.5t-315 -59.5t-314.5 59.5t-233.5 162.5t-142 238t-50 288zM291 717q1 -164 64.5 -293.5t190 -207t296.5 -77.5q129 0 234 44.5t174 123 t106 183.5t37 227t-37 227.5t-106 183.5t-174 123t-234 45q-128 0 -233 -45t-173.5 -123t-106 -183.5t-38.5 -227.5zM553 340h172v250h96l197 -250h186v37l-200 241q46 9 82.5 31t58 52t34.5 66.5t11 74.5t-12 75t-34 70t-56.5 58.5t-78.5 40t-100 14.5h-356v-760zM725 737 v207h184q40 0 67.5 -21.5t34 -52t0 -60.5t-34.5 -51.5t-69 -21.5h-182z" />
<glyph unicode="&#xaf;" horiz-adv-x="872" d="M72 1257v181h710v-181h-710z" />
<glyph unicode="&#xb0;" horiz-adv-x="706" d="M97.5 1235q0.5 64 28 118.5t87.5 91t141 36.5q80 0 139.5 -36.5t86.5 -91t27 -118.5t-26.5 -118.5t-86 -91t-140.5 -36.5q-83 0 -143.5 36.5t-87 91t-26 118.5zM229.5 1234q-0.5 -44 32 -80t90.5 -36q57 0 89 36t31.5 80t-32.5 80t-88 36q-57 0 -89.5 -36t-33 -80z" />
<glyph unicode="&#xb1;" horiz-adv-x="1093" d="M137 668v198h307v312h203v-312h309v-198h-309v-312h-203v312h-307zM141 53v195h811v-195h-811z" />
<glyph unicode="&#xb2;" horiz-adv-x="749" d="M78 827v189q0 55 18.5 95t49 61.5t69.5 37t80 22t80 16t69.5 19.5t49 31.5t18.5 53.5q0 96 -141 96q-128 0 -131 -90h-158q1 59 26 104.5t67 72t91 39.5t103 13q88 0 153.5 -22t107.5 -76t42 -137q0 -67 -24 -113t-62 -67.5t-84 -33.5t-92 -18.5t-84 -15t-62 -30 t-24 -58.5v-33h424v-156h-586z" />
<glyph unicode="&#xb3;" horiz-adv-x="761" d="M68 1044h165q15 -86 142 -86q56 0 99.5 22.5t43.5 70.5q0 41 -33 69.5t-108 28.5h-115v125h107q43 0 71 6t47.5 27t20.5 57q0 31 -33 59.5t-104 28.5q-134 0 -148 -88h-141q0 58 25.5 102t68 69.5t93 38.5t104.5 13q75 0 139.5 -22.5t110 -75.5t45.5 -127 q0 -52 -27.5 -95t-75.5 -57q56 -16 88.5 -61t32.5 -94q0 -66 -28.5 -115t-76.5 -75.5t-101 -39t-111 -12.5q-44 0 -85.5 7.5t-81 25.5t-68.5 44t-47 65.5t-19 88.5z" />
<glyph unicode="&#xb4;" horiz-adv-x="458" d="M14 1151v10l152 271h254v-9l-215 -272h-191z" />
<glyph unicode="&#xb6;" horiz-adv-x="1708" d="M68 899q1 102 36.5 196.5t101.5 170.5t172 122t236 46h1018v-213h-196v-1659h-228v1659h-422v-1659h-227v805q-119 9 -214.5 58t-154.5 123.5t-90.5 164.5t-31.5 186z" />
<glyph unicode="&#xb7;" horiz-adv-x="536" d="M131 569q0 51 28.5 86.5t68.5 43.5t80.5 0t69 -43.5t28.5 -86.5t-28.5 -86t-69 -43.5t-80.5 0t-68.5 43.5t-28.5 86z" />
<glyph unicode="&#xb8;" horiz-adv-x="606" d="M61 -338l97 82q46 -66 139 -70q95 0 115 64q17 59 -46 89t-135 -7l-47 39l60 188h155l-30 -106q52 -1 92.5 -15.5t63.5 -37.5t38 -53t15 -61.5t-5 -62.5q-19 -89 -94.5 -136.5t-169.5 -45.5q-76 2 -143.5 36.5t-104.5 96.5z" />
<glyph unicode="&#xb9;" horiz-adv-x="544" d="M74 827v140h129v428l-111 -27v137l270 68v-606h132v-140h-420z" />
<glyph unicode="&#xba;" horiz-adv-x="972" d="M129 1104q0 164 99 254t257 90t258.5 -90.5t100.5 -253.5q0 -165 -100.5 -257.5t-258.5 -92.5q-156 0 -256 92.5t-100 257.5zM164 483v158h649v-158h-649zM301 1104q0 -86 53 -138.5t131 -52.5q80 0 133.5 52.5t53.5 138.5q0 87 -53.5 138.5t-133.5 51.5 q-79 0 -131.5 -51.5t-52.5 -138.5z" />
<glyph unicode="&#xbb;" horiz-adv-x="1019" d="M86 158l283 454l-283 449v2h227l285 -451l-285 -454h-227zM430 158l281 454l-281 449v2h225l285 -451l-285 -454h-225z" />
<glyph unicode="&#xbc;" horiz-adv-x="1585" d="M96 690v139h127v428l-108 -24v137l268 68v-609h133v-139h-420zM281 -2l784 1448h190l-786 -1448h-188zM852 274l350 471h209v-464h100v-142h-100v-139h-158v139h-393zM1022 281h231v311z" />
<glyph unicode="&#xbd;" horiz-adv-x="1646" d="M92 692v139h127v429l-108 -27v137l268 68v-607h133v-139h-420zM276 -4l783 1450h190l-784 -1450h-189zM975 -6v188q0 55 18.5 95t49 61.5t69.5 37t80 22t80 16t69.5 19.5t49 31.5t18.5 53.5q0 96 -139 96q-57 0 -94 -21.5t-37 -68.5h-160q1 59 26 104.5t67 72t91 40 t103 13.5q137 0 220 -57t83 -179q0 -66 -23.5 -111t-61.5 -66t-83.5 -33t-91 -18.5t-83.5 -16t-61.5 -32t-23.5 -59.5v-39h415v-149h-581z" />
<glyph unicode="&#xbe;" horiz-adv-x="1638" d="M78 934h160q15 -84 135 -84q56 0 98.5 21.5t42.5 68.5q0 39 -32.5 67.5t-104.5 28.5h-113v121h105q65 0 99.5 17t35.5 67q0 31 -33 59.5t-102 28.5q-130 0 -142 -86h-137q0 73 43.5 124t105 72t132.5 21q73 0 136 -22.5t107 -74t45 -122.5q0 -50 -27 -91t-75 -54 q54 -16 85.5 -60.5t31.5 -91.5q0 -64 -27.5 -111t-73.5 -72.5t-97 -37.5t-107 -12q-54 0 -103.5 12t-92.5 37.5t-68.5 70t-26.5 103.5zM373 -8l784 1454h191l-787 -1454h-188zM924 274l350 471h209v-464h86v-142h-86v-139h-158v139h-393zM1094 281h231v311z" />
<glyph unicode="&#xbf;" horiz-adv-x="1230" d="M70 27q-1 -92 28.5 -165.5t81 -122t122.5 -81.5t149.5 -47t166.5 -14q110 0 205.5 25.5t173.5 75.5t123.5 135.5t46.5 195.5q-39 0 -116.5 1t-116.5 1q-2 -77 -51 -131.5t-117 -77.5t-145 -23q-60 0 -111 9.5t-99.5 33t-77 69.5t-28.5 112q0 34 11 62t23.5 45.5t41.5 37 t45.5 27.5t56.5 26t54 25q49 20 82 40t67 53t53.5 75t32 106.5t12.5 147.5q-38 0 -113.5 1t-113.5 1v-47q-5 -71 -25 -113t-63 -70q-23 -15 -69 -35.5t-86 -38t-87 -48.5t-80 -67.5t-55 -94.5t-22 -129zM528 909q0 39 16 69t41 46t55.5 23t61 -0.5t55.5 -23t40.5 -46.5 t15.5 -70q0 -53 -29.5 -89.5t-71.5 -44.5t-83.5 0.5t-71 45t-29.5 90.5z" />
<glyph unicode="&#xc0;" horiz-adv-x="1572" d="M18 0l644 1434h249l643 -1434h-243l-137 301h-777l-135 -301h-244zM475 1864v8h254l152 -277v-10h-191zM483 510h607l-304 682z" />
<glyph unicode="&#xc1;" horiz-adv-x="1572" d="M18 0h244l135 301h777l137 -301h243l-643 1434h-249zM483 510l303 682l304 -682h-607zM676 1591v11l151 270h254v-8l-215 -273h-190z" />
<glyph unicode="&#xc2;" horiz-adv-x="1572" d="M18 0h244l135 301h777l137 -301h243l-643 1434h-249zM430 1579v12l301 279h123l301 -279v-12h-219l-143 123l-144 -123h-219zM483 510l303 682l304 -682h-607z" />
<glyph unicode="&#xc3;" horiz-adv-x="1572" d="M18 0l644 1434h249l643 -1434h-243l-137 301h-777l-135 -301h-244zM465 1642q31 92 93 138.5t149 27.5q27 -7 73.5 -29.5t65.5 -29.5q99 -34 127 53l135 -51q-9 -58 -35.5 -99t-60.5 -57.5t-73.5 -22.5t-74.5 5q-28 7 -75 30t-64 29q-93 32 -135 -61zM483 510h607 l-304 682z" />
<glyph unicode="&#xc4;" horiz-adv-x="1572" d="M18 0h244l135 301h777l137 -301h243l-643 1434h-249zM412 1704q0 60 39.5 93.5t87.5 33.5t87.5 -33.5t39.5 -93.5t-39.5 -93.5t-87.5 -33.5t-87.5 33.5t-39.5 93.5zM483 510l303 682l304 -682h-607zM903 1704q0 48 26.5 80.5t64 40.5t75 0t64 -40.5t26.5 -80.5 q0 -60 -40 -93.5t-88 -33.5t-88 33.5t-40 93.5z" />
<glyph unicode="&#xc5;" horiz-adv-x="1572" d="M18 0l637 1423q-59 27 -93 79.5t-34 125.5q0 75 38 130t95.5 80.5t124.5 25.5q103 0 180.5 -63t77.5 -173q0 -72 -35 -125t-94 -80l639 -1423h-249l-136 301h-768l-135 -301h-248zM489 506h592l-155 356l-140 357l-143 -363zM663.5 1630.5q0.5 -40.5 32.5 -74.5t88 -34 q58 0 90.5 34t31.5 74.5t-33.5 74.5t-88.5 34q-57 0 -89 -34t-31.5 -74.5z" />
<glyph unicode="&#xc6;" horiz-adv-x="1869" d="M-45 0l901 1434h893v-201h-643v-410h614v-200h-614v-416h653v-207h-862v344h-473l-211 -344h-258zM553 549h344v285l14 327h-2z" />
<glyph unicode="&#xc7;" horiz-adv-x="1441" d="M94 707q-1 115 28 223t90.5 204t149 168t213.5 114t275 42q147 0 282 -55t242 -162l-153 -147q-74 73 -171 110t-200 37q-106 0 -195 -30t-149.5 -81t-103 -119.5t-62 -144.5t-18.5 -157q1 -102 32 -193t92.5 -166t165.5 -119.5t238 -44.5q102 0 204.5 41t176.5 115 l158 -158q-206 -203 -508 -213l-27 -96q53 -1 93.5 -15.5t63.5 -37.5t38 -52.5t15.5 -61t-3.5 -62.5q-14 -67 -67 -112.5t-122 -59.5q-92 -21 -184 11t-141 112l96 81q27 -41 83.5 -58.5t107 -3t63.5 55.5q11 35 -14.5 64t-69.5 35t-96 -15l-47 37l57 187q-127 14 -232 61 t-178 116.5t-124 158.5t-74.5 187t-24.5 204z" />
<glyph unicode="&#xc8;" horiz-adv-x="1353" d="M180 0v1434h1053v-224h-823v-387h790v-213h-790v-385h829v-225h-1059zM467 1858v8h254l151 -277v-10h-190z" />
<glyph unicode="&#xc9;" horiz-adv-x="1353" d="M180 0h1059v225h-829v385h790v213h-790v387h823v224h-1053v-1434zM604 1581v10l152 271h254v-9l-215 -272h-191z" />
<glyph unicode="&#xca;" horiz-adv-x="1353" d="M180 0h1059v225h-829v385h790v213h-790v387h823v224h-1053v-1434zM367 1597v13l301 278h123l301 -278v-13h-220l-143 123l-143 -123h-219z" />
<glyph unicode="&#xcb;" horiz-adv-x="1353" d="M180 0h1059v225h-829v385h790v213h-790v387h823v224h-1053v-1434zM356 1708q0 60 39.5 93.5t87.5 33.5t87.5 -33.5t39.5 -93.5t-39.5 -93.5t-87.5 -33.5t-87.5 33.5t-39.5 93.5zM848 1708q0 60 40 93.5t88 33.5t88 -33.5t40 -93.5t-40 -93.5t-88 -33.5t-88 33.5t-40 93.5 z" />
<glyph unicode="&#xcc;" horiz-adv-x="587" d="M-4 1853v9h254l151 -277v-10h-190zM180 0v1434h228v-1434h-228z" />
<glyph unicode="&#xcd;" horiz-adv-x="587" d="M180 0h228v1434h-228v-1434zM184 1567v10l152 270h254v-8l-215 -272h-191z" />
<glyph unicode="&#xce;" horiz-adv-x="587" d="M-33 1575v12l271 277h110l270 -277v-12h-196l-129 121l-127 -121h-199zM180 0h228v1434h-228v-1434z" />
<glyph unicode="&#xcf;" horiz-adv-x="587" d="M-37 1702q0 60 39.5 93.5t87.5 33.5t87.5 -33.5t39.5 -93.5t-39.5 -93.5t-87.5 -33.5t-87.5 33.5t-39.5 93.5zM180 0h228v1434h-228v-1434zM383 1702q0 48 26.5 80.5t64 40.5t75 0t64 -40.5t26.5 -80.5q0 -60 -40 -93.5t-88 -33.5t-88 33.5t-40 93.5z" />
<glyph unicode="&#xd0;" horiz-adv-x="1552" d="M37 616v193h162v625h520q176 0 318 -56t232.5 -152t139 -220t49.5 -265q1 -118 -26.5 -226t-87 -202t-145 -163.5t-209 -109.5t-271.5 -40h-520v616h-162zM422 213h297q128 0 227 40.5t160.5 112t93 165t31.5 204.5q-2 224 -134 357t-378 133h-297v-416h291v-193h-291 v-403z" />
<glyph unicode="&#xd1;" horiz-adv-x="1579" d="M180 0v1434h176l813 -1020v1020h230v-1434h-174l-813 1012v-1012h-232zM469 1651q31 92 93 138.5t149 27.5q27 -7 73 -30t66 -30q99 -34 127 53l135 -51q-9 -58 -35.5 -99t-60.5 -57.5t-73.5 -22.5t-74.5 5q-27 7 -74.5 30.5t-64.5 29.5q-92 31 -135 -62z" />
<glyph unicode="&#xd2;" horiz-adv-x="1650" d="M92 709q0 216 93.5 387t262 267.5t381.5 96.5q143 -1 263.5 -41.5t205.5 -111.5t144.5 -166t88 -203.5t28.5 -226.5t-28 -226t-87.5 -202.5t-144.5 -164t-207 -109.5t-267 -40t-267 41t-207 111t-144 164.5t-87 201.5t-28 222zM319 707q1 -78 19.5 -152t58.5 -143 t97.5 -120t142.5 -81.5t188 -30.5q129 0 228.5 43.5t158.5 118t89 167t30 198.5q0 102 -30 196t-89 172t-158 126t-225 50q-242 0 -376 -151t-134 -393zM551 1874v8h254l151 -276v-11h-190z" />
<glyph unicode="&#xd3;" horiz-adv-x="1650" d="M92 709q0 -115 28 -222t87 -201.5t144 -164.5t207 -111t267 -41t267 40t207 109.5t144.5 164t87.5 202.5t28 226t-28.5 226.5t-88 203.5t-144.5 166t-205.5 111.5t-263.5 41.5q-213 0 -381.5 -96.5t-262 -267.5t-93.5 -387zM319 707q0 242 134 393t376 151 q126 -2 225 -50t158 -126t89 -172t30 -196q0 -106 -30 -198.5t-89 -167t-158.5 -118t-228.5 -43.5q-103 0 -188 30.5t-142.5 81.5t-97.5 120t-58.5 143t-19.5 152zM711 1595v11l151 270h254v-8l-215 -273h-190z" />
<glyph unicode="&#xd4;" horiz-adv-x="1650" d="M92 709q0 -115 28 -222t87 -201.5t144 -164.5t207 -111t267 -41t267 40t207 109.5t144.5 164t87.5 202.5t28 226t-28.5 226.5t-88 203.5t-144.5 166t-205.5 111.5t-263.5 41.5q-213 0 -381.5 -96.5t-262 -267.5t-93.5 -387zM319 707q0 242 134 393t376 151 q126 -2 225 -50t158 -126t89 -172t30 -196q0 -106 -30 -198.5t-89 -167t-158.5 -118t-228.5 -43.5q-103 0 -188 30.5t-142.5 81.5t-97.5 120t-58.5 143t-19.5 152zM467 1597v13l301 278h123l301 -278v-13h-219l-144 123l-143 -123h-219z" />
<glyph unicode="&#xd5;" horiz-adv-x="1650" d="M92 709q0 216 93.5 387t262 267.5t381.5 96.5q143 -1 263.5 -41.5t205.5 -111.5t144.5 -166t88 -203.5t28.5 -226.5t-28 -226t-87.5 -202.5t-144.5 -164t-207 -109.5t-267 -40t-267 41t-207 111t-144 164.5t-87 201.5t-28 222zM319 707q1 -78 19.5 -152t58.5 -143 t97.5 -120t142.5 -81.5t188 -30.5q129 0 228.5 43.5t158.5 118t89 167t30 198.5q0 102 -30 196t-89 172t-158 126t-225 50q-242 0 -376 -151t-134 -393zM508 1663q31 92 93 138.5t149 27.5q27 -7 73 -30t66 -30q99 -34 127 54l135 -51q-9 -58 -35.5 -99t-60.5 -58t-73.5 -23 t-74.5 5q-27 7 -74.5 30.5t-64.5 29.5q-92 31 -135 -62z" />
<glyph unicode="&#xd6;" horiz-adv-x="1650" d="M92 709q0 -115 28 -222t87 -201.5t144 -164.5t207 -111t267 -41t267 40t207 109.5t144.5 164t87.5 202.5t28 226t-28.5 226.5t-88 203.5t-144.5 166t-205.5 111.5t-263.5 41.5q-213 0 -381.5 -96.5t-262 -267.5t-93.5 -387zM319 707q0 242 134 393t376 151 q126 -2 225 -50t158 -126t89 -172t30 -196q0 -106 -30 -198.5t-89 -167t-158.5 -118t-228.5 -43.5q-103 0 -188 30.5t-142.5 81.5t-97.5 120t-58.5 143t-19.5 152zM457 1720q0 48 26 80.5t63.5 40.5t75 0t63.5 -40.5t26 -80.5q0 -60 -39.5 -93.5t-87.5 -33.5t-87.5 33.5 t-39.5 93.5zM948 1720q0 60 40 93.5t88 33.5t88 -33.5t40 -93.5t-40 -93.5t-88 -33.5t-88 33.5t-40 93.5z" />
<glyph unicode="&#xd7;" horiz-adv-x="937" d="M123 436l215 213l-215 213l141 137l209 -217l213 215l123 -120l-217 -222l229 -229l-133 -127l-225 227l-213 -217z" />
<glyph unicode="&#xd8;" horiz-adv-x="1646" d="M94 709q0 115 28.5 223.5t88.5 204.5t145 168t206.5 113.5t264.5 41.5q162 0 297 -55l95 162h223l-152 -258q132 -105 201.5 -264t69.5 -334q-1 -114 -29.5 -220.5t-88 -202t-144 -166t-206 -112t-266.5 -41.5q-168 0 -301 54l-102 -175h-223l159 269 q-130 102 -198 258.5t-68 333.5zM322 707q0 -113 39.5 -218t115.5 -176l535 906q-85 32 -185 32q-103 0 -189 -31.5t-144.5 -84t-98.5 -123t-57.5 -147.5t-15.5 -158zM639 209q89 -29 188 -29q103 0 188.5 30.5t143 81.5t97.5 119.5t58 142.5t19 153q2 118 -38 226.5 t-119 184.5z" />
<glyph unicode="&#xd9;" horiz-adv-x="1538" d="M160 594v838h227v-838q0 -190 100 -297t265 -113q176 -9 286.5 100.5t110.5 309.5v838h227v-838q0 -154 -48.5 -276t-134 -198t-198 -114t-243.5 -33q-122 3 -227.5 44t-187.5 116t-129.5 193.5t-47.5 267.5zM506 1864v8h254l151 -277v-10h-190z" />
<glyph unicode="&#xda;" horiz-adv-x="1538" d="M160 594q0 -149 47.5 -267.5t129.5 -193.5t187.5 -116t227.5 -44q131 -5 243.5 33t198 114t134 198t48.5 276v838h-227v-838q0 -200 -110.5 -309.5t-286.5 -100.5q-165 6 -265 113t-100 297v838h-227v-838zM651 1593v11l152 270h254v-8l-215 -273h-191z" />
<glyph unicode="&#xdb;" horiz-adv-x="1538" d="M160 594q0 -149 47.5 -267.5t129.5 -193.5t187.5 -116t227.5 -44q131 -5 243.5 33t198 114t134 198t48.5 276v838h-227v-838q0 -200 -110.5 -309.5t-286.5 -100.5q-165 6 -265 113t-100 297v838h-227v-838zM401 1597v13l301 278h123l301 -278v-13h-219l-143 123 l-143 -123h-220z" />
<glyph unicode="&#xdc;" horiz-adv-x="1538" d="M160 594q0 -149 47.5 -267.5t129.5 -193.5t187.5 -116t227.5 -44q131 -5 243.5 33t198 114t134 198t48.5 276v838h-227v-838q0 -200 -110.5 -309.5t-286.5 -100.5q-165 6 -265 113t-100 297v838h-227v-838zM397 1710q0 60 39.5 93.5t87.5 33.5t87.5 -33.5t39.5 -93.5 t-39.5 -93.5t-87.5 -33.5t-87.5 33.5t-39.5 93.5zM889 1710q0 60 40 93.5t88 33.5t88 -33.5t40 -93.5t-40 -93.5t-88 -33.5t-88 33.5t-40 93.5z" />
<glyph unicode="&#xdd;" horiz-adv-x="1404" d="M33 1423l553 -835v-588h229v588l569 835v11h-276l-408 -633l-395 633h-272v-11zM571 1587v10l152 271h254v-8l-215 -273h-191z" />
<glyph unicode="&#xde;" horiz-adv-x="1413" d="M178 0l2 1432h226v-238h438q123 0 222.5 -41t161 -108t94.5 -153t33.5 -175t-33 -175t-94.5 -153t-161 -108t-223 -41h-436v-240h-230zM408 444h436q69 0 124 23t89 61t52.5 86.5t18.5 99t-18.5 99t-52.5 86.5t-89.5 61t-123.5 23h-436v-539z" />
<glyph unicode="&#xdf;" horiz-adv-x="1267" d="M143 0v1055q0 97 40.5 175t108 126.5t150.5 74t172 25.5q94 0 178 -24.5t150.5 -71t105.5 -123.5t39 -174q0 -94 -59 -167.5t-162 -96.5q69 -15 124.5 -45t92 -67.5t60.5 -82.5t34.5 -90t10.5 -92q0 -113 -38.5 -201t-105 -141t-155 -79.5t-189 -24t-206.5 31.5v195 q212 -66 341.5 1.5t129.5 211.5q0 71 -31 126t-82.5 87.5t-112.5 48.5t-127 16h-116v201h108q46 0 88 8t82 25.5t64.5 52.5t25.5 82q1 44 -13.5 78.5t-38.5 56.5t-57 36.5t-66.5 20t-70.5 5.5q-106 0 -172.5 -46.5t-72.5 -128.5q-6 -59 -6 -120v-383q0 -87 1 -293.5 t1 -288.5h-226z" />
<glyph unicode="&#xe0;" d="M82 506q0 164 70.5 285t187.5 181t264 60q109 0 203.5 -48.5t140.5 -133.5l6 160h205v-1010h-201l-10 164q-48 -91 -147 -141t-201 -50q-228 -2 -373 140t-145 393zM293 506q0 -153 94.5 -244.5t233.5 -91.5q79 0 142.5 29t103 76t60.5 107t21 123t-21 123t-60.5 107 t-103 76t-142.5 29q-139 0 -233.5 -91.5t-94.5 -242.5zM381 1444v8h254l151 -276v-11h-190z" />
<glyph unicode="&#xe1;" d="M82 506q0 -251 145 -393t373 -140q102 0 201 50t147 141l10 -164h201v1010h-205l-6 -160q-46 85 -140.5 133.5t-203.5 48.5q-147 0 -264 -60t-187.5 -181t-70.5 -285zM293 506q0 151 94.5 242.5t233.5 91.5q79 0 142.5 -29t103 -76t60.5 -107t21 -123t-21 -123 t-60.5 -107t-103 -76t-142.5 -29q-139 0 -233.5 91.5t-94.5 244.5zM502 1161v10l151 271h254v-8l-215 -273h-190z" />
<glyph unicode="&#xe2;" d="M82 506q0 -251 145 -393t373 -140q102 0 201 50t147 141l10 -164h201v1010h-205l-6 -160q-46 85 -140.5 133.5t-203.5 48.5q-147 0 -264 -60t-187.5 -181t-70.5 -285zM293 506q0 151 94.5 242.5t233.5 91.5q79 0 142.5 -29t103 -76t60.5 -107t21 -123t-21 -123 t-60.5 -107t-103 -76t-142.5 -29q-139 0 -233.5 91.5t-94.5 244.5zM307 1169v13l301 278h123l301 -278v-13h-219l-143 123l-144 -123h-219z" />
<glyph unicode="&#xe3;" d="M82 506q0 164 70.5 285t187.5 181t264 60q109 0 203.5 -48.5t140.5 -133.5l6 160h205v-1010h-201l-10 164q-48 -91 -147 -141t-201 -50q-228 -2 -373 140t-145 393zM293 506q0 -153 94.5 -244.5t233.5 -91.5q79 0 142.5 29t103 76t60.5 107t21 123t-21 123t-60.5 107 t-103 76t-142.5 29q-139 0 -233.5 -91.5t-94.5 -242.5zM344 1290q31 92 93 138.5t149 27.5q27 -7 73.5 -29.5t65.5 -29.5q99 -34 127 53l135 -51q-9 -58 -35.5 -99t-60.5 -57.5t-73.5 -22.5t-74.5 5q-28 7 -75 30t-64 29q-93 32 -135 -61z" />
<glyph unicode="&#xe4;" d="M82 506q0 -251 145 -393t373 -140q102 0 201 50t147 141l10 -164h201v1010h-205l-6 -160q-46 85 -140.5 133.5t-203.5 48.5q-147 0 -264 -60t-187.5 -181t-70.5 -285zM293 506q0 151 94.5 242.5t233.5 91.5q79 0 142.5 -29t103 -76t60.5 -107t21 -123t-21 -123 t-60.5 -107t-103 -76t-142.5 -29q-139 0 -233.5 91.5t-94.5 244.5zM303 1325q0 48 26 80.5t63.5 40.5t75 0t63.5 -40.5t26 -80.5t-26 -80.5t-63.5 -40.5t-75 0t-63.5 40.5t-26 80.5zM795 1325q0 48 26.5 80.5t64 40.5t75 0t64 -40.5t26.5 -80.5t-26.5 -80.5t-64 -40.5t-75 0 t-64 40.5t-26.5 80.5z" />
<glyph unicode="&#xe5;" d="M82 506q0 164 70.5 285t187.5 181t264 60q109 0 203.5 -48.5t140.5 -133.5l6 160h205v-1010h-201l-10 164q-48 -91 -147 -141t-201 -50q-228 -2 -373 140t-145 393zM293 506q0 -153 94.5 -244.5t233.5 -91.5q79 0 142.5 29t103 76t60.5 107t21 123t-21 123t-60.5 107 t-103 76t-142.5 29q-139 0 -233.5 -91.5t-94.5 -242.5zM391 1343q0 105 74 164.5t180 59.5q107 0 184.5 -59.5t77.5 -164.5q0 -106 -75 -166.5t-185 -60.5q-108 0 -182 61t-74 166zM526 1345.5q0 -38.5 32 -70.5t87 -32q58 0 90.5 32t31.5 70.5t-33.5 70.5t-88.5 32 t-87.5 -32t-31.5 -70.5z" />
<glyph unicode="&#xe6;" horiz-adv-x="2072" d="M82 506q0 164 70.5 285t188 181t265.5 60q108 0 202.5 -48.5t143.5 -133.5l6 160h189v-148q125 174 364 174q121 0 221 -42t167 -118.5t93.5 -193t0.5 -256.5h-822q20 -122 111.5 -190t216.5 -68q90 0 172.5 27.5t134.5 80.5l127 -129q-161 -172 -434 -172 q-244 0 -354 170l-6 -145h-187l-2 160q-32 -61 -94.5 -105t-128 -63t-127.5 -19q-230 0 -374 139.5t-144 393.5zM295 506q0 -153 94 -244.5t234 -91.5q81 0 147 29t106 76t62 107t22 123t-22 123t-62 107t-106 76t-147 29q-140 0 -234 -91t-94 -243zM1176 604h622 q0 118 -80 181t-211 63q-121 0 -214 -64t-117 -180z" />
<glyph unicode="&#xe7;" horiz-adv-x="1048" d="M82 504q0 127 41.5 229t114.5 167t169 99.5t207 34.5q212 0 365 -149l-135 -142q-94 91 -228 91q-139 0 -231 -91t-92 -239q0 -154 92 -240t229 -86q149 0 240 94l143 -141q-158 -158 -368 -158l-23 -82q53 -1 93.5 -14.5t63 -36t37 -51.5t15 -59.5t-3.5 -61.5 q-14 -66 -59 -112t-105.5 -61.5t-125 -10t-125 41t-97.5 93.5l94 82q30 -43 87 -64.5t110 -7.5t69 62q12 37 -18 65t-77 31t-95 -18l-47 36l55 185q-178 37 -286.5 169.5t-108.5 344.5z" />
<glyph unicode="&#xe8;" horiz-adv-x="1191" d="M82 510q0 231 147.5 378.5t382.5 147.5q255 0 395.5 -156t112.5 -454h-819q14 -116 103 -185t227 -69q81 0 165 29.5t128 79.5l137 -134q-75 -83 -193 -127.5t-241 -44.5q-249 0 -397 146t-148 389zM305 604h613q-9 118 -89.5 181t-210.5 63q-119 0 -204 -63.5 t-109 -180.5zM360 1430v8h254l152 -277v-10h-191z" />
<glyph unicode="&#xe9;" horiz-adv-x="1191" d="M82 510q0 -243 148 -389t397 -146q123 0 241 44.5t193 127.5l-137 134q-44 -50 -128 -79.5t-165 -29.5q-138 0 -227 69t-103 185h819q28 298 -112.5 454t-395.5 156q-235 0 -382.5 -147.5t-147.5 -378.5zM305 604q24 117 109 180.5t204 63.5q130 0 210.5 -63t89.5 -181 h-613zM496 1159v10l151 271h254v-8l-215 -273h-190z" />
<glyph unicode="&#xea;" horiz-adv-x="1191" d="M82 510q0 -243 148 -389t397 -146q123 0 241 44.5t193 127.5l-137 134q-44 -50 -128 -79.5t-165 -29.5q-138 0 -227 69t-103 185h819q28 298 -112.5 454t-395.5 156q-235 0 -382.5 -147.5t-147.5 -378.5zM264 1153v12l301 279h123l301 -279v-12h-219l-143 123l-144 -123 h-219zM305 604q24 117 109 180.5t204 63.5q130 0 210.5 -63t89.5 -181h-613z" />
<glyph unicode="&#xeb;" horiz-adv-x="1191" d="M82 510q0 -243 148 -389t397 -146q123 0 241 44.5t193 127.5l-137 134q-44 -50 -128 -79.5t-165 -29.5q-138 0 -227 69t-103 185h819q28 298 -112.5 454t-395.5 156q-235 0 -382.5 -147.5t-147.5 -378.5zM270 1319q0 48 26 80.5t63.5 40.5t75 0t63.5 -40.5t26 -80.5 t-26 -80.5t-63.5 -40.5t-75 0t-63.5 40.5t-26 80.5zM305 604q24 117 109 180.5t204 63.5q130 0 210.5 -63t89.5 -181h-613zM721 1319q0 48 26.5 80.5t64 40.5t75 0t64 -40.5t26.5 -80.5t-26.5 -80.5t-64 -40.5t-75 0t-64 40.5t-26.5 80.5z" />
<glyph unicode="&#xec;" horiz-adv-x="507" d="M-14 1427v9h223l135 -275v-10h-188zM143 0v985h222v-985h-222z" />
<glyph unicode="&#xed;" horiz-adv-x="507" d="M131 1151v10l135 273h223v-9l-167 -274h-191zM143 0h222v985h-222v-985z" />
<glyph unicode="&#xee;" horiz-adv-x="507" d="M-68 1161v13l263 282h108l262 -282v-13h-192l-125 119l-125 -119h-191zM143 0h222v985h-222v-985z" />
<glyph unicode="&#xef;" horiz-adv-x="507" d="M-51 1325q0 48 26 80.5t63.5 40.5t75 0t63.5 -40.5t26 -80.5t-26 -80.5t-63.5 -40.5t-75 0t-63.5 40.5t-26 80.5zM143 0h222v985h-222v-985zM324 1325q0 48 26.5 80.5t64 40.5t75 0t64 -40.5t26.5 -80.5t-26.5 -80.5t-64 -40.5t-75 0t-64 40.5t-26.5 80.5z" />
<glyph unicode="&#xf0;" horiz-adv-x="1210" d="M82 487q0 88 27.5 170t80 150.5t136.5 115.5t190 60q90 10 181 -11t149 -75q-25 73 -96.5 141.5t-131.5 100.5l-69 -84l-107 69l60 78q-68 41 -178 58l41 174q145 -26 262 -80l90 112l108 -77l-80 -99q204 -155 290.5 -344.5t86.5 -431.5q2 -238 -138.5 -386t-381.5 -148 q-126 0 -227.5 43t-164 115t-95.5 161.5t-33 187.5zM299 489q0 -83 33 -153.5t103.5 -117t166.5 -46.5q97 0 167.5 46.5t103 117t32.5 153.5q0 61 -19.5 116.5t-55.5 100.5t-95.5 72t-132.5 27q-142 0 -222.5 -94t-80.5 -222z" />
<glyph unicode="&#xf1;" horiz-adv-x="1249" d="M143 0v1012h193l12 -148q143 162 340 162q190 0 312 -128.5t122 -354.5v-543h-213v541q0 133 -71.5 211.5t-200.5 78.5q-124 0 -203.5 -88t-79.5 -215v-528h-211zM338 1288q28 90 84.5 135.5t134.5 26.5q25 -6 69.5 -28.5t59.5 -28.5q91 -34 115 53l125 -51 q-8 -57 -32.5 -97.5t-56 -57t-67.5 -22.5t-68 5q-25 7 -68.5 30t-58.5 29q-84 31 -124 -61z" />
<glyph unicode="&#xf2;" horiz-adv-x="1204" d="M80 504q0 226 144.5 376t375.5 150q152 0 272.5 -69.5t186 -189t65.5 -267.5q0 -227 -144.5 -375.5t-379.5 -148.5q-233 0 -376.5 148t-143.5 376zM291 504q0 -140 84 -234t225 -94q142 0 226.5 94t84.5 234q0 137 -88 234.5t-223 97.5q-140 0 -224.5 -96.5t-84.5 -235.5 zM319 1440v8h254l152 -266v-11h-190z" />
<glyph unicode="&#xf3;" horiz-adv-x="1204" d="M80 504q0 -228 143.5 -376t376.5 -148q235 0 379.5 148.5t144.5 375.5q0 148 -65.5 267.5t-186 189t-272.5 69.5q-231 0 -375.5 -150t-144.5 -376zM291 504q0 139 84.5 235.5t224.5 96.5q135 0 223 -97.5t88 -234.5q0 -140 -84.5 -234t-226.5 -94q-141 0 -225 94t-84 234 zM487 1167v11l150 268h252v-8l-213 -271h-189z" />
<glyph unicode="&#xf4;" horiz-adv-x="1204" d="M80 504q0 -228 143.5 -376t376.5 -148q235 0 379.5 148.5t144.5 375.5q0 148 -65.5 267.5t-186 189t-272.5 69.5q-231 0 -375.5 -150t-144.5 -376zM242 1186v12l301 279h123l301 -279v-12h-219l-144 123l-143 -123h-219zM291 504q0 139 84.5 235.5t224.5 96.5 q135 0 223 -97.5t88 -234.5q0 -140 -84.5 -234t-226.5 -94q-141 0 -225 94t-84 234z" />
<glyph unicode="&#xf5;" horiz-adv-x="1204" d="M80 504q0 226 144.5 376t375.5 150q152 0 272.5 -69.5t186 -189t65.5 -267.5q0 -227 -144.5 -375.5t-379.5 -148.5q-233 0 -376.5 148t-143.5 376zM291 504q0 -140 84 -234t225 -94q142 0 226.5 94t84.5 234q0 137 -88 234.5t-223 97.5q-140 0 -224.5 -96.5t-84.5 -235.5 zM299 1294q30 90 87 135.5t138 26.5q25 -7 68.5 -29t60.5 -28q91 -34 119 51l125 -49q-7 -46 -24 -80.5t-40.5 -53.5t-51.5 -30.5t-56 -11t-55 5.5q-24 6 -66.5 28.5t-62.5 28.5q-85 32 -125 -59z" />
<glyph unicode="&#xf6;" horiz-adv-x="1204" d="M80 504q0 -228 143.5 -376t376.5 -148q235 0 379.5 148.5t144.5 375.5q0 148 -65.5 267.5t-186 189t-272.5 69.5q-231 0 -375.5 -150t-144.5 -376zM272 1325q0 48 26 80.5t63.5 40.5t75 0t63.5 -40.5t26 -80.5t-26 -80.5t-63.5 -40.5t-75 0t-63.5 40.5t-26 80.5zM291 504 q0 139 84.5 235.5t224.5 96.5q135 0 223 -97.5t88 -234.5q0 -140 -84.5 -234t-226.5 -94q-141 0 -225 94t-84 234zM707 1325q0 48 26.5 80.5t64 40.5t75 0t64 -40.5t26.5 -80.5t-26.5 -80.5t-64 -40.5t-75 0t-64 40.5t-26.5 80.5z" />
<glyph unicode="&#xf7;" horiz-adv-x="1130" d="M119 582h893v192h-893v-192zM440 301q0 48 26.5 81.5t64 41t75 0t64 -41t26.5 -81.5t-26.5 -80.5t-64 -40.5t-75 0t-64 40.5t-26.5 80.5zM440 1030q0 60 40 93.5t88 33.5t88 -33.5t40 -93.5t-40 -93.5t-88 -33.5t-88 33.5t-40 93.5z" />
<glyph unicode="&#xf8;" horiz-adv-x="1204" d="M80 504q0 226 144.5 376t375.5 150q105 0 195 -35l75 129h203l-129 -217q86 -71 133 -175.5t47 -227.5q0 -227 -144.5 -375.5t-379.5 -148.5q-99 0 -188 28l-80 -135h-203l131 221q-86 69 -133 176t-47 234zM291 504q0 -137 80 -223l319 540q-51 15 -90 15 q-140 0 -224.5 -96.5t-84.5 -235.5zM518 186q31 -10 82 -10q142 0 226.5 94t84.5 234q0 125 -77 215z" />
<glyph unicode="&#xf9;" horiz-adv-x="1247" d="M127 467v543h211v-541q0 -132 72 -211.5t202 -79.5q123 0 202 88.5t79 216.5v527h211v-1012h-191l-12 149q-141 -163 -348 -163q-190 0 -308 129t-118 354zM356 1430v8h254l152 -277v-10h-191z" />
<glyph unicode="&#xfa;" horiz-adv-x="1247" d="M127 467q0 -225 118 -354t308 -129q207 0 348 163l12 -149h191v1012h-211v-527q0 -128 -79 -216.5t-202 -88.5q-130 0 -202 79.5t-72 211.5v541h-211v-543zM498 1151v10l151 271h254v-9l-215 -272h-190z" />
<glyph unicode="&#xfb;" horiz-adv-x="1247" d="M127 467q0 -225 118 -354t308 -129q207 0 348 163l12 -149h191v1012h-211v-527q0 -128 -79 -216.5t-202 -88.5q-130 0 -202 79.5t-72 211.5v541h-211v-543zM289 1176v10l291 268h118l291 -268v-10h-211l-139 116l-137 -116h-213z" />
<glyph unicode="&#xfc;" horiz-adv-x="1247" d="M127 467q0 -225 118 -354t308 -129q207 0 348 163l12 -149h191v1012h-211v-527q0 -128 -79 -216.5t-202 -88.5q-130 0 -202 79.5t-72 211.5v541h-211v-543zM264 1319q0 48 26 80.5t63.5 40.5t75 0t63.5 -40.5t26 -80.5t-26 -80.5t-63.5 -40.5t-75 0t-63.5 40.5t-26 80.5z M756 1319q0 48 26.5 80.5t64 40.5t75 0t64 -40.5t26.5 -80.5t-26.5 -80.5t-64 -40.5t-75 0t-64 40.5t-26.5 80.5z" />
<glyph unicode="&#xfd;" horiz-adv-x="1142" d="M45 1010l404 -996l-209 -483h233l637 1479h-236l-200 -482l-109 -282l-100 286l-174 478h-246zM461 1167v11l141 256h240v-9l-203 -258h-178z" />
<glyph unicode="&#xfe;" horiz-adv-x="1304" d="M143 -422v1856h211l2 -586q51 85 151 133.5t206 48.5q226 -2 368 -139.5t142 -386.5q0 -168 -67.5 -289t-181.5 -179.5t-263 -58.5q-102 0 -200.5 46t-154.5 139v-584h-213zM375 504q0 -135 92.5 -228.5t224.5 -93.5q137 0 227.5 86t90.5 236q0 151 -90 236t-228 85 q-133 0 -225 -93t-92 -228z" />
<glyph unicode="&#xff;" horiz-adv-x="1142" d="M45 1010l404 -996l-209 -483h233l637 1479h-236l-200 -482l-109 -282l-100 286l-174 478h-246zM195 1327q0 47 26 79.5t62.5 40t73.5 0t63 -40t26 -79.5q0 -48 -26 -80.5t-63 -40.5t-73.5 0t-62.5 40.5t-26 80.5zM682 1327q0 47 26 79.5t63.5 40t75 0t63.5 -40t26 -79.5 q0 -48 -26 -80.5t-63.5 -40.5t-75 0t-63.5 40.5t-26 80.5z" />
<glyph unicode="&#x152;" horiz-adv-x="2064" d="M94 723q0 157 46 290t135 232.5t229.5 156t318.5 56.5q71 0 213 -24h910v-205h-701v-402h668v-204h-668v-416h709v-207h-920q-95 -27 -211 -27q-179 0 -320.5 59t-229.5 162t-133.5 237.5t-45.5 291.5zM324 719q0 -80 18 -156t55.5 -144.5t90.5 -121t129 -85.5t165 -38 q136 -12 252 27v1028q-87 37 -209 37q-123 0 -220 -43t-157.5 -118.5t-92 -173.5t-31.5 -212z" />
<glyph unicode="&#x153;" horiz-adv-x="1988" d="M80 504q0 226 144.5 377t375.5 151q133 0 242.5 -60.5t167.5 -168.5q48 102 156.5 166.5t244.5 64.5q123 0 221.5 -37.5t167.5 -111.5t100 -191t17 -268h-811q12 -116 98 -185t223 -69q81 0 164.5 29.5t128.5 79.5l138 -134q-75 -83 -192.5 -127.5t-240.5 -44.5 q-146 0 -256.5 60.5t-169.5 171.5q-133 -227 -399 -227q-233 0 -376.5 148t-143.5 376zM291 504q0 -140 84 -234t225 -94q142 0 225.5 94t83.5 234q0 137 -87 234.5t-222 97.5q-140 0 -224.5 -96.5t-84.5 -235.5zM1104 604h610q-9 118 -88.5 181t-208.5 63 q-119 0 -204 -63.5t-109 -180.5z" />
<glyph unicode="&#x178;" horiz-adv-x="1404" d="M33 1423l553 -835v-588h229v588l569 835v11h-276l-408 -633l-395 633h-272v-11zM340 1702q0 57 38 89t84 32t84 -32t38 -89t-38 -89t-84 -32t-84 32t-38 89zM809 1702q0 57 38 89t84 32t84 -32t38 -89t-38 -89t-84 -32t-84 32t-38 89z" />
<glyph unicode="&#x2c6;" horiz-adv-x="862" d="M51 1165v13l301 278h123l301 -278v-13h-219l-143 123l-144 -123h-219z" />
<glyph unicode="&#x2dc;" horiz-adv-x="743" d="M57 1311q31 92 93 138.5t149 27.5q27 -7 73 -30t66 -30q99 -34 127 53l135 -51q-9 -58 -35.5 -99t-60.5 -57.5t-73 -22.5t-74 5q-27 7 -75 30.5t-65 29.5q-92 31 -135 -62z" />
<glyph unicode="&#x2000;" horiz-adv-x="944" />
<glyph unicode="&#x2001;" horiz-adv-x="1888" />
<glyph unicode="&#x2002;" horiz-adv-x="944" />
<glyph unicode="&#x2003;" horiz-adv-x="1888" />
<glyph unicode="&#x2004;" horiz-adv-x="629" />
<glyph unicode="&#x2005;" horiz-adv-x="472" />
<glyph unicode="&#x2006;" horiz-adv-x="314" />
<glyph unicode="&#x2007;" horiz-adv-x="314" />
<glyph unicode="&#x2008;" horiz-adv-x="236" />
<glyph unicode="&#x2009;" horiz-adv-x="377" />
<glyph unicode="&#x200a;" horiz-adv-x="104" />
<glyph unicode="&#x2010;" horiz-adv-x="1011" d="M133 498v190h746v-190h-746z" />
<glyph unicode="&#x2011;" horiz-adv-x="1011" d="M133 498v190h746v-190h-746z" />
<glyph unicode="&#x2012;" horiz-adv-x="1011" d="M133 498v190h746v-190h-746z" />
<glyph unicode="&#x2013;" horiz-adv-x="1220" d="M133 494v186h954v-186h-954z" />
<glyph unicode="&#x2014;" horiz-adv-x="1423" d="M133 494v188h1157v-188h-1157z" />
<glyph unicode="&#x2018;" horiz-adv-x="503" d="M96 1006l150 430h170l-97 -430h-223z" />
<glyph unicode="&#x2019;" horiz-adv-x="495" d="M106 1001l99 433h221l-150 -433h-170z" />
<glyph unicode="&#x201a;" horiz-adv-x="526" d="M68 -250l96 432h223l-149 -432h-170z" />
<glyph unicode="&#x201c;" horiz-adv-x="837" d="M102 999l152 433h170l-107 -433h-215zM442 999l136 433h170l-99 -433h-207z" />
<glyph unicode="&#x201d;" horiz-adv-x="811" d="M106 1006l99 428h207l-136 -428h-170zM432 1006l96 428h209l-135 -428h-170z" />
<glyph unicode="&#x201e;" horiz-adv-x="860" d="M68 -250l96 432h223l-149 -432h-170zM401 -250l97 432h223l-150 -432h-170z" />
<glyph unicode="&#x2022;" horiz-adv-x="804" d="M166 625q0 103 67.5 168t169.5 65q101 0 167.5 -65t66.5 -168q0 -102 -66.5 -166t-167.5 -64q-102 0 -169.5 64t-67.5 166z" />
<glyph unicode="&#x2026;" horiz-adv-x="1374" d="M119 113q0 61 40.5 95.5t89.5 34.5t89.5 -34.5t40.5 -95.5q0 -50 -27 -83.5t-65 -41.5t-76 0t-65 41.5t-27 83.5zM557 113q0 49 27 82.5t65.5 41.5t77 0t65.5 -41.5t27 -82.5q0 -50 -27 -83.5t-65.5 -41.5t-77 0t-65.5 41.5t-27 83.5zM995 113q0 61 40.5 95.5t89.5 34.5 t89.5 -34.5t40.5 -95.5q0 -50 -27 -83.5t-65 -41.5t-76 0t-65 41.5t-27 83.5z" />
<glyph unicode="&#x202f;" horiz-adv-x="377" />
<glyph unicode="&#x2039;" horiz-adv-x="675" d="M78 608l284 451h228v-2l-283 -449q57 -93 283 -454h-228z" />
<glyph unicode="&#x203a;" horiz-adv-x="677" d="M88 156l281 454l-281 449v2h225l285 -451l-285 -454h-225z" />
<glyph unicode="&#x205f;" horiz-adv-x="472" />
<glyph unicode="&#x20ac;" horiz-adv-x="1255" d="M88 485v172h113v50q0 41 2 61h-115v174h141q28 113 84.5 205t141.5 162.5t207 109.5t270 39q108 0 217 -31l-70 -204q-63 18 -147 18q-181 0 -298.5 -79.5t-170.5 -219.5h489l-39 -174h-499q-2 -18 -2 -59q0 -38 2 -52h467l-35 -172h-387q49 -140 168 -219.5t305 -79.5 q93 0 186 35l64 -213q-115 -37 -250 -37q-301 0 -475.5 137.5t-231.5 376.5h-137z" />
<glyph unicode="&#x2122;" horiz-adv-x="1660" d="M127 1296v138h563v-138h-201v-454h-157v454h-205zM809 840v594h154l192 -246l197 246h151v-594h-162l7 354q-23 -30 -85 -105t-92 -114h-34l-174 227l6 -362h-160z" />
<glyph unicode="&#x25fc;" horiz-adv-x="1013" d="M0 0v1014h1014v-1014h-1014z" />
<glyph unicode="&#xfb01;" horiz-adv-x="1255" d="M57 813h187v-813h213v813h301v184h-301v74q0 98 44.5 148.5t119.5 50.5q58 0 120 -35l68 166q-100 53 -201 53q-161 0 -262.5 -100t-101.5 -283v-74h-187v-184zM879 1307q0 49 27 82.5t65.5 41.5t77 0t65.5 -41.5t27 -82.5q0 -36 -14.5 -64t-37.5 -42.5t-51 -21.5t-56 0 t-51 21.5t-37.5 42.5t-14.5 64zM903 0h213v1014h-213v-1014z" />
<glyph unicode="&#xfb02;" horiz-adv-x="1265" d="M57 813v184h185v74q0 183 101.5 283t262.5 100q72 0 139 -24l-30 -183q-51 23 -97 23q-75 0 -119 -50.5t-44 -148.5v-74h264v-184h-264v-813h-213v813h-185zM901 0v1436h213v-1436h-213z" />
</font>
</defs>
</svg>
